<svg width="748" height="119" viewBox="0 0 748 119" fill="none" xmlns="http://www.w3.org/2000/svg">
<g clip-path="url(#clip0_5_54)">
<path d="M62.3589 10.4907C54.1247 24.6075 51.8827 28.109 42.7489 42.3503C45.8212 47.5957 52.0488 58.3494 49.71 71.5942C48.0078 81.213 40.9914 90.5827 23.8309 90.8318C24.0385 86.0847 23.0282 83.3305 20.9662 79.4553L14.6279 115.439H0L19.4993 4.87167H57.1139L62.3728 10.4907H62.3589ZM21.6443 75.594C22.8483 75.8431 24.6751 76.0922 26.9309 76.0922C33.1723 76.0922 34.57 72.4661 35.0544 69.7258C35.4557 67.4837 37.2548 57.2283 26.9309 45.6166L21.6443 75.6078V75.594ZM31.7745 18.1165L27.2768 43.6098C32.6464 37.2434 38.7218 27.6108 43.1364 18.1165H31.7607H31.7745ZM119.487 67.719C119.916 68.0927 120.137 68.9646 120.026 69.5874C119.846 70.5839 118.809 70.833 118.186 70.833C117.438 70.833 116.705 70.7085 115.985 70.5839C110.436 75.8293 104.291 80.2027 97.8423 84.2024C101.537 89.4478 107.903 96.5754 117.591 103.315C111.931 107.066 109.578 109.059 104.264 114.443C94.687 107.813 85.9546 97.821 81.2354 88.4513C80.9586 89.3232 80.6265 90.4443 80.2529 92.5756C79.6993 95.7035 79.5747 97.821 79.4779 99.8278C65.2513 104.699 42.1123 111.204 37.2963 112.325C36.7428 114.069 36.0923 115.578 34.8468 115.578C33.8504 115.578 33.5736 114.332 33.366 113.336L31.3317 99.3434C34.6946 98.7206 39.4137 97.475 48.8243 95.0945L64.7116 4.99623H126.185L116.705 58.723H110.214L119.5 67.719H119.487ZM64.4071 90.9564C69.0294 89.5862 73.4717 88.4513 80.2113 86.3338C76.7654 78.9571 74.4681 68.5909 74.4543 58.723H70.0811L64.3933 90.9564H64.4071ZM73.8315 37.4787L72.2954 46.2255H103.779L105.329 37.4787H73.8454H73.8315ZM107.281 26.3513L108.775 17.8536H77.2913L75.7967 26.3513H107.281ZM88.3349 58.7092C88.7639 65.4631 90.6183 70.5839 91.8362 73.5733C97.7593 69.0753 103.336 64.3282 108.208 58.7092H88.3349Z" fill="#66EDFF"/>
<path d="M210.022 115.578H194.522L202.895 68.0927L208.652 68.7155C204.569 64.9649 200.224 59.8441 196.349 52.7165H192.599C188.336 57.0899 181.652 63.0826 174.774 68.0789L182.122 68.9508C183.105 69.0753 184.572 69.1999 184.337 70.5701C184.074 72.0648 182.731 72.563 180.725 73.3242C178.635 83.0676 173.321 106.817 146.376 117.183C145.006 112.187 140.411 107.813 137.547 105.558C150.113 102.305 157.613 93.8074 159.454 91.1916C163.315 85.5726 164.823 77.6977 165.405 74.4453C159.094 78.3205 150.514 83.0676 139.194 87.0673C137.837 82.6939 134.115 77.5731 130.987 74.8189C144.466 72.0648 160.852 64.2037 173.999 52.7027H148.009L156.492 4.59488H250.709L242.226 52.7027H214.243C223.916 64.4528 241.852 72.563 250.432 74.1961C244.606 79.5661 243.25 80.9501 238.641 87.1919C229.59 83.9395 220.553 77.8222 217.094 75.4417L210.022 115.55V115.578ZM190.606 33.6035H167.245L165.903 41.2293H189.263L190.606 33.6035ZM193.692 16.1097H170.331L169.003 23.611H192.363L193.692 16.1097ZM205.137 41.2293H228.622L229.964 33.6035H206.479L205.137 41.2293ZM208.237 23.611H231.722L233.05 16.1097H209.565L208.237 23.611Z" fill="#66EDFF"/>
<path d="M335.252 3.37696C336.082 3.62608 337.66 3.8752 337.397 5.36991C337.203 6.49095 335.695 7.23831 334.048 7.36287C332.138 10.3661 330.962 12.11 328.927 15.1133C347.112 12.6082 353.879 10.3661 358.266 8.87143L355.568 24.8704C343.32 27.0018 330.45 29.1193 318.133 30.2404C316.154 32.9945 312.459 37.6171 309.677 41.3677C315.434 38.489 320.928 38.489 322.049 38.489C324.042 38.489 335.376 38.7381 338.892 49.99C348.468 45.9903 361.823 40.3712 367.566 37.6171L370.818 54.6126C359.221 57.9895 349.188 61.1035 339.528 64.8542C339.044 69.7258 338.393 74.0993 337.826 77.3517C336.857 82.8461 335.944 86.5968 335.266 89.7246C334.394 89.7246 324.333 89.3509 318.52 89.7246C320.264 83.3582 320.472 82.2233 322.188 72.48C307.269 79.8567 301.18 85.3512 300.225 90.7211C299.229 96.3401 305.249 98.3469 320.001 98.3469C324.499 98.3469 339.113 98.3469 360.231 92.7279C357.464 99.2188 356.052 105.101 355.222 109.848C339.127 113.225 323.641 113.225 319.89 113.225C312.888 113.225 280.158 113.225 283.923 91.856C286.981 74.4868 315.102 60.9928 323.433 56.993C322.838 53.9898 320.998 50.2391 314.382 50.2391C304.64 50.2391 294.094 57.6158 278.788 77.1025L265.461 68.3557C271.8 62.8612 287.327 47.1113 299.422 31.6244C293.25 31.8735 289.486 31.998 279.383 31.8735L282.137 16.2481C284.961 16.4973 292.337 17.2446 302.08 17.2446C306.577 17.2446 308.473 17.1201 309.746 16.9955C310.757 15.5008 316.334 7.25215 319.863 0L335.266 3.37696H335.252Z" fill="#66EDFF"/>
<path d="M454.365 18.7393L456.607 5.99272H513.831C506.773 43.2223 502.677 47.9694 481.642 48.9797C480.41 42.4888 479.981 39.9837 477.614 34.9875C481.462 35.112 488.021 35.4857 490.665 33.991C494.692 31.7489 496.74 21.4935 497.349 18.7532H482.735C478.818 30.3788 469.74 44.2464 459.029 51.8584H503.507L496.297 92.714H445.19L452.4 51.8584H458.766C456.178 48.1078 454.711 46.4885 450.628 44.108L449.106 52.7303H430.741L428.998 62.5982H445.494L443.114 76.0922H426.617L423.338 94.707C430.589 98.9559 437.26 100.077 456.122 100.077C471.871 100.077 478.957 99.5787 499.549 97.5719C496.214 102.319 493.723 107.938 492.519 113.322H447.791C428.929 113.322 410.523 107.827 401.929 92.8248C396.808 104.824 392.2 110.443 390.11 113.073C385.903 109.322 382.706 107.578 379.025 105.821C389.487 92.5756 393.168 82.3341 397.085 61.4634L411.298 63.0826C412.28 63.2072 413.124 63.3318 412.958 64.3282C412.695 65.823 410.758 66.1966 409.332 66.4596C408.198 72.2032 407.741 74.0854 407.312 75.8293C409.263 80.3273 410.772 82.4448 411.561 83.5797L416.999 52.7165H394.635L396.863 40.0944H417.857L419.975 28.0952H402.233L404.42 15.7222H422.161L424.625 1.73001L439.419 2.85105C440.65 2.97561 441.453 3.34929 441.301 4.22121C441.079 5.46681 439.571 6.21416 438.367 6.72624L436.775 15.7222H451.016L448.829 28.0952H434.589L432.471 40.0944H451.334L451.154 41.0909C463.166 32.4686 465.99 23.5972 467.595 18.7255H454.351L454.365 18.7393ZM464.647 63.8438L461.713 80.4657H484.7L487.634 63.8438H464.647Z" fill="#66EDFF"/>
<path d="M610.691 35.6103C607.107 38.2399 588.978 51.7339 576.093 64.605C577.284 64.2314 577.685 64.1068 579.18 64.1068C585.172 64.1068 588.382 68.6048 587.608 72.9782C587.123 75.7324 583.151 87.5932 582.722 90.0983C581.504 96.9768 584.355 97.8487 591.358 97.8487C593.738 97.8487 606.982 97.8487 620.032 93.2261C619.202 97.2259 617.929 105.848 617.611 110.471C604.699 112.837 592.963 113.474 587.095 113.474C562.988 113.474 564.33 102.983 565.327 97.3504C565.7 95.2329 568.164 86.2231 568.496 84.3547C568.856 82.3617 569.575 78.2374 565.825 78.2374C563.071 78.2374 560.289 80.6179 553.937 86.1124C547.599 91.6068 539.032 99.7309 524.626 113.474L513.388 101.35C541.482 79.483 566.295 55.0001 576.578 44.8692C563.098 48.3707 545.495 51.1111 533.843 51.9968L533.815 35.1259C562.78 35.9978 590.403 29.5068 602.651 23.874L610.705 35.6241L610.691 35.6103ZM559.832 2.38048C570.502 5.63287 581.823 6.62935 593.572 6.62935C597.198 6.62935 598.969 6.50479 601.488 6.38023C599.315 11.6256 597.779 16.7464 596.755 21.8672C595.357 21.9917 593.835 22.1163 591.593 22.1163C588.216 22.1163 572.62 21.9917 555.473 18.6148L559.832 2.36664V2.38048Z" fill="#66EDFF"/>
<path d="M732.766 15.1132C724.628 20.8568 706.651 34.9736 695.193 45.3536C698.597 44.4817 703.164 43.3606 709.917 43.3606C732.779 43.3606 741.637 58.3493 738.703 74.9712C732.226 111.702 685.381 113.086 675.126 113.086C671.874 113.086 670.005 113.086 668.276 112.962C667.847 106.208 667.265 103.094 665.009 97.4611C667.971 97.7103 672.289 97.9594 677.036 97.9594C688.785 97.9594 718.207 96.2155 721.902 75.2203C724.836 58.5985 709.073 56.6055 702.942 56.6055C684.329 56.6055 671.68 65.9752 657.855 76.3413C652.969 79.9674 649.095 82.8323 645.261 86.0847L635.255 74.0854C654.907 61.837 686.529 36.9804 700.41 23.4864C693.269 24.9812 670.6 28.109 661.882 28.7318L662.089 11.2381C664.788 11.4872 667.653 11.6117 671.638 11.6117C695.123 11.6117 716.892 7.2383 725.708 3.9859L732.738 15.1132H732.766Z" fill="#66EDFF"/>
</g>
<g clip-path="url(#clip1_5_54)">
<path d="M70.4725 12.2937C62.2383 26.4105 59.9963 29.912 50.8625 44.1534C53.9348 49.3987 60.1624 60.1524 57.8236 73.3973C56.1214 83.016 49.105 92.3857 31.9445 92.6348C32.1521 87.8877 31.1418 85.1336 29.0798 81.2584L22.7415 117.242H8.11359L27.6129 6.67471H65.2275L70.4863 12.2937H70.4725ZM29.7579 77.397C30.9619 77.6461 32.7887 77.8952 35.0444 77.8952C41.2859 77.8952 42.6836 74.2692 43.168 71.5289C43.5693 69.2868 45.3684 59.0314 35.0444 47.4196L29.7579 77.4109V77.397ZM39.8881 19.9196L35.3904 45.4128C40.76 39.0464 46.8353 29.4138 51.25 19.9196H39.8743H39.8881ZM127.6 69.5221C128.029 69.8957 128.251 70.7677 128.14 71.3905C127.96 72.3869 126.922 72.6361 126.299 72.6361C125.552 72.6361 124.819 72.5115 124.099 72.3869C118.549 77.6323 112.405 82.0057 105.956 86.0055C109.651 91.2508 116.017 98.3784 125.704 105.118C120.044 108.869 117.691 110.862 112.377 116.246C102.801 109.616 94.0681 99.624 89.349 90.2544C89.0722 91.1263 88.7401 92.2473 88.3664 94.3787C87.8129 97.5065 87.6883 99.624 87.5915 101.631C73.3649 106.502 50.2259 113.007 45.4099 114.128C44.8564 115.872 44.2059 117.381 42.9604 117.381C41.964 117.381 41.6872 116.135 41.4796 115.139L39.4453 101.146C42.8082 100.524 47.5273 99.278 56.9379 96.8975L72.8251 6.79927H134.298L124.819 60.5261H118.328L127.614 69.5221H127.6ZM72.5207 92.7594C77.1429 91.3892 81.5853 90.2544 88.3249 88.1368C84.879 80.7601 82.5817 70.394 82.5679 60.5261H78.1947L72.5069 92.7594H72.5207ZM81.9451 39.2817L80.409 48.0286H111.893L113.443 39.2817H81.9589H81.9451ZM115.394 28.1544L116.889 19.6566H85.4049L83.9103 28.1544H115.394ZM96.4485 60.5122C96.8775 67.2661 98.7319 72.3869 99.9498 75.3764C105.873 70.8784 111.45 66.1313 116.321 60.5122H96.4485Z" fill="#FC5FFF"/>
<path d="M218.136 117.381H202.636L211.008 69.8958L216.765 70.5185C212.683 66.7679 208.337 61.6471 204.463 54.5195H200.712C196.45 58.893 189.765 64.8857 182.887 69.8819L190.236 70.7538C191.219 70.8784 192.685 71.003 192.45 72.3731C192.187 73.8678 190.845 74.3661 188.838 75.1273C186.748 84.8706 181.434 108.62 154.49 118.986C153.12 113.99 148.525 109.616 145.66 107.361C158.226 104.108 165.727 95.6104 167.568 92.9947C171.429 87.3756 172.937 79.5007 173.518 76.2483C167.208 80.1235 158.627 84.8706 147.307 88.8704C145.951 84.4969 142.228 79.3761 139.101 76.622C152.58 73.8678 168.965 66.0067 182.112 54.5057H156.123L164.606 6.39792H258.822L250.339 54.5057H222.356C232.03 66.2558 249.965 74.3661 258.546 75.9992C252.719 81.3691 251.363 82.7531 246.755 88.9949C237.704 85.7425 228.667 79.6253 225.207 77.2448L218.136 117.353V117.381ZM198.719 35.4065H175.359L174.017 43.0323H197.377L198.719 35.4065ZM201.805 17.9128H178.445L177.116 25.4141H200.477L201.805 17.9128ZM213.25 43.0323H236.735L238.078 35.4065H214.593L213.25 43.0323ZM216.35 25.4141H239.835L241.164 17.9128H217.679L216.35 25.4141Z" fill="#FC5FFF"/>
<path d="M343.365 5.18C344.196 5.42911 345.773 5.67823 345.51 7.17295C345.317 8.29399 343.808 9.04135 342.161 9.16591C340.252 12.1692 339.075 13.913 337.041 16.9163C355.225 14.4113 361.993 12.1692 366.38 10.6745L363.681 26.6735C351.434 28.8048 338.563 30.9224 326.246 32.0434C324.267 34.7976 320.572 39.4201 317.791 43.1707C323.548 40.292 329.042 40.292 330.163 40.292C332.156 40.292 343.49 40.5411 347.005 51.7931C356.582 47.7933 369.936 42.1743 375.68 39.4201L378.932 56.4156C367.335 59.7926 357.301 62.9066 347.642 66.6572C347.157 71.5289 346.507 75.9023 345.939 79.1547C344.971 84.6492 344.057 88.3998 343.379 91.5276C342.507 91.5276 332.446 91.154 326.634 91.5276C328.378 85.1613 328.585 84.0264 330.301 74.283C315.383 81.6597 309.294 87.1542 308.339 92.5241C307.342 98.1432 313.362 100.15 328.115 100.15C332.612 100.15 347.227 100.15 368.345 94.5309C365.577 101.022 364.166 106.904 363.335 111.651C347.24 115.028 331.754 115.028 328.004 115.028C321.001 115.028 288.272 115.028 292.036 93.659C295.095 76.2898 323.216 62.7958 331.547 58.7961C330.952 55.7928 329.111 52.0422 322.496 52.0422C312.753 52.0422 302.208 59.4189 286.902 78.9056L273.575 70.1587C279.913 64.6642 295.441 48.9143 307.536 33.4274C301.364 33.6765 297.6 33.8011 287.497 33.6765L290.251 18.0512C293.074 18.3003 300.45 19.0477 310.193 19.0477C314.691 19.0477 316.587 18.9231 317.86 18.7985C318.87 17.3038 324.447 9.05519 327.976 1.80304L343.379 5.18H343.365Z" fill="#FC5FFF"/>
<path d="M462.478 20.5424L464.72 7.79576H521.945C514.887 45.0253 510.791 49.7724 489.755 50.7827C488.524 44.2918 488.095 41.7868 485.728 36.7905C489.575 36.9151 496.135 37.2888 498.778 35.794C502.805 33.552 504.854 23.2965 505.463 20.5562H490.849C486.932 32.1818 477.854 46.0495 467.142 53.6615H511.621L504.411 94.5171H453.303L460.513 53.6615H466.879C464.291 49.9108 462.824 48.2915 458.742 45.9111L457.22 54.5334H438.855L437.111 64.4013H453.608L451.227 77.8953H434.731L431.451 96.51C438.703 100.759 445.373 101.88 464.236 101.88C479.985 101.88 487.07 101.382 507.663 99.3749C504.328 104.122 501.837 109.741 500.633 115.125H455.905C437.042 115.125 418.636 109.63 410.042 94.6278C404.922 106.627 400.313 112.246 398.224 114.876C394.016 111.125 390.82 109.381 387.138 107.624C397.601 94.3787 401.282 84.1371 405.198 63.2664L419.411 64.8857C420.394 65.0102 421.238 65.1348 421.072 66.1313C420.809 67.626 418.871 67.9997 417.446 68.2626C416.311 74.0062 415.855 75.8885 415.426 77.6323C417.377 82.1303 418.885 84.2478 419.674 85.3827L425.113 54.5195H402.749L404.977 41.8975H425.971L428.088 29.8982H410.347L412.533 17.5253H430.275L432.738 3.53305L447.532 4.65409C448.764 4.77865 449.567 5.15233 449.414 6.02425C449.193 7.26985 447.684 8.0172 446.48 8.52928L444.889 17.5253H459.129L456.943 29.8982H442.702L440.585 41.8975H459.448L459.268 42.894C471.28 34.2716 474.103 25.4002 475.709 20.5285H462.465L462.478 20.5424ZM472.761 65.6469L469.827 82.2687H492.814L495.748 65.6469H472.761Z" fill="#FC5FFF"/>
<path d="M618.805 37.4133C615.22 40.0429 597.091 53.5369 584.207 66.4081C585.397 66.0344 585.798 65.9098 587.293 65.9098C593.285 65.9098 596.496 70.4078 595.721 74.7813C595.237 77.5354 591.265 89.3963 590.836 91.9013C589.618 98.7798 592.469 99.6517 599.471 99.6517C601.852 99.6517 615.096 99.6517 628.146 95.0292C627.316 99.0289 626.043 107.651 625.724 112.274C612.812 114.64 601.077 115.277 595.209 115.277C571.101 115.277 572.444 104.786 573.44 99.1535C573.814 97.0359 576.277 88.0261 576.609 86.1577C576.969 84.1648 577.689 80.0405 573.938 80.0405C571.184 80.0405 568.403 82.4209 562.051 87.9154C555.712 93.4099 547.146 101.534 532.739 115.277L521.502 103.153C549.595 81.2861 574.409 56.8031 584.691 46.6723C571.212 50.1738 553.609 52.9141 541.956 53.7999L541.929 36.9289C570.894 37.8008 598.517 31.3099 610.764 25.677L618.819 37.4272L618.805 37.4133ZM567.946 4.18352C578.616 7.43591 589.936 8.43239 601.686 8.43239C605.312 8.43239 607.083 8.30783 609.602 8.18327C607.429 13.4286 605.893 18.5494 604.869 23.6702C603.471 23.7948 601.949 23.9193 599.707 23.9193C596.33 23.9193 580.733 23.7948 563.587 20.4178L567.946 4.16968V4.18352Z" fill="#FC5FFF"/>
<path d="M740.879 16.9163C732.742 22.6599 714.765 36.7767 703.306 47.1566C706.711 46.2847 711.277 45.1637 718.031 45.1637C740.893 45.1637 749.75 60.1524 746.816 76.7742C740.34 113.506 693.494 114.89 683.239 114.89C679.987 114.89 678.119 114.89 676.389 114.765C675.96 108.011 675.379 104.897 673.123 99.2642C676.085 99.5133 680.402 99.7624 685.149 99.7624C696.899 99.7624 726.321 98.0186 730.016 77.0233C732.949 60.4015 717.187 58.4086 711.056 58.4086C692.442 58.4086 679.793 67.7782 665.968 78.1444C661.083 81.7704 657.208 84.6353 653.375 87.8877L643.369 75.8884C663.021 63.6401 694.643 38.7835 708.523 25.2895C701.382 26.7842 678.714 29.912 669.995 30.5348L670.203 13.0411C672.902 13.2902 675.766 13.4148 679.752 13.4148C703.237 13.4148 725.006 9.04134 733.821 5.78894L740.851 16.9163H740.879Z" fill="#FC5FFF"/>
</g>
<g clip-path="url(#clip2_5_54)">
<path d="M66.8664 10.4907C58.6322 24.6075 56.3902 28.109 47.2564 42.3503C50.3287 47.5957 56.5563 58.3494 54.2175 71.5942C52.5153 81.213 45.4989 90.5827 28.3384 90.8318C28.546 86.0847 27.5357 83.3305 25.4737 79.4553L19.1354 115.439H4.50751L24.0068 4.87167H61.6214L66.8803 10.4907H66.8664ZM26.1518 75.594C27.3558 75.8431 29.1826 76.0922 31.4384 76.0922C37.6798 76.0922 39.0775 72.4661 39.5619 69.7258C39.9632 67.4837 41.7623 57.2283 31.4384 45.6166L26.1518 75.6078V75.594ZM36.282 18.1165L31.7843 43.6098C37.1539 37.2434 43.2293 27.6108 47.6439 18.1165H36.2682H36.282ZM123.994 67.719C124.423 68.0927 124.645 68.9646 124.534 69.5874C124.354 70.5839 123.316 70.833 122.693 70.833C121.946 70.833 121.213 70.7085 120.493 70.5839C114.943 75.8293 108.799 80.2027 102.35 84.2024C106.045 89.4478 112.411 96.5754 122.098 103.315C116.438 107.066 114.085 109.059 108.771 114.443C99.1945 107.813 90.4621 97.821 85.7429 88.4513C85.4662 89.3232 85.134 90.4443 84.7604 92.5756C84.2068 95.7035 84.0822 97.821 83.9854 99.8278C69.7588 104.699 46.6198 111.204 41.8038 112.325C41.2503 114.069 40.5998 115.578 39.3543 115.578C38.3579 115.578 38.0811 114.332 37.8735 113.336L35.8392 99.3434C39.2021 98.7206 43.9212 97.475 53.3318 95.0945L69.2191 4.99623H130.692L121.213 58.723H114.722L124.008 67.719H123.994ZM68.9146 90.9564C73.5369 89.5862 77.9792 88.4513 84.7188 86.3338C81.2729 78.9571 78.9756 68.5909 78.9618 58.723H74.5886L68.9008 90.9564H68.9146ZM78.339 37.4787L76.8029 46.2255H108.287L109.837 37.4787H78.3529H78.339ZM111.788 26.3513L113.283 17.8536H81.7988L80.3042 26.3513H111.788ZM92.8424 58.7092C93.2714 65.4631 95.1258 70.5839 96.3437 73.5733C102.267 69.0753 107.844 64.3282 112.715 58.7092H92.8424Z" fill="white"/>
<path d="M214.529 115.578H199.03L207.402 68.0927L213.159 68.7155C209.077 64.9649 204.731 59.8441 200.856 52.7165H197.106C192.844 57.0899 186.159 63.0826 179.281 68.0789L186.63 68.9508C187.612 69.0753 189.079 69.1999 188.844 70.5701C188.581 72.0648 187.239 72.563 185.232 73.3242C183.142 83.0676 177.828 106.817 150.884 117.183C149.513 112.187 144.919 107.813 142.054 105.558C154.62 102.305 162.121 93.8074 163.961 91.1916C167.823 85.5726 169.331 77.6977 169.912 74.4453C163.602 78.3205 155.021 83.0676 143.701 87.0673C142.345 82.6939 138.622 77.5731 135.494 74.8189C148.974 72.0648 165.359 64.2037 178.506 52.7027H152.517L161 4.59488H255.216L246.733 52.7027H218.75C228.424 64.4528 246.359 72.563 254.94 74.1961C249.113 79.5661 247.757 80.9501 243.149 87.1919C234.098 83.9395 225.061 77.8222 221.601 75.4417L214.529 115.55V115.578ZM195.113 33.6035H171.753L170.41 41.2293H193.771L195.113 33.6035ZM198.199 16.1097H174.839L173.51 23.611H196.871L198.199 16.1097ZM209.644 41.2293H233.129L234.472 33.6035H210.987L209.644 41.2293ZM212.744 23.611H236.229L237.558 16.1097H214.073L212.744 23.611Z" fill="white"/>
<path d="M339.759 3.37696C340.59 3.62608 342.167 3.8752 341.904 5.36991C341.711 6.49095 340.202 7.23831 338.555 7.36287C336.646 10.3661 335.469 12.11 333.435 15.1133C351.619 12.6082 358.387 10.3661 362.774 8.87143L360.075 24.8704C347.828 27.0018 334.957 29.1193 322.64 30.2404C320.661 32.9945 316.966 37.6171 314.185 41.3677C319.942 38.489 325.436 38.489 326.557 38.489C328.55 38.489 339.884 38.7381 343.399 49.99C352.976 45.9903 366.33 40.3712 372.074 37.6171L375.326 54.6126C363.729 57.9895 353.695 61.1035 344.036 64.8542C343.551 69.7258 342.901 74.0993 342.333 77.3517C341.365 82.8461 340.451 86.5968 339.773 89.7246C338.901 89.7246 328.84 89.3509 323.028 89.7246C324.772 83.3582 324.979 82.2233 326.695 72.48C311.777 79.8567 305.688 85.3512 304.733 90.7211C303.736 96.3401 309.756 98.3469 324.509 98.3469C329.006 98.3469 343.62 98.3469 364.739 92.7279C361.971 99.2188 360.559 105.101 359.729 109.848C343.634 113.225 328.148 113.225 324.398 113.225C317.395 113.225 284.666 113.225 288.43 91.856C291.489 74.4868 319.61 60.9928 327.941 56.993C327.346 53.9898 325.505 50.2391 318.89 50.2391C309.147 50.2391 298.602 57.6158 283.296 77.1025L269.969 68.3557C276.307 62.8612 291.835 47.1113 303.93 31.6244C297.758 31.8735 293.993 31.998 283.891 31.8735L286.645 16.2481C289.468 16.4973 296.844 17.2446 306.587 17.2446C311.085 17.2446 312.981 17.1201 314.254 16.9955C315.264 15.5008 320.841 7.25215 324.37 0L339.773 3.37696H339.759Z" fill="white"/>
<path d="M458.872 18.7393L461.114 5.99272H518.339C511.281 43.2223 507.185 47.9694 486.149 48.9797C484.917 42.4888 484.488 39.9837 482.122 34.9875C485.969 35.112 492.529 35.4857 495.172 33.991C499.199 31.7489 501.248 21.4935 501.857 18.7532H487.242C483.326 30.3788 474.248 44.2464 463.536 51.8584H508.015L500.805 92.714H449.697L456.907 51.8584H463.273C460.685 48.1078 459.218 46.4885 455.136 44.108L453.613 52.7303H435.249L433.505 62.5982H450.001L447.621 76.0922H431.125L427.845 94.707C435.097 98.9559 441.767 100.077 460.63 100.077C476.379 100.077 483.464 99.5787 504.057 97.5719C500.722 102.319 498.231 107.938 497.027 113.322H452.299C433.436 113.322 415.03 107.827 406.436 92.8248C401.316 104.824 396.707 110.443 394.617 113.073C390.41 109.322 387.214 107.578 383.532 105.821C393.995 92.5756 397.676 82.3341 401.592 61.4634L415.805 63.0826C416.788 63.2072 417.632 63.3318 417.466 64.3282C417.203 65.823 415.265 66.1966 413.84 66.4596C412.705 72.2032 412.248 74.0854 411.819 75.8293C413.771 80.3273 415.279 82.4448 416.068 83.5797L421.507 52.7165H399.143L401.371 40.0944H422.365L424.482 28.0952H406.74L408.927 15.7222H426.669L429.132 1.73001L443.926 2.85105C445.158 2.97561 445.96 3.34929 445.808 4.22121C445.587 5.46681 444.078 6.21416 442.874 6.72624L441.283 15.7222H455.523L453.337 28.0952H439.096L436.979 40.0944H455.842L455.662 41.0909C467.674 32.4686 470.497 23.5972 472.102 18.7255H458.858L458.872 18.7393ZM469.155 63.8438L466.221 80.4657H489.208L492.141 63.8438H469.155Z" fill="white"/>
<path d="M615.199 35.6103C611.614 38.2399 593.485 51.7339 580.601 64.605C581.791 64.2314 582.192 64.1068 583.687 64.1068C589.679 64.1068 592.89 68.6048 592.115 72.9782C591.631 75.7324 587.659 87.5932 587.23 90.0983C586.012 96.9768 588.863 97.8487 595.865 97.8487C598.246 97.8487 611.49 97.8487 624.54 93.2261C623.71 97.2259 622.436 105.848 622.118 110.471C609.206 112.837 597.471 113.474 591.603 113.474C567.495 113.474 568.838 102.983 569.834 97.3504C570.208 95.2329 572.671 86.2231 573.003 84.3547C573.363 82.3617 574.083 78.2374 570.332 78.2374C567.578 78.2374 564.797 80.6179 558.444 86.1124C552.106 91.6068 543.54 99.7309 529.133 113.474L517.896 101.35C545.989 79.483 570.803 55.0001 581.085 44.8692C567.606 48.3707 550.003 51.1111 538.35 51.9968L538.322 35.1259C567.288 35.9978 594.911 29.5068 607.158 23.874L615.212 35.6241L615.199 35.6103ZM564.34 2.38048C575.01 5.63287 586.33 6.62935 598.08 6.62935C601.705 6.62935 603.477 6.50479 605.996 6.38023C603.823 11.6256 602.287 16.7464 601.263 21.8672C599.865 21.9917 598.343 22.1163 596.101 22.1163C592.724 22.1163 577.127 21.9917 559.981 18.6148L564.34 2.36664V2.38048Z" fill="white"/>
<path d="M737.273 15.1132C729.136 20.8568 711.159 34.9736 699.7 45.3536C703.104 44.4817 707.671 43.3606 714.425 43.3606C737.287 43.3606 746.144 58.3493 743.21 74.9712C736.733 111.702 689.888 113.086 679.633 113.086C676.381 113.086 674.513 113.086 672.783 112.962C672.354 106.208 671.773 103.094 669.517 97.4611C672.479 97.7103 676.796 97.9594 681.543 97.9594C693.293 97.9594 722.714 96.2155 726.409 75.2203C729.343 58.5985 713.581 56.6055 707.45 56.6055C688.836 56.6055 676.187 65.9752 662.362 76.3413C657.477 79.9674 653.602 82.8323 649.769 86.0847L639.763 74.0854C659.414 61.837 691.037 36.9804 704.917 23.4864C697.776 24.9812 675.108 28.109 666.389 28.7318L666.597 11.2381C669.296 11.4872 672.16 11.6117 676.146 11.6117C699.631 11.6117 721.4 7.2383 730.215 3.9859L737.245 15.1132H737.273Z" fill="white"/>
</g>
<defs>
<clipPath id="clip0_5_54">
<rect width="739.242" height="117.197" fill="white"/>
</clipPath>
<clipPath id="clip1_5_54">
<rect width="739.242" height="117.197" fill="white" transform="translate(8.11359 1.80304)"/>
</clipPath>
<clipPath id="clip2_5_54">
<rect width="739.242" height="117.197" fill="white" transform="translate(4.50751)"/>
</clipPath>
</defs>
</svg>
