<svg width="151" height="107" viewBox="0 0 151 107" fill="none" xmlns="http://www.w3.org/2000/svg">
<path d="M4.512 27C3.698 27 2.94567 26.8027 2.255 26.408C1.589 26.0133 1.05867 25.483 0.664 24.817C0.269333 24.1263 0.0720001 23.374 0.0720001 22.56V4.8C0.0720001 3.986 0.269333 3.246 0.664 2.58C1.05867 1.88933 1.589 1.34667 2.255 0.951998C2.94567 0.557332 3.698 0.359999 4.512 0.359999H22.272C23.086 0.359999 23.826 0.557332 24.492 0.951998C25.1827 1.34667 25.7253 1.88933 26.12 2.58C26.5147 3.246 26.712 3.986 26.712 4.8V5.873H23.715V4.8C23.715 4.40533 23.567 4.07233 23.271 3.801C22.9997 3.505 22.6667 3.357 22.272 3.357H4.512C4.11733 3.357 3.772 3.505 3.476 3.801C3.20467 4.07233 3.069 4.40533 3.069 4.8V22.56C3.069 22.9547 3.20467 23.3 3.476 23.596C3.772 23.8673 4.11733 24.003 4.512 24.003H22.272C22.6667 24.003 22.9997 23.8673 23.271 23.596C23.567 23.3 23.715 22.9547 23.715 22.56V15.974H17.129V12.94H26.712V22.56C26.712 23.374 26.5147 24.1263 26.12 24.817C25.7253 25.483 25.1827 26.0133 24.492 26.408C23.826 26.8027 23.086 27 22.272 27H4.512ZM34.3369 27V10.017C34.3369 9.203 34.5342 8.463 34.9289 7.797C35.3482 7.10633 35.8909 6.56367 36.5569 6.169C37.2476 5.74967 37.9999 5.54 38.8139 5.54H50.8759V8.574H38.8139C38.4192 8.574 38.0739 8.722 37.7779 9.018C37.5066 9.28933 37.3709 9.62233 37.3709 10.017V27H34.3369ZM61.4105 27C60.5965 27 59.8442 26.8027 59.1535 26.408C58.4875 25.9887 57.9448 25.446 57.5255 24.78C57.1308 24.0893 56.9335 23.337 56.9335 22.523V10.017C56.9335 9.203 57.1308 8.463 57.5255 7.797C57.9448 7.10633 58.4875 6.56367 59.1535 6.169C59.8442 5.74967 60.5965 5.54 61.4105 5.54H74.2865C75.1252 5.54 75.8775 5.74967 76.5435 6.169C77.2342 6.56367 77.7768 7.10633 78.1715 7.797C78.5908 8.463 78.8005 9.203 78.8005 10.017V17.787H59.9675V22.523C59.9675 22.9177 60.1032 23.263 60.3745 23.559C60.6705 23.8303 61.0158 23.966 61.4105 23.966H78.8005V27H61.4105ZM59.9675 14.753H75.7295V10.017C75.7295 9.62233 75.5815 9.28933 75.2855 9.018C75.0142 8.722 74.6812 8.574 74.2865 8.574H61.4105C61.0158 8.574 60.6705 8.722 60.3745 9.018C60.1032 9.28933 59.9675 9.62233 59.9675 10.017V14.753ZM90.1867 27C89.3727 27 88.6203 26.8027 87.9297 26.408C87.2637 25.9887 86.721 25.446 86.3017 24.78C85.907 24.0893 85.7097 23.337 85.7097 22.523V10.017C85.7097 9.203 85.907 8.463 86.3017 7.797C86.721 7.10633 87.2637 6.56367 87.9297 6.169C88.6203 5.74967 89.3727 5.54 90.1867 5.54H103.063C103.901 5.54 104.654 5.74967 105.32 6.169C106.01 6.56367 106.553 7.10633 106.948 7.797C107.367 8.463 107.577 9.203 107.577 10.017V17.787H88.7437V22.523C88.7437 22.9177 88.8793 23.263 89.1507 23.559C89.4467 23.8303 89.792 23.966 90.1867 23.966H107.577V27H90.1867ZM88.7437 14.753H104.506V10.017C104.506 9.62233 104.358 9.28933 104.062 9.018C103.79 8.722 103.457 8.574 103.063 8.574H90.1867C89.792 8.574 89.4467 8.722 89.1507 9.018C88.8793 9.28933 88.7437 9.62233 88.7437 10.017V14.753ZM115.139 27V5.54H132.529C133.343 5.54 134.083 5.74967 134.749 6.169C135.439 6.56367 135.982 7.10633 136.377 7.797C136.796 8.463 137.006 9.203 137.006 10.017V27H133.972V10.017C133.972 9.62233 133.824 9.28933 133.528 9.018C133.256 8.722 132.923 8.574 132.529 8.574H119.653C119.258 8.574 118.913 8.722 118.617 9.018C118.321 9.28933 118.173 9.62233 118.173 10.017V27H115.139ZM0.146 67V40.36H24.455V43.357H3.143V52.163H20.274V55.197H3.143V67H0.146ZM34.8763 67C34.0623 67 33.3099 66.8027 32.6193 66.408C31.9533 65.9887 31.4106 65.446 30.9913 64.78C30.5966 64.0893 30.3993 63.337 30.3993 62.523V45.54H33.4333V62.523C33.4333 62.9177 33.5689 63.263 33.8403 63.559C34.1363 63.8303 34.4816 63.966 34.8763 63.966H47.7523C48.147 63.966 48.4923 63.8303 48.7883 63.559C49.0843 63.263 49.2323 62.9177 49.2323 62.523V45.54H52.2663V62.523C52.2663 63.337 52.0566 64.0893 51.6373 64.78C51.2426 65.446 50.6999 65.9887 50.0093 66.408C49.3433 66.8027 48.591 67 47.7523 67H34.8763ZM63.5759 67C62.7619 67 62.0095 66.8027 61.3189 66.408C60.6529 65.9887 60.1102 65.446 59.6909 64.78C59.2962 64.0893 59.0989 63.337 59.0989 62.523V62.227H62.1329V62.523C62.1329 62.9177 62.2685 63.263 62.5399 63.559C62.8359 63.8303 63.1812 63.966 63.5759 63.966H76.4519C76.8465 63.966 77.1795 63.8303 77.4509 63.559C77.7469 63.263 77.8949 62.9177 77.8949 62.523V59.23C77.8949 58.8353 77.7469 58.5023 77.4509 58.231C77.1795 57.935 76.8465 57.787 76.4519 57.787H63.5759C62.7619 57.787 62.0095 57.5897 61.3189 57.195C60.6529 56.7757 60.1102 56.233 59.6909 55.567C59.2962 54.8763 59.0989 54.124 59.0989 53.31V50.017C59.0989 49.203 59.2962 48.463 59.6909 47.797C60.1102 47.1063 60.6529 46.5637 61.3189 46.169C62.0095 45.7497 62.7619 45.54 63.5759 45.54H76.4519C77.2905 45.54 78.0429 45.7497 78.7089 46.169C79.3995 46.5637 79.9422 47.1063 80.3369 47.797C80.7562 48.463 80.9659 49.203 80.9659 50.017V50.313H77.8949V50.017C77.8949 49.6223 77.7469 49.2893 77.4509 49.018C77.1795 48.722 76.8465 48.574 76.4519 48.574H63.5759C63.1812 48.574 62.8359 48.722 62.5399 49.018C62.2685 49.2893 62.1329 49.6223 62.1329 50.017V53.31C62.1329 53.7047 62.2685 54.05 62.5399 54.346C62.8359 54.6173 63.1812 54.753 63.5759 54.753H76.4519C77.2905 54.753 78.0429 54.9627 78.7089 55.382C79.3995 55.7767 79.9422 56.3193 80.3369 57.01C80.7562 57.676 80.9659 58.416 80.9659 59.23V62.523C80.9659 63.337 80.7562 64.0893 80.3369 64.78C79.9422 65.446 79.3995 65.9887 78.7089 66.408C78.0429 66.8027 77.2905 67 76.4519 67H63.5759ZM88.3121 67V45.54H91.3461V67H88.3121ZM88.3121 41.544V38.51H91.3461V41.544H88.3121ZM104.148 67C103.334 67 102.582 66.8027 101.891 66.408C101.225 65.9887 100.683 65.446 100.263 64.78C99.8687 64.0893 99.6714 63.337 99.6714 62.523V50.017C99.6714 49.203 99.8687 48.463 100.263 47.797C100.683 47.1063 101.225 46.5637 101.891 46.169C102.582 45.7497 103.334 45.54 104.148 45.54H117.024C117.863 45.54 118.615 45.7497 119.281 46.169C119.972 46.5637 120.515 47.1063 120.909 47.797C121.329 48.463 121.538 49.203 121.538 50.017V62.523C121.538 63.337 121.329 64.0893 120.909 64.78C120.515 65.446 119.972 65.9887 119.281 66.408C118.615 66.8027 117.863 67 117.024 67H104.148ZM104.148 63.966H117.024C117.419 63.966 117.752 63.8303 118.023 63.559C118.319 63.263 118.467 62.9177 118.467 62.523V50.017C118.467 49.6223 118.319 49.2893 118.023 49.018C117.752 48.722 117.419 48.574 117.024 48.574H104.148C103.754 48.574 103.408 48.722 103.112 49.018C102.841 49.2893 102.705 49.6223 102.705 50.017V62.523C102.705 62.9177 102.841 63.263 103.112 63.559C103.408 63.8303 103.754 63.966 104.148 63.966ZM128.559 67V45.54H145.949C146.763 45.54 147.503 45.7497 148.169 46.169C148.859 46.5637 149.402 47.1063 149.797 47.797C150.216 48.463 150.426 49.203 150.426 50.017V67H147.392V50.017C147.392 49.6223 147.244 49.2893 146.948 49.018C146.676 48.722 146.343 48.574 145.949 48.574H133.073C132.678 48.574 132.333 48.722 132.037 49.018C131.741 49.2893 131.593 49.6223 131.593 50.017V67H128.559ZM0.183 107V80.36H21.236C22.05 80.36 22.79 80.5573 23.456 80.952C24.1467 81.3467 24.6893 81.8893 25.084 82.58C25.4787 83.246 25.676 83.986 25.676 84.8V90.461C25.676 90.8063 25.6267 91.1517 25.528 91.497C25.454 91.8177 25.343 92.126 25.195 92.422C25.7377 93.236 26.1447 93.939 26.416 94.531C26.6873 95.123 26.823 95.7273 26.823 96.344V102.56C26.823 103.374 26.6257 104.126 26.231 104.817C25.8363 105.483 25.2937 106.013 24.603 106.408C23.937 106.803 23.197 107 22.383 107H0.183ZM4.623 104.003H22.383C22.7777 104.003 23.1107 103.867 23.382 103.596C23.678 103.3 23.826 102.955 23.826 102.56V96.344C23.826 95.9493 23.678 95.6163 23.382 95.345C23.1107 95.049 22.7777 94.901 22.383 94.901H4.623C4.22833 94.901 3.883 95.049 3.587 95.345C3.31567 95.6163 3.18 95.9493 3.18 96.344V102.56C3.18 102.955 3.31567 103.3 3.587 103.596C3.883 103.867 4.22833 104.003 4.623 104.003ZM4.623 91.904H21.236C21.6307 91.904 21.9637 91.7683 22.235 91.497C22.5063 91.201 22.642 90.8557 22.642 90.461V84.8C22.642 84.4053 22.5063 84.0723 22.235 83.801C21.9637 83.505 21.6307 83.357 21.236 83.357H4.623C4.22833 83.357 3.883 83.505 3.587 83.801C3.31567 84.0723 3.18 84.4053 3.18 84.8V90.461C3.18 90.8557 3.31567 91.201 3.587 91.497C3.883 91.7683 4.22833 91.904 4.623 91.904ZM38.8862 107C38.0722 107 37.3198 106.803 36.6292 106.408C35.9632 105.989 35.4205 105.446 35.0012 104.78C34.6065 104.089 34.4092 103.337 34.4092 102.523V78.51H37.4432V102.523C37.4432 102.918 37.5788 103.263 37.8502 103.559C38.1462 103.83 38.4915 103.966 38.8862 103.966H42.5122V107H38.8862ZM53.3899 107C52.5759 107 51.8235 106.803 51.1329 106.408C50.4669 105.989 49.9242 105.446 49.5049 104.78C49.1102 104.089 48.9129 103.337 48.9129 102.523V94.753H67.7089V90.017C67.7089 89.6223 67.5609 89.2893 67.2649 89.018C66.9935 88.722 66.6605 88.574 66.2659 88.574H48.9129V85.54H66.2659C67.1045 85.54 67.8569 85.7497 68.5229 86.169C69.2135 86.5637 69.7562 87.1063 70.1509 87.797C70.5702 88.463 70.7799 89.203 70.7799 90.017V107H53.3899ZM53.3899 103.966H67.7089V97.787H51.9469V102.523C51.9469 102.918 52.0825 103.263 52.3539 103.559C52.6499 103.83 52.9952 103.966 53.3899 103.966ZM81.9096 107C81.0956 107 80.3433 106.803 79.6526 106.408C78.9866 105.989 78.444 105.446 78.0246 104.78C77.63 104.089 77.4326 103.337 77.4326 102.523V102.227H80.4666V102.523C80.4666 102.918 80.6023 103.263 80.8736 103.559C81.1696 103.83 81.515 103.966 81.9096 103.966H94.7856C95.1803 103.966 95.5133 103.83 95.7846 103.559C96.0806 103.263 96.2286 102.918 96.2286 102.523V99.23C96.2286 98.8353 96.0806 98.5023 95.7846 98.231C95.5133 97.935 95.1803 97.787 94.7856 97.787H81.9096C81.0956 97.787 80.3433 97.5897 79.6526 97.195C78.9866 96.7757 78.444 96.233 78.0246 95.567C77.63 94.8763 77.4326 94.124 77.4326 93.31V90.017C77.4326 89.203 77.63 88.463 78.0246 87.797C78.444 87.1063 78.9866 86.5637 79.6526 86.169C80.3433 85.7497 81.0956 85.54 81.9096 85.54H94.7856C95.6243 85.54 96.3766 85.7497 97.0426 86.169C97.7333 86.5637 98.276 87.1063 98.6706 87.797C99.09 88.463 99.2996 89.203 99.2996 90.017V90.313H96.2286V90.017C96.2286 89.6223 96.0806 89.2893 95.7846 89.018C95.5133 88.722 95.1803 88.574 94.7856 88.574H81.9096C81.515 88.574 81.1696 88.722 80.8736 89.018C80.6023 89.2893 80.4666 89.6223 80.4666 90.017V93.31C80.4666 93.7047 80.6023 94.05 80.8736 94.346C81.1696 94.6173 81.515 94.753 81.9096 94.753H94.7856C95.6243 94.753 96.3766 94.9627 97.0426 95.382C97.7333 95.7767 98.276 96.3193 98.6706 97.01C99.09 97.676 99.2996 98.416 99.2996 99.23V102.523C99.2996 103.337 99.09 104.089 98.6706 104.78C98.276 105.446 97.7333 105.989 97.0426 106.408C96.3766 106.803 95.6243 107 94.7856 107H81.9096ZM111.16 107C110.321 107 109.557 106.803 108.866 106.408C108.2 105.989 107.67 105.446 107.275 104.78C106.88 104.089 106.683 103.337 106.683 102.523V78.51H109.717V85.54H119.004V88.574H109.717V102.523C109.717 102.918 109.853 103.263 110.124 103.559C110.42 103.83 110.765 103.966 111.16 103.966H119.004V107H111.16Z" fill="url(#paint0_linear_23_88)"/>
<defs>
<linearGradient id="paint0_linear_23_88" x1="-2" y1="53" x2="162" y2="53" gradientUnits="userSpaceOnUse">
<stop stop-color="#03B10F"/>
<stop offset="0.489583" stop-color="#3CFFB9"/>
<stop offset="1" stop-color="#E7F91B"/>
</linearGradient>
</defs>
</svg>
