<svg width="224" height="314" viewBox="0 0 224 314" fill="none" xmlns="http://www.w3.org/2000/svg">
<path d="M168 9.552C168 7.858 168.411 6.29233 169.232 4.855C170.053 3.469 171.157 2.36533 172.543 1.544C173.98 0.722664 175.546 0.311997 177.24 0.311997L214.2 0.311999C215.894 0.311999 217.434 0.722666 218.82 1.544C220.257 2.36533 221.387 3.469 222.208 4.855C223.029 6.29233 223.44 7.858 223.44 9.552L223.44 46.512C223.44 48.206 223.029 49.746 222.208 51.132C221.387 52.5693 220.257 53.6987 218.82 54.52C217.434 55.3413 215.894 55.752 214.2 55.752L211.967 55.752L211.967 49.515L214.2 49.515C215.021 49.515 215.714 49.207 216.279 48.591C216.895 48.0263 217.203 47.3333 217.203 46.512L217.203 9.552C217.203 8.73067 216.895 8.012 216.279 7.396C215.714 6.83133 215.021 6.549 214.2 6.549L177.24 6.549C176.419 6.549 175.7 6.83133 175.084 7.396C174.519 8.012 174.237 8.73066 174.237 9.552L174.237 46.512C174.237 47.3333 174.519 48.0263 175.084 48.591C175.7 49.207 176.419 49.515 177.24 49.515L190.946 49.515L190.946 35.809L197.26 35.809L197.26 55.752L177.24 55.752C175.546 55.752 173.98 55.3413 172.543 54.52C171.157 53.6987 170.053 52.5693 169.232 51.132C168.411 49.746 168 48.206 168 46.512L168 9.552ZM168 71.62L203.343 71.62C205.037 71.62 206.577 72.0307 207.963 72.852C209.4 73.7247 210.53 74.854 211.351 76.24C212.224 77.6773 212.66 79.243 212.66 80.937L212.66 106.039L206.346 106.039L206.346 80.937C206.346 80.1157 206.038 79.397 205.422 78.781C204.857 78.2163 204.164 77.934 203.343 77.934L168 77.934L168 71.62ZM168 127.962C168 126.268 168.411 124.703 169.232 123.265C170.105 121.879 171.234 120.75 172.62 119.877C174.057 119.056 175.623 118.645 177.317 118.645L203.343 118.645C205.037 118.645 206.577 119.056 207.963 119.877C209.4 120.75 210.53 121.879 211.351 123.265C212.224 124.703 212.66 126.268 212.66 127.962L212.66 154.758C212.66 156.504 212.224 158.069 211.351 159.455C210.53 160.893 209.4 162.022 207.963 162.843C206.577 163.716 205.037 164.152 203.343 164.152L187.173 164.152L187.173 124.959L177.317 124.959C176.496 124.959 175.777 125.242 175.161 125.806C174.596 126.422 174.314 127.141 174.314 127.962L174.314 164.152L168 164.152L168 127.962ZM193.487 124.959L193.487 157.761L203.343 157.761C204.164 157.761 204.857 157.453 205.422 156.837C206.038 156.273 206.346 155.58 206.346 154.758L206.346 127.962C206.346 127.141 206.038 126.422 205.422 125.806C204.857 125.242 204.164 124.959 203.343 124.959L193.487 124.959ZM168 187.848C168 186.154 168.411 184.588 169.232 183.151C170.105 181.765 171.234 180.636 172.62 179.763C174.057 178.942 175.623 178.531 177.317 178.531L203.343 178.531C205.037 178.531 206.577 178.942 207.963 179.763C209.4 180.636 210.53 181.765 211.351 183.151C212.224 184.588 212.66 186.154 212.66 187.848L212.66 214.644C212.66 216.389 212.224 217.955 211.351 219.341C210.53 220.778 209.4 221.908 207.963 222.729C206.577 223.602 205.037 224.038 203.343 224.038L187.173 224.038L187.173 184.845L177.317 184.845C176.496 184.845 175.777 185.127 175.161 185.692C174.596 186.308 174.314 187.027 174.314 187.848L174.314 224.038L168 224.038L168 187.848ZM193.487 184.845L193.487 217.647L203.343 217.647C204.164 217.647 204.857 217.339 205.422 216.723C206.038 216.158 206.346 215.465 206.346 214.644L206.346 187.848C206.346 187.027 206.038 186.308 205.422 185.692C204.857 185.127 204.164 184.845 203.343 184.845L193.487 184.845ZM168 239.775L212.66 239.775L212.66 275.965C212.66 277.659 212.224 279.199 211.351 280.585C210.53 282.023 209.4 283.152 207.963 283.973C206.577 284.846 205.037 285.282 203.343 285.282L168 285.282L168 278.968L203.343 278.968C204.164 278.968 204.857 278.66 205.422 278.044C206.038 277.48 206.346 276.787 206.346 275.965L206.346 249.169C206.346 248.348 206.038 247.629 205.422 247.013C204.857 246.397 204.164 246.089 203.343 246.089L168 246.089L168 239.775ZM84 0.465993L139.44 0.465996L139.44 51.055L133.203 51.055L133.203 6.703L114.877 6.703L114.877 42.354L108.563 42.354L108.563 6.703L84 6.70299L84 0.465993ZM84 72.7425C84 71.0485 84.4107 69.4829 85.232 68.0455C86.1047 66.6595 87.234 65.5302 88.62 64.6575C90.0573 63.8362 91.623 63.4255 93.317 63.4255L128.66 63.4255L128.66 69.7395L93.317 69.7395C92.4957 69.7395 91.777 70.0219 91.161 70.5865C90.5963 71.2025 90.314 71.9212 90.314 72.7425L90.314 99.5385C90.314 100.36 90.5963 101.079 91.161 101.695C91.777 102.311 92.4957 102.619 93.317 102.619L128.66 102.619L128.66 108.933L93.317 108.933C91.623 108.933 90.0573 108.496 88.62 107.624C87.234 106.802 86.1047 105.673 85.232 104.236C84.4107 102.85 84 101.284 84 99.5385L84 72.7425ZM84 132.469C84 130.775 84.4107 129.209 85.232 127.772C86.1047 126.386 87.234 125.256 88.62 124.384C90.0573 123.562 91.623 123.152 93.317 123.152L93.933 123.152L93.933 129.466L93.317 129.466C92.4957 129.466 91.777 129.748 91.161 130.313C90.5963 130.929 90.314 131.647 90.314 132.469L90.314 159.265C90.314 160.086 90.5963 160.779 91.161 161.344C91.777 161.96 92.4957 162.268 93.317 162.268L100.17 162.268C100.991 162.268 101.684 161.96 102.249 161.344C102.865 160.779 103.173 160.086 103.173 159.265L103.173 132.469C103.173 130.775 103.584 129.209 104.405 127.772C105.278 126.386 106.407 125.256 107.793 124.384C109.23 123.562 110.796 123.152 112.49 123.152L119.343 123.152C121.037 123.152 122.577 123.562 123.963 124.384C125.4 125.256 126.53 126.386 127.351 127.772C128.224 129.209 128.66 130.775 128.66 132.469L128.66 159.265C128.66 161.01 128.224 162.576 127.351 163.962C126.53 165.399 125.4 166.528 123.963 167.35C122.577 168.222 121.037 168.659 119.343 168.659L118.727 168.659L118.727 162.268L119.343 162.268C120.164 162.268 120.857 161.96 121.422 161.344C122.038 160.779 122.346 160.086 122.346 159.265L122.346 132.469C122.346 131.647 122.038 130.929 121.422 130.313C120.857 129.748 120.164 129.466 119.343 129.466L112.49 129.466C111.669 129.466 110.95 129.748 110.334 130.313C109.769 130.929 109.487 131.647 109.487 132.469L109.487 159.265C109.487 161.01 109.051 162.576 108.178 163.962C107.357 165.399 106.227 166.528 104.79 167.35C103.404 168.222 101.864 168.659 100.17 168.659L93.317 168.659C91.623 168.659 90.0573 168.222 88.62 167.35C87.234 166.528 86.1047 165.399 85.232 163.962C84.4107 162.576 84 161.01 84 159.265L84 132.469ZM84 183.947L128.66 183.947L128.66 190.261L84 190.261L84 183.947ZM136.976 183.947L143.29 183.947L143.29 190.261L136.976 190.261L136.976 183.947ZM84 216.903C84 215.209 84.4107 213.644 85.232 212.206C86.1047 210.82 87.234 209.691 88.62 208.818C90.0573 207.997 91.623 207.586 93.317 207.586L119.343 207.586C121.037 207.586 122.577 207.997 123.963 208.818C125.4 209.691 126.53 210.82 127.351 212.206C128.224 213.644 128.66 215.209 128.66 216.903L128.66 243.699C128.66 245.445 128.224 247.01 127.351 248.396C126.53 249.834 125.4 250.963 123.963 251.784C122.577 252.657 121.037 253.093 119.343 253.093L93.317 253.093C91.623 253.093 90.0573 252.657 88.62 251.784C87.234 250.963 86.1047 249.834 85.232 248.396C84.4107 247.01 84 245.445 84 243.699L84 216.903ZM90.314 216.903L90.314 243.699C90.314 244.521 90.5963 245.214 91.161 245.778C91.777 246.394 92.4957 246.702 93.317 246.702L119.343 246.702C120.164 246.702 120.857 246.394 121.422 245.778C122.038 245.214 122.346 244.521 122.346 243.699L122.346 216.903C122.346 216.082 122.038 215.363 121.422 214.747C120.857 214.183 120.164 213.9 119.343 213.9L93.317 213.9C92.4957 213.9 91.777 214.183 91.161 214.747C90.5963 215.363 90.314 216.082 90.314 216.903ZM84 267.703L128.66 267.703L128.66 303.893C128.66 305.587 128.224 307.127 127.351 308.513C126.53 309.95 125.4 311.08 123.963 311.901C122.577 312.774 121.037 313.21 119.343 313.21L84 313.21L84 306.896L119.343 306.896C120.164 306.896 120.857 306.588 121.422 305.972C122.038 305.407 122.346 304.714 122.346 303.893L122.346 277.097C122.346 276.276 122.038 275.557 121.422 274.941C120.857 274.325 120.164 274.017 119.343 274.017L84 274.017L84 267.703ZM-1.98581e-07 0.54299L55.44 0.542992L55.44 44.356C55.44 46.05 55.0293 47.59 54.208 48.976C53.3867 50.4133 52.2573 51.5427 50.82 52.364C49.434 53.1853 47.894 53.596 46.2 53.596L34.419 53.596C33.7003 53.596 32.9817 53.4933 32.263 53.288C31.5957 53.134 30.954 52.903 30.338 52.595C28.644 53.7243 27.181 54.5713 25.949 55.136C24.717 55.7007 23.4593 55.983 22.176 55.983L9.24 55.983C7.546 55.983 5.98033 55.5723 4.543 54.751C3.157 53.9297 2.05333 52.8003 1.232 51.363C0.410664 49.977 -2.29209e-06 48.437 -2.21805e-06 46.743L-1.98581e-07 0.54299ZM6.237 9.78299L6.237 46.743C6.237 47.5643 6.51933 48.2573 7.084 48.822C7.7 49.438 8.41866 49.746 9.24 49.746L22.176 49.746C22.9973 49.746 23.6903 49.438 24.255 48.822C24.871 48.2573 25.179 47.5643 25.179 46.743L25.179 9.78299C25.179 8.96166 24.871 8.24299 24.255 7.62699C23.6903 7.06232 22.9973 6.77999 22.176 6.77999L9.24 6.77999C8.41867 6.77999 7.7 7.06232 7.084 7.62699C6.51933 8.24299 6.237 8.96166 6.237 9.78299ZM31.416 9.78299L31.416 44.356C31.416 45.1773 31.6983 45.8703 32.263 46.435C32.879 46.9997 33.5977 47.282 34.419 47.282L46.2 47.282C47.0213 47.282 47.7143 46.9997 48.279 46.435C48.895 45.8703 49.203 45.1773 49.203 44.356L49.203 9.78299C49.203 8.96166 48.895 8.24299 48.279 7.62699C47.7143 7.06233 47.0213 6.77999 46.2 6.77999L34.419 6.77999C33.5977 6.77999 32.879 7.06232 32.263 7.62699C31.6983 8.24299 31.416 8.96166 31.416 9.78299ZM-3.71929e-06 81.0874C-3.64524e-06 79.3934 0.410663 77.8277 1.232 76.3904C2.10466 75.0044 3.234 73.8751 4.62 73.0024C6.05733 72.1811 7.623 71.7704 9.317 71.7704L59.29 71.7704L59.29 78.0844L9.317 78.0844C8.49566 78.0844 7.777 78.3667 7.161 78.9314C6.59633 79.5474 6.314 80.2661 6.314 81.0874L6.314 88.6334L-4.04913e-06 88.6334L-3.71929e-06 81.0874ZM-5.03865e-06 111.271C-4.9646e-06 109.577 0.410662 108.011 1.232 106.574C2.10466 105.188 3.234 104.058 4.62 103.186C6.05733 102.364 7.623 101.954 9.317 101.954L25.487 101.954L25.487 141.07L35.343 141.07C36.1643 141.07 36.8573 140.762 37.422 140.146C38.038 139.581 38.346 138.888 38.346 138.067L38.346 101.954L44.66 101.954L44.66 138.067C44.66 139.812 44.2237 141.378 43.351 142.764C42.5297 144.201 41.4003 145.33 39.963 146.152C38.577 147.024 37.037 147.461 35.343 147.461L-6.62056e-06 147.461L-5.03865e-06 111.271ZM6.314 111.271L6.31399 141.07L19.173 141.07L19.173 108.268L9.317 108.268C8.49566 108.268 7.777 108.55 7.161 109.115C6.59633 109.731 6.314 110.449 6.314 111.271ZM-7.633e-06 170.623C-7.55896e-06 168.929 0.410659 167.363 1.23199 165.926C2.10466 164.54 3.23399 163.41 4.61999 162.538C6.05733 161.716 7.62299 161.306 9.31699 161.306L9.93299 161.306L9.93299 167.62L9.31699 167.62C8.49566 167.62 7.77699 167.902 7.16099 168.467C6.59633 169.083 6.31399 169.801 6.31399 170.623L6.31399 197.419C6.31399 198.24 6.59632 198.933 7.16099 199.498C7.77699 200.114 8.49566 200.422 9.31699 200.422L16.17 200.422C16.9913 200.422 17.6843 200.114 18.249 199.498C18.865 198.933 19.173 198.24 19.173 197.419L19.173 170.623C19.173 168.929 19.5837 167.363 20.405 165.926C21.2777 164.54 22.407 163.41 23.793 162.538C25.2303 161.716 26.796 161.306 28.49 161.306L35.343 161.306C37.037 161.306 38.577 161.716 39.963 162.538C41.4003 163.41 42.5297 164.54 43.351 165.926C44.2237 167.363 44.66 168.929 44.66 170.623L44.66 197.419C44.66 199.164 44.2237 200.73 43.351 202.116C42.5297 203.553 41.4003 204.682 39.963 205.504C38.577 206.376 37.037 206.813 35.343 206.813L34.727 206.813L34.727 200.422L35.343 200.422C36.1643 200.422 36.8573 200.114 37.422 199.498C38.038 198.933 38.346 198.24 38.346 197.419L38.346 170.623C38.346 169.801 38.038 169.083 37.422 168.467C36.8573 167.902 36.1643 167.62 35.343 167.62L28.49 167.62C27.6687 167.62 26.95 167.902 26.334 168.467C25.7693 169.083 25.487 169.801 25.487 170.623L25.487 197.419C25.487 199.164 25.0507 200.73 24.178 202.116C23.3567 203.553 22.2273 204.682 20.79 205.504C19.404 206.376 17.864 206.813 16.17 206.813L9.31699 206.813C7.62299 206.813 6.05732 206.376 4.61999 205.504C3.23399 204.682 2.10466 203.553 1.23199 202.116C0.410658 200.73 -8.88059e-06 199.164 -8.80429e-06 197.419L-7.633e-06 170.623ZM-1.02938e-05 231.495C-1.02175e-05 229.75 0.410657 228.158 1.23199 226.721C2.10466 225.335 3.23399 224.231 4.61999 223.41C6.05732 222.589 7.62299 222.178 9.31699 222.178L59.29 222.178L59.29 228.492L44.66 228.492L44.66 247.819L38.346 247.819L38.346 228.492L9.31699 228.492C8.49566 228.492 7.77699 228.774 7.16099 229.339C6.59632 229.955 6.31399 230.674 6.31399 231.495L6.31399 247.819L-1.10074e-05 247.819L-1.02938e-05 231.495Z" fill="url(#paint0_linear_31_1444)"/>
<defs>
<linearGradient id="paint0_linear_31_1444" x1="114" y1="-4.00001" x2="114" y2="178.097" gradientUnits="userSpaceOnUse">
<stop stop-color="#03B10F"/>
<stop offset="0.489583" stop-color="#3CFFB9"/>
<stop offset="1" stop-color="#E7F91B"/>
</linearGradient>
</defs>
</svg>
