<svg width="228" height="338" viewBox="0 0 228 338" fill="none" xmlns="http://www.w3.org/2000/svg">
<path d="M168 0.388997L223.44 0.389L223.44 6.626L198.877 6.626L198.877 50.901L223.44 50.901L223.44 57.215L168 57.215L168 50.901L192.563 50.901L192.563 6.626L168 6.626L168 0.388997ZM168 82.4391C168 80.7451 168.411 79.1794 169.232 77.7421C170.105 76.3561 171.234 75.2268 172.62 74.3541C174.057 73.5328 175.623 73.1221 177.317 73.1221L203.343 73.1221C205.037 73.1221 206.577 73.5328 207.963 74.3541C209.4 75.2268 210.53 76.3561 211.351 77.7421C212.224 79.1794 212.66 80.7451 212.66 82.4391L212.66 109.235C212.66 110.98 212.224 112.546 211.351 113.932C210.53 115.369 209.4 116.499 207.963 117.32C206.577 118.193 205.037 118.629 203.343 118.629L177.317 118.629C175.623 118.629 174.057 118.193 172.62 117.32C171.234 116.499 170.105 115.369 169.232 113.932C168.411 112.546 168 110.98 168 109.235L168 82.4391ZM174.314 82.4391L174.314 109.235C174.314 110.056 174.596 110.749 175.161 111.314C175.777 111.93 176.496 112.238 177.317 112.238L203.343 112.238C204.164 112.238 204.857 111.93 205.422 111.314C206.038 110.749 206.346 110.056 206.346 109.235L206.346 82.4391C206.346 81.6178 206.038 80.8991 205.422 80.2831C204.857 79.7184 204.164 79.4361 203.343 79.4361L177.317 79.4361C176.496 79.4361 175.777 79.7184 175.161 80.2831C174.596 80.8991 174.314 81.6178 174.314 82.4391ZM168 141.802C168 140.057 168.411 138.465 169.232 137.028C170.105 135.642 171.234 134.538 172.62 133.717C174.057 132.896 175.623 132.485 177.317 132.485L227.29 132.485L227.29 138.799L212.66 138.799L212.66 158.126L206.346 158.126L206.346 138.799L177.317 138.799C176.496 138.799 175.777 139.081 175.161 139.646C174.596 140.262 174.314 140.981 174.314 141.802L174.314 158.126L168 158.126L168 141.802ZM84 0.542993L139.44 0.542996L139.44 44.356C139.44 46.05 139.029 47.59 138.208 48.976C137.387 50.4133 136.257 51.5427 134.82 52.364C133.434 53.1853 131.894 53.596 130.2 53.596L118.419 53.596C117.7 53.596 116.982 53.4933 116.263 53.288C115.596 53.134 114.954 52.903 114.338 52.595C112.644 53.7243 111.181 54.5713 109.949 55.136C108.717 55.7007 107.459 55.983 106.176 55.983L93.24 55.983C91.546 55.983 89.9803 55.5723 88.543 54.751C87.157 53.9297 86.0533 52.8003 85.232 51.363C84.4107 49.977 84 48.437 84 46.743L84 0.542993ZM90.237 9.78299L90.237 46.743C90.237 47.5643 90.5193 48.2573 91.084 48.822C91.7 49.438 92.4187 49.746 93.24 49.746L106.176 49.746C106.997 49.746 107.69 49.438 108.255 48.822C108.871 48.2573 109.179 47.5643 109.179 46.743L109.179 9.78299C109.179 8.96166 108.871 8.24299 108.255 7.62699C107.69 7.06233 106.997 6.77999 106.176 6.77999L93.24 6.77999C92.4187 6.77999 91.7 7.06233 91.084 7.62699C90.5193 8.24299 90.237 8.96166 90.237 9.78299ZM115.416 9.78299L115.416 44.356C115.416 45.1773 115.698 45.8703 116.263 46.435C116.879 46.9997 117.598 47.282 118.419 47.282L130.2 47.282C131.021 47.282 131.714 46.9997 132.279 46.435C132.895 45.8703 133.203 45.1773 133.203 44.356L133.203 9.783C133.203 8.96166 132.895 8.243 132.279 7.627C131.714 7.06233 131.021 6.78 130.2 6.78L118.419 6.77999C117.598 6.77999 116.879 7.06233 116.263 7.627C115.698 8.24299 115.416 8.96166 115.416 9.78299ZM84 81.0874C84 79.3934 84.4107 77.8277 85.232 76.3904C86.1047 75.0044 87.234 73.8751 88.62 73.0024C90.0573 72.1811 91.623 71.7704 93.317 71.7704L143.29 71.7704L143.29 78.0844L93.317 78.0844C92.4957 78.0844 91.777 78.3667 91.161 78.9314C90.5963 79.5474 90.314 80.2661 90.314 81.0874L90.314 88.6334L84 88.6334L84 81.0874ZM84 111.271C84 109.577 84.4107 108.011 85.232 106.574C86.1047 105.188 87.234 104.058 88.62 103.186C90.0573 102.364 91.623 101.954 93.317 101.954L109.487 101.954L109.487 141.07L119.343 141.07C120.164 141.07 120.857 140.762 121.422 140.146C122.038 139.581 122.346 138.888 122.346 138.067L122.346 101.954L128.66 101.954L128.66 138.067C128.66 139.812 128.224 141.378 127.351 142.764C126.53 144.201 125.4 145.33 123.963 146.152C122.577 147.024 121.037 147.461 119.343 147.461L84 147.461L84 111.271ZM90.314 111.271L90.314 141.07L103.173 141.07L103.173 108.268L93.317 108.268C92.4957 108.268 91.777 108.55 91.161 109.115C90.5963 109.731 90.314 110.449 90.314 111.271ZM84 161.317L92.624 161.317L122.346 199.894L122.346 161.317L128.66 161.317L128.66 206.824L120.036 206.824L90.314 168.247L90.314 206.824L84 206.824L84 161.317ZM84 229.912C84 228.218 84.4107 226.652 85.232 225.215C86.1047 223.829 87.234 222.7 88.62 221.827C90.0573 221.006 91.623 220.595 93.317 220.595L119.343 220.595C121.037 220.595 122.577 221.006 123.963 221.827C125.4 222.7 126.53 223.829 127.351 225.215C128.224 226.652 128.66 228.218 128.66 229.912L128.66 256.708C128.66 258.453 128.224 260.019 127.351 261.405C126.53 262.842 125.4 263.972 123.963 264.793C122.577 265.666 121.037 266.102 119.343 266.102L103.173 266.102L103.173 226.909L93.317 226.909C92.4957 226.909 91.777 227.191 91.161 227.756C90.5963 228.372 90.314 229.091 90.314 229.912L90.314 266.102L84 266.102L84 229.912ZM109.487 226.909L109.487 259.711L119.343 259.711C120.164 259.711 120.857 259.403 121.422 258.787C122.038 258.222 122.346 257.529 122.346 256.708L122.346 229.912C122.346 229.091 122.038 228.372 121.422 227.756C120.857 227.191 120.164 226.909 119.343 226.909L109.487 226.909ZM-2.22141e-07 1.08199L55.44 1.08199L55.44 7.39599L-4.98135e-07 7.39599L-2.22141e-07 1.08199ZM-1.23816e-06 24.3258L44.66 24.3258L44.66 60.5158C44.66 62.2098 44.2237 63.7498 43.351 65.1358C42.5297 66.5731 41.4003 67.7024 39.963 68.5238C38.577 69.3964 37.037 69.8328 35.343 69.8328L-3.22733e-06 69.8328L-2.95134e-06 63.5188L35.343 63.5188C36.1643 63.5188 36.8573 63.2108 37.422 62.5948C38.038 62.0301 38.346 61.3371 38.346 60.5158L38.346 33.7198C38.346 32.8984 38.038 32.1798 37.422 31.5638C36.8573 30.9478 36.1643 30.6398 35.343 30.6398L-1.51415e-06 30.6398L-1.23816e-06 24.3258ZM-3.91492e-06 85.563L49.973 85.563C51.7183 85.563 53.284 85.9737 54.67 86.795C56.1073 87.6164 57.2367 88.72 58.058 90.106C58.8793 91.5434 59.29 93.1347 59.29 94.88L59.29 111.204L52.976 111.204L52.976 94.88C52.976 94.0587 52.668 93.34 52.052 92.724C51.4873 92.1594 50.7943 91.877 49.973 91.877L44.66 91.877L44.66 111.204L38.346 111.204L38.346 91.877L-4.19092e-06 91.877L-3.91492e-06 85.563ZM-6.02266e-06 133.782C-5.94862e-06 132.088 0.410661 130.523 1.23199 129.085C2.10466 127.699 3.23399 126.57 4.61999 125.697C6.05733 124.876 7.62299 124.465 9.31699 124.465L35.343 124.465C37.037 124.465 38.577 124.876 39.963 125.697C41.4003 126.57 42.5297 127.699 43.351 129.085C44.2237 130.523 44.66 132.088 44.66 133.782L44.66 160.578C44.66 162.324 44.2237 163.889 43.351 165.275C42.5297 166.713 41.4003 167.842 39.963 168.663C38.577 169.536 37.037 169.972 35.343 169.972L19.173 169.972L19.173 130.779L9.31699 130.779C8.49566 130.779 7.77699 131.062 7.16099 131.626C6.59633 132.242 6.31399 132.961 6.31399 133.782L6.31399 169.972L-7.60458e-06 169.972L-6.02266e-06 133.782ZM25.487 130.779L25.487 163.581L35.343 163.581C36.1643 163.581 36.8573 163.273 37.422 162.657C38.038 162.093 38.346 161.4 38.346 160.578L38.346 133.782C38.346 132.961 38.038 132.242 37.422 131.626C36.8573 131.062 36.1643 130.779 35.343 130.779L25.487 130.779ZM-8.26932e-06 185.18L35.343 185.18C37.037 185.18 38.577 185.591 39.963 186.412C41.4003 187.285 42.5297 188.414 43.351 189.8C44.2237 191.237 44.66 192.803 44.66 194.497L44.66 219.599L38.346 219.599L38.346 194.497C38.346 193.676 38.038 192.957 37.422 192.341C36.8573 191.776 36.1643 191.494 35.343 191.494L-8.54531e-06 191.494L-8.26932e-06 185.18ZM-1.0335e-05 232.436L44.66 232.436L44.66 268.626C44.66 270.32 44.2237 271.86 43.351 273.246C42.5297 274.684 41.4003 275.813 39.963 276.634C38.577 277.507 37.037 277.943 35.343 277.943L-1.23241e-05 277.943L-1.20481e-05 271.629L35.343 271.629C36.1643 271.629 36.8573 271.321 37.422 270.705C38.038 270.141 38.346 269.448 38.346 268.626L38.346 241.83C38.346 241.009 38.038 240.29 37.422 239.674C36.8573 239.058 36.1643 238.75 35.343 238.75L-1.0611e-05 238.75L-1.0335e-05 232.436ZM-1.33629e-05 301.709C-1.32889e-05 300.015 0.410653 298.449 1.23199 297.012C2.10465 295.626 3.23399 294.496 4.61999 293.624C6.05732 292.802 7.62299 292.392 9.31699 292.392L35.343 292.392C37.037 292.392 38.577 292.802 39.963 293.624C41.4003 294.496 42.5297 295.626 43.351 297.012C44.2237 298.449 44.66 300.015 44.66 301.709L44.66 328.505C44.66 330.25 44.2237 331.816 43.351 333.202C42.5297 334.639 41.4003 335.768 39.963 336.59C38.577 337.462 37.037 337.899 35.343 337.899L9.31699 337.899C7.62299 337.899 6.05732 337.462 4.61999 336.59C3.23399 335.768 2.10465 334.639 1.23199 333.202C0.410652 331.816 -1.46105e-05 330.25 -1.45342e-05 328.505L-1.33629e-05 301.709ZM6.31399 301.709L6.31399 328.505C6.31399 329.326 6.59632 330.019 7.16099 330.584C7.77699 331.2 8.49565 331.508 9.31699 331.508L35.343 331.508C36.1643 331.508 36.8573 331.2 37.422 330.584C38.038 330.019 38.346 329.326 38.346 328.505L38.346 301.709C38.346 300.887 38.038 300.169 37.422 299.553C36.8573 298.988 36.1643 298.706 35.343 298.706L9.31699 298.706C8.49565 298.706 7.77699 298.988 7.16099 299.553C6.59632 300.169 6.31399 300.887 6.31399 301.709Z" fill="url(#paint0_linear_31_1251)"/>
<defs>
<linearGradient id="paint0_linear_31_1251" x1="101.4" y1="-4" x2="101.4" y2="200.021" gradientUnits="userSpaceOnUse">
<stop stop-color="#B00202"/>
<stop offset="0.494792" stop-color="#FF8A00"/>
<stop offset="1" stop-color="#E83A54"/>
</linearGradient>
</defs>
</svg>
