<svg width="163" height="109" viewBox="0 0 163 109" fill="none" xmlns="http://www.w3.org/2000/svg">
<path d="M0.109 29V2.36H3.106V14.163H24.381V2.36H27.415V29H24.381V17.197H3.106V29H0.109ZM39.5357 29C38.7217 29 37.9693 28.8027 37.2787 28.408C36.6127 27.9887 36.07 27.446 35.6507 26.78C35.256 26.0893 35.0587 25.337 35.0587 24.523V12.017C35.0587 11.203 35.256 10.463 35.6507 9.797C36.07 9.10633 36.6127 8.56367 37.2787 8.169C37.9693 7.74967 38.7217 7.54 39.5357 7.54H52.4117C53.2503 7.54 54.0027 7.74967 54.6687 8.169C55.3593 8.56367 55.902 9.10633 56.2967 9.797C56.716 10.463 56.9257 11.203 56.9257 12.017V24.523C56.9257 25.337 56.716 26.0893 56.2967 26.78C55.902 27.446 55.3593 27.9887 54.6687 28.408C54.0027 28.8027 53.2503 29 52.4117 29H39.5357ZM39.5357 25.966H52.4117C52.8063 25.966 53.1393 25.8303 53.4107 25.559C53.7067 25.263 53.8547 24.9177 53.8547 24.523V12.017C53.8547 11.6223 53.7067 11.2893 53.4107 11.018C53.1393 10.722 52.8063 10.574 52.4117 10.574H39.5357C39.141 10.574 38.7957 10.722 38.4997 11.018C38.2283 11.2893 38.0927 11.6223 38.0927 12.017V24.523C38.0927 24.9177 38.2283 25.263 38.4997 25.559C38.7957 25.8303 39.141 25.966 39.5357 25.966ZM68.0607 29C67.222 29 66.4573 28.8027 65.7667 28.408C65.1007 27.9887 64.5703 27.446 64.1757 26.78C63.781 26.0893 63.5837 25.337 63.5837 24.523V0.509999H66.6177V7.54H75.9047V10.574H66.6177V24.523C66.6177 24.9177 66.7533 25.263 67.0247 25.559C67.3207 25.8303 67.666 25.966 68.0607 25.966H75.9047V29H68.0607ZM0.183 69V42.36H21.236C22.05 42.36 22.79 42.5573 23.456 42.952C24.1467 43.3467 24.6893 43.8893 25.084 44.58C25.4787 45.246 25.676 45.986 25.676 46.8V52.461C25.676 52.8063 25.6267 53.1517 25.528 53.497C25.454 53.8177 25.343 54.126 25.195 54.422C25.7377 55.236 26.1447 55.939 26.416 56.531C26.6873 57.123 26.823 57.7273 26.823 58.344V64.56C26.823 65.374 26.6257 66.1263 26.231 66.817C25.8363 67.483 25.2937 68.0133 24.603 68.408C23.937 68.8027 23.197 69 22.383 69H0.183ZM4.623 66.003H22.383C22.7777 66.003 23.1107 65.8673 23.382 65.596C23.678 65.3 23.826 64.9547 23.826 64.56V58.344C23.826 57.9493 23.678 57.6163 23.382 57.345C23.1107 57.049 22.7777 56.901 22.383 56.901H4.623C4.22833 56.901 3.883 57.049 3.587 57.345C3.31567 57.6163 3.18 57.9493 3.18 58.344V64.56C3.18 64.9547 3.31567 65.3 3.587 65.596C3.883 65.8673 4.22833 66.003 4.623 66.003ZM4.623 53.904H21.236C21.6307 53.904 21.9637 53.7683 22.235 53.497C22.5063 53.201 22.642 52.8557 22.642 52.461V46.8C22.642 46.4053 22.5063 46.0723 22.235 45.801C21.9637 45.505 21.6307 45.357 21.236 45.357H4.623C4.22833 45.357 3.883 45.505 3.587 45.801C3.31567 46.0723 3.18 46.4053 3.18 46.8V52.461C3.18 52.8557 3.31567 53.201 3.587 53.497C3.883 53.7683 4.22833 53.904 4.623 53.904ZM38.8862 69C38.0722 69 37.3198 68.8027 36.6292 68.408C35.9632 67.9887 35.4205 67.446 35.0012 66.78C34.6065 66.0893 34.4092 65.337 34.4092 64.523V40.51H37.4432V64.523C37.4432 64.9177 37.5788 65.263 37.8502 65.559C38.1462 65.8303 38.4915 65.966 38.8862 65.966H42.5122V69H38.8862ZM53.3899 69C52.5759 69 51.8235 68.8027 51.1329 68.408C50.4669 67.9887 49.9242 67.446 49.5049 66.78C49.1102 66.0893 48.9129 65.337 48.9129 64.523V56.753H67.7089V52.017C67.7089 51.6223 67.5609 51.2893 67.2649 51.018C66.9935 50.722 66.6605 50.574 66.2659 50.574H48.9129V47.54H66.2659C67.1045 47.54 67.8569 47.7497 68.5229 48.169C69.2135 48.5637 69.7562 49.1063 70.1509 49.797C70.5702 50.463 70.7799 51.203 70.7799 52.017V69H53.3899ZM53.3899 65.966H67.7089V59.787H51.9469V64.523C51.9469 64.9177 52.0825 65.263 52.3539 65.559C52.6499 65.8303 52.9952 65.966 53.3899 65.966ZM77.4378 69V64.856L95.9748 50.574H77.4378V47.54H99.3048V51.684L80.7678 65.966H99.3048V69H77.4378ZM110.399 69C109.585 69 108.833 68.8027 108.142 68.408C107.476 67.9887 106.934 67.446 106.514 66.78C106.12 66.0893 105.922 65.337 105.922 64.523V52.017C105.922 51.203 106.12 50.463 106.514 49.797C106.934 49.1063 107.476 48.5637 108.142 48.169C108.833 47.7497 109.585 47.54 110.399 47.54H123.275C124.114 47.54 124.866 47.7497 125.532 48.169C126.223 48.5637 126.766 49.1063 127.16 49.797C127.58 50.463 127.789 51.203 127.789 52.017V59.787H108.956V64.523C108.956 64.9177 109.092 65.263 109.363 65.559C109.659 65.8303 110.005 65.966 110.399 65.966H127.789V69H110.399ZM108.956 56.753H124.718V52.017C124.718 51.6223 124.57 51.2893 124.274 51.018C124.003 50.722 123.67 50.574 123.275 50.574H110.399C110.005 50.574 109.659 50.722 109.363 51.018C109.092 51.2893 108.956 51.6223 108.956 52.017V56.753ZM0.442 109V82.36H3.476V109H0.442ZM11.6111 109V87.54H29.0011C29.8151 87.54 30.5551 87.7497 31.2211 88.169C31.9118 88.5637 32.4544 89.1063 32.8491 89.797C33.2684 90.463 33.4781 91.203 33.4781 92.017V109H30.4441V92.017C30.4441 91.6223 30.2961 91.2893 30.0001 91.018C29.7288 90.722 29.3958 90.574 29.0011 90.574H16.1251C15.7304 90.574 15.3851 90.722 15.0891 91.018C14.7931 91.2893 14.6451 91.6223 14.6451 92.017V109H11.6111ZM41.0368 109V84.987C41.0368 84.1483 41.2341 83.396 41.6288 82.73C42.0234 82.0393 42.5538 81.4967 43.2198 81.102C43.9104 80.7073 44.6751 80.51 45.5138 80.51H53.3578V83.544H45.5138C45.1191 83.544 44.7738 83.692 44.4778 83.988C44.2064 84.2593 44.0708 84.5923 44.0708 84.987V87.54H53.3578V90.574H44.0708V109H41.0368ZM64.2072 109C63.3932 109 62.6408 108.803 61.9502 108.408C61.2842 107.989 60.7415 107.446 60.3222 106.78C59.9275 106.089 59.7302 105.337 59.7302 104.523V92.017C59.7302 91.203 59.9275 90.463 60.3222 89.797C60.7415 89.1063 61.2842 88.5637 61.9502 88.169C62.6408 87.7497 63.3932 87.54 64.2072 87.54H77.0832C77.9218 87.54 78.6742 87.7497 79.3402 88.169C80.0308 88.5637 80.5735 89.1063 80.9682 89.797C81.3875 90.463 81.5972 91.203 81.5972 92.017V99.787H62.7642V104.523C62.7642 104.918 62.8998 105.263 63.1712 105.559C63.4672 105.83 63.8125 105.966 64.2072 105.966H81.5972V109H64.2072ZM62.7642 96.753H78.5262V92.017C78.5262 91.6223 78.3782 91.2893 78.0822 91.018C77.8108 90.722 77.4778 90.574 77.0832 90.574H64.2072C63.8125 90.574 63.4672 90.722 63.1712 91.018C62.8998 91.2893 62.7642 91.6223 62.7642 92.017V96.753ZM88.9047 109V92.017C88.9047 91.203 89.102 90.463 89.4967 89.797C89.916 89.1063 90.4587 88.5637 91.1247 88.169C91.8153 87.7497 92.5677 87.54 93.3817 87.54H105.444V90.574H93.3817C92.987 90.574 92.6417 90.722 92.3457 91.018C92.0743 91.2893 91.9387 91.6223 91.9387 92.017V109H88.9047ZM111.612 109V87.54H129.002C129.816 87.54 130.556 87.7497 131.222 88.169C131.913 88.5637 132.456 89.1063 132.85 89.797C133.27 90.463 133.479 91.203 133.479 92.017V109H130.445V92.017C130.445 91.6223 130.297 91.2893 130.001 91.018C129.73 90.722 129.397 90.574 129.002 90.574H116.126C115.732 90.574 115.386 90.722 115.09 91.018C114.794 91.2893 114.646 91.6223 114.646 92.017V109H111.612ZM144.899 109C144.085 109 143.333 108.803 142.642 108.408C141.976 107.989 141.433 107.446 141.014 106.78C140.619 106.089 140.422 105.337 140.422 104.523V92.017C140.422 91.203 140.619 90.463 141.014 89.797C141.433 89.1063 141.976 88.5637 142.642 88.169C143.333 87.7497 144.085 87.54 144.899 87.54H157.775C158.614 87.54 159.366 87.7497 160.032 88.169C160.723 88.5637 161.265 89.1063 161.66 89.797C162.079 90.463 162.289 91.203 162.289 92.017V104.523C162.289 105.337 162.079 106.089 161.66 106.78C161.265 107.446 160.723 107.989 160.032 108.408C159.366 108.803 158.614 109 157.775 109H144.899ZM144.899 105.966H157.775C158.17 105.966 158.503 105.83 158.774 105.559C159.07 105.263 159.218 104.918 159.218 104.523V92.017C159.218 91.6223 159.07 91.2893 158.774 91.018C158.503 90.722 158.17 90.574 157.775 90.574H144.899C144.504 90.574 144.159 90.722 143.863 91.018C143.592 91.2893 143.456 91.6223 143.456 92.017V104.523C143.456 104.918 143.592 105.263 143.863 105.559C144.159 105.83 144.504 105.966 144.899 105.966Z" fill="url(#paint0_linear_23_92)"/>
<defs>
<linearGradient id="paint0_linear_23_92" x1="-2" y1="61" x2="169" y2="61" gradientUnits="userSpaceOnUse">
<stop stop-color="#B00202"/>
<stop offset="0.494792" stop-color="#FF8A00"/>
<stop offset="1" stop-color="#E83A54"/>
</linearGradient>
</defs>
</svg>
