<svg width="48" height="680" viewBox="0 0 48 680" fill="none" xmlns="http://www.w3.org/2000/svg">
<g clip-path="url(#clip0_31_1483)">
<path d="M48 0L48 7.27287L6.07172e-05 7.27286L6.10352e-05 -2.09815e-06L48 0Z" fill="white"/>
<path d="M48 116.983L40.8006 116.983L40.8006 79.8066L27.6025 79.8066L27.6025 109.71L20.403 109.71L20.403 79.8066L0.00542418 79.8066L0.0054245 72.5337L48 72.5337L48 116.983Z" fill="white"/>
<path d="M48 125.204L48 132.477L6.07172e-05 132.477L6.10352e-05 125.204L48 125.204Z" fill="white"/>
<path d="M48 199.281L48 206.554L6.07172e-05 206.554L6.10352e-05 199.281L48 199.281Z" fill="white"/>
<path d="M48 262.787L40.8006 262.787L40.8006 242.182L5.98166e-05 242.182L6.01345e-05 234.909L40.8006 234.909L40.8006 214.303L48 214.303L48 262.793L48 262.787Z" fill="white"/>
<path d="M48 319.898L18.0014 297.538L5.97399e-05 297.538L6.00578e-05 290.265L18.0014 290.265L48 267.905L48 276.456L26.1336 293.899L48 311.277L48 319.898Z" fill="white"/>
<path d="M40.8006 391.619L40.8006 354.443L27.6025 354.443L27.6025 384.346L20.403 384.346L20.403 354.443L7.20488 354.443L7.20488 391.619L0.00542256 391.619L0.0054245 347.17L48 347.17L48 391.619L40.8006 391.619Z" fill="white"/>
<path d="M40.8005 505.445L40.8005 468.269L27.6024 468.269L27.6024 498.172L20.403 498.172L20.403 468.269L7.20485 468.269L7.20485 505.445L0.00539204 505.445L0.00539398 460.996L48 460.996L48 505.445L40.8005 505.445Z" fill="white"/>
<path d="M25.8012 564.105C21.0677 564.105 17.1329 560.2 17.1329 555.348L17.1329 550.431L0.997125 564.099L-0.00533507 564.099L-0.00533469 555.478L17.1276 540.932L17.1276 524.367C17.1276 523.825 17.1919 523.354 17.2616 522.883L-0.00533326 522.883L-0.00533295 515.61L47.9357 515.61L47.9357 555.343C47.9357 560.189 44.0009 564.099 39.2674 564.099L25.8012 564.099L25.8012 564.105ZM24.3324 555.348C24.3324 556.155 24.9971 556.832 25.8012 556.832L39.2674 556.832C40.0661 556.832 40.7362 556.16 40.7362 555.348L40.7362 524.367C40.7362 523.56 40.0715 522.883 39.2674 522.883L25.8012 522.883C25.0025 522.883 24.3324 523.554 24.3324 524.367L24.3324 555.348Z" fill="white"/>
<path d="M36.4691 621.882L36.4691 614.609L39.3371 614.609C40.1358 614.609 40.8059 613.937 40.8059 613.125L40.8059 582.143C40.8059 581.337 40.1412 580.66 39.3371 580.66L8.66833 580.66C7.86958 580.66 7.19949 581.331 7.19949 582.143L7.19949 613.125C7.19949 613.932 7.86422 614.609 8.66833 614.609L19.0681 614.609L19.0681 603.161L26.2676 603.161L26.2676 621.882L8.66833 621.882C3.87047 621.882 2.85685e-05 617.977 2.87806e-05 613.125L3.01348e-05 582.143C3.03467e-05 577.297 3.86512 573.387 8.66833 573.387L39.3317 573.387C44.1296 573.387 48 577.291 48 582.143L48 613.125C48 617.972 44.1349 621.882 39.3317 621.882L36.4637 621.882L36.4691 621.882Z" fill="white"/>
<path d="M48 680L18.0014 657.639L2.92225e-05 657.639L2.95404e-05 650.367L18.0014 650.367L48 628.012L48 636.563L26.1336 654.006L48 671.384L48 680.005L48 680Z" fill="white"/>
<path d="M48 63.777L48 55.1557L29.5913 39.5323L48 23.9089L48 15.2876L6.10352e-05 15.2876L6.06583e-05 23.9089L18.4088 39.5323L5.92925e-05 55.1557L5.89156e-05 63.777L48 63.777ZM9.60113 22.5605L38.399 22.5605L24 34.783L9.60113 22.5605ZM24 44.2816L38.399 56.5042L9.60113 56.5042L24 44.2816Z" fill="white"/>
<path d="M48 188.872L48 180.251L29.5913 164.628L48 149.004L48 140.383L6.10352e-05 140.383L6.06583e-05 149.004L18.4088 164.628L5.92925e-05 180.251L5.89156e-05 188.872L48 188.872ZM9.60113 147.656L38.399 147.656L24 159.879L9.60113 147.656ZM24 169.377L38.399 181.6L9.60113 181.6L24 169.377Z" fill="white"/>
<path d="M48 450.349L48 441.728L29.5913 426.104L48 410.476L48 401.854L3.05176e-05 401.854L3.01407e-05 410.476L18.4088 426.099L2.87749e-05 441.722L2.8398e-05 450.344L48 450.344L48 450.349ZM9.6011 409.133L38.3989 409.133L24 421.355L9.6011 409.133ZM24 430.854L38.3989 443.076L9.6011 443.076L24 430.854Z" fill="white"/>
</g>
<defs>
<clipPath id="clip0_31_1483">
<rect width="680" height="48" fill="white" transform="translate(48) rotate(90)"/>
</clipPath>
</defs>
</svg>
