<svg width="425" height="30" viewBox="0 0 425 30" fill="none" xmlns="http://www.w3.org/2000/svg">
<g clip-path="url(#clip0_2_3)">
<path d="M0 0H4.54554V30H0V0Z" fill="white"/>
<path d="M73.1146 0V4.49966H49.8792V12.7485H68.569V17.2482H49.8792V29.9966H45.3336V0H73.1146Z" fill="white"/>
<path d="M78.2524 0H82.798V30H78.2524V0Z" fill="white"/>
<path d="M124.551 0H129.096V30H124.551V0Z" fill="white"/>
<path d="M164.242 0V4.49966H151.364V30H146.818V4.49966H133.94V0H164.245H164.242Z" fill="white"/>
<path d="M199.936 0L185.961 18.7492V30H181.416V18.7492L167.441 0H172.785L183.687 13.6665L194.548 0H199.936Z" fill="white"/>
<path d="M244.762 4.49966H221.527V12.7485H240.217V17.2482H221.527V25.497H244.762V29.9966H216.981V0H244.762V4.49966Z" fill="white"/>
<path d="M315.904 4.49966H292.668V12.7485H311.358V17.2482H292.668V25.497H315.904V29.9966H288.123V0H315.904V4.49966Z" fill="white"/>
<path d="M352.566 13.8743C352.566 16.8327 350.125 19.292 347.093 19.292H344.02L352.562 29.3768V30.0034H347.174L338.083 19.2953H327.729C327.391 19.2953 327.096 19.2551 326.802 19.2115V30.0034H322.256V0.0402222H347.089C350.119 0.0402222 352.562 2.49946 352.562 5.45791V13.8743H352.566ZM347.093 14.7923C347.597 14.7923 348.02 14.3768 348.02 13.8743V5.45791C348.02 4.95869 347.6 4.53989 347.093 4.53989H327.729C327.225 4.53989 326.802 4.95534 326.802 5.45791V13.8743C326.802 14.3735 327.222 14.7923 327.729 14.7923H347.093Z" fill="white"/>
<path d="M388.676 7.20683H384.131V5.41434C384.131 4.91512 383.711 4.49631 383.203 4.49631H363.84C363.336 4.49631 362.913 4.91177 362.913 5.41434V24.5823C362.913 25.0815 363.332 25.5003 363.84 25.5003H383.203C383.708 25.5003 384.131 25.0849 384.131 24.5823V18.0824H376.976V13.5828H388.676V24.5823C388.676 27.581 386.236 30 383.203 30H363.84C360.811 30 358.367 27.5843 358.367 24.5823V5.41769C358.367 2.41903 360.807 0 363.84 0H383.203C386.233 0 388.676 2.41568 388.676 5.41769V7.21019V7.20683Z" fill="white"/>
<path d="M425 0L411.025 18.7492V30H406.479V18.7492L392.508 0H397.852L408.754 13.6665L419.615 0H425.003H425Z" fill="white"/>
<path d="M39.8607 0H34.4724L24.7078 11.5055L14.9431 0H9.55481V30H14.9431L24.7078 18.4945L34.4724 30H39.8607V0ZM14.1004 23.9993V6.00067L21.7394 15L14.1004 23.9993ZM27.6761 15L35.3152 6.00067V23.9993L27.6761 15Z" fill="white"/>
<path d="M118.045 0H112.657L102.892 11.5055L93.1278 0H87.7395V30H93.1278L102.892 18.4945L112.657 30H118.045V0ZM92.285 23.9993V6.00067L99.9241 15L92.285 23.9993ZM105.861 15L113.5 6.00067V23.9993L105.861 15Z" fill="white"/>
<path d="M281.468 0H276.08L266.315 11.5055L256.547 0H251.159V30H256.547L266.312 18.4945L276.077 30H281.465V0H281.468ZM255.708 23.9993V6.00067L263.347 15L255.708 23.9993ZM269.284 15L276.923 6.00067V23.9993L269.284 15Z" fill="white"/>
</g>
<defs>
<clipPath id="clip0_2_3">
<rect width="425" height="30" fill="white"/>
</clipPath>
</defs>
</svg>
