<svg width="246" height="332" viewBox="0 0 246 332" fill="none" xmlns="http://www.w3.org/2000/svg">
<path d="M186 0.311997L241.44 0.311999L241.44 8.859L214.028 31.882L241.44 54.905L241.44 63.452L186 63.452L186 57.215L234.356 57.215L204.249 31.882L234.356 6.549L186 6.549L186 0.311997ZM186 79.1395L230.66 79.1395L230.66 85.4535L186 85.4535L186 79.1395ZM238.976 79.1395L245.29 79.1395L245.29 85.4535L238.976 85.4535L238.976 79.1395ZM186 99.2359L186.077 99.2359L208.715 117.87L230.583 99.2359L230.66 99.2359L230.66 107.552L213.72 122.028L230.66 136.581L230.66 144.82L230.583 144.82L208.715 126.186L186.077 144.897L186 144.897L186 136.581L203.864 122.028L186 107.552L186 99.2359ZM186 166.192C186 164.498 186.411 162.932 187.232 161.495C188.105 160.109 189.234 158.979 190.62 158.107C192.057 157.285 193.623 156.875 195.317 156.875L221.343 156.875C223.037 156.875 224.577 157.285 225.963 158.107C227.4 158.979 228.53 160.109 229.351 161.495C230.224 162.932 230.66 164.498 230.66 166.192L230.66 192.988C230.66 194.733 230.224 196.299 229.351 197.685C228.53 199.122 227.4 200.251 225.963 201.073C224.577 201.945 223.037 202.382 221.343 202.382L205.173 202.382L205.173 163.189L195.317 163.189C194.496 163.189 193.777 163.471 193.161 164.036C192.596 164.652 192.314 165.37 192.314 166.192L192.314 202.382L186 202.382L186 166.192ZM211.487 163.189L211.487 195.991L221.343 195.991C222.164 195.991 222.857 195.683 223.422 195.067C224.038 194.502 224.346 193.809 224.346 192.988L224.346 166.192C224.346 165.37 224.038 164.652 223.422 164.036C222.857 163.471 222.164 163.189 221.343 163.189L211.487 163.189ZM186 225.126C186 223.381 186.411 221.789 187.232 220.352C188.105 218.966 189.234 217.837 190.62 216.964C192.057 216.143 193.623 215.732 195.317 215.732L221.343 215.732C223.037 215.732 224.577 216.143 225.963 216.964C227.4 217.837 228.53 218.966 229.351 220.352C230.224 221.789 230.66 223.381 230.66 225.126L230.66 254.925L245.29 254.925L245.29 261.239L186 261.239L186 225.126ZM192.314 225.126L192.314 251.922C192.314 252.743 192.596 253.436 193.161 254.001C193.777 254.617 194.496 254.925 195.317 254.925L221.343 254.925C222.164 254.925 222.857 254.617 223.422 254.001C224.038 253.436 224.346 252.743 224.346 251.922L224.346 225.126C224.346 224.305 224.038 223.586 223.422 222.97C222.857 222.405 222.164 222.123 221.343 222.123L195.317 222.123C194.496 222.123 193.777 222.405 193.161 222.97C192.596 223.586 192.314 224.305 192.314 225.126ZM102 0.542993L157.44 0.542996L157.44 44.356C157.44 46.05 157.029 47.59 156.208 48.976C155.387 50.4133 154.257 51.5427 152.82 52.364C151.434 53.1853 149.894 53.596 148.2 53.596L136.419 53.596C135.7 53.596 134.982 53.4933 134.263 53.288C133.596 53.134 132.954 52.903 132.338 52.595C130.644 53.7243 129.181 54.5713 127.949 55.136C126.717 55.7007 125.459 55.983 124.176 55.983L111.24 55.983C109.546 55.983 107.98 55.5723 106.543 54.751C105.157 53.9297 104.053 52.8003 103.232 51.363C102.411 49.977 102 48.437 102 46.743L102 0.542993ZM108.237 9.78299L108.237 46.743C108.237 47.5643 108.519 48.2573 109.084 48.822C109.7 49.438 110.419 49.746 111.24 49.746L124.176 49.746C124.997 49.746 125.69 49.438 126.255 48.822C126.871 48.2573 127.179 47.5643 127.179 46.743L127.179 9.78299C127.179 8.96166 126.871 8.24299 126.255 7.62699C125.69 7.06233 124.997 6.77999 124.176 6.77999L111.24 6.77999C110.419 6.77999 109.7 7.06233 109.084 7.62699C108.519 8.24299 108.237 8.96166 108.237 9.78299ZM133.416 9.78299L133.416 44.356C133.416 45.1773 133.698 45.8703 134.263 46.435C134.879 46.9997 135.598 47.282 136.419 47.282L148.2 47.282C149.021 47.282 149.714 46.9997 150.279 46.435C150.895 45.8703 151.203 45.1773 151.203 44.356L151.203 9.783C151.203 8.96166 150.895 8.243 150.279 7.627C149.714 7.06233 149.021 6.78 148.2 6.78L136.419 6.77999C135.598 6.77999 134.879 7.06233 134.263 7.627C133.698 8.24299 133.416 8.96166 133.416 9.78299ZM102 81.0104C102 79.3164 102.411 77.7507 103.232 76.3134C104.105 74.9274 105.234 73.7981 106.62 72.9254C108.057 72.1041 109.623 71.6934 111.317 71.6934L137.343 71.6934C139.037 71.6934 140.577 72.1041 141.963 72.9254C143.4 73.7981 144.53 74.9274 145.351 76.3134C146.224 77.7507 146.66 79.3164 146.66 81.0104L146.66 107.806C146.66 109.552 146.224 111.117 145.351 112.503C144.53 113.941 143.4 115.07 141.963 115.891C140.577 116.764 139.037 117.2 137.343 117.2L121.173 117.2L121.173 78.0074L111.317 78.0074C110.496 78.0074 109.777 78.2897 109.161 78.8544C108.596 79.4704 108.314 80.1891 108.314 81.0104L108.314 117.2L102 117.2L102 81.0104ZM127.487 78.0074L127.487 110.809L137.343 110.809C138.164 110.809 138.857 110.501 139.422 109.885C140.038 109.321 140.346 108.628 140.346 107.806L140.346 81.0104C140.346 80.1891 140.038 79.4704 139.422 78.8544C138.857 78.2897 138.164 78.0074 137.343 78.0074L127.487 78.0074ZM102 132.408L137.343 132.408C139.037 132.408 140.577 132.819 141.963 133.64C143.4 134.513 144.53 135.642 145.351 137.028C146.224 138.465 146.66 140.031 146.66 141.725L146.66 166.827L140.346 166.827L140.346 141.725C140.346 140.904 140.038 140.185 139.422 139.569C138.857 139.004 138.164 138.722 137.343 138.722L102 138.722L102 132.408ZM102 179.51L137.343 179.51C139.037 179.51 140.577 179.921 141.963 180.742C143.4 181.615 144.53 182.744 145.351 184.13C146.224 185.568 146.66 187.133 146.66 188.827L146.66 213.929L140.346 213.929L140.346 188.827C140.346 188.006 140.038 187.287 139.422 186.671C138.857 186.107 138.164 185.824 137.343 185.824L102 185.824L102 179.51ZM84.29 234.082L90.681 234.082L90.681 261.956C90.681 262.777 90.989 263.47 91.605 264.035C92.1697 264.651 92.8627 264.959 93.684 264.959L102 264.959L102 235.16C102 233.466 102.411 231.9 103.232 230.463C104.105 229.077 105.234 227.947 106.62 227.075C108.057 226.253 109.623 225.843 111.317 225.843L146.506 225.843L146.506 232.157L111.317 232.157C110.496 232.157 109.777 232.439 109.161 233.004C108.596 233.62 108.314 234.338 108.314 235.16L108.314 261.956C108.314 262.777 108.596 263.47 109.161 264.035C109.777 264.651 110.496 264.959 111.317 264.959L146.506 264.959L146.506 271.273L93.684 271.273C91.9387 271.273 90.373 270.862 88.987 270.041C87.5497 269.219 86.4203 268.09 85.599 266.653C84.7263 265.267 84.29 263.701 84.29 261.956L84.29 234.082ZM18 0.46599L73.44 0.465992L73.44 46.666C73.44 48.36 73.0293 49.9 72.208 51.286C71.3867 52.7233 70.2573 53.8527 68.82 54.674C67.434 55.4953 65.894 55.906 64.2 55.906L27.24 55.906C25.546 55.906 23.9803 55.4953 22.543 54.674C21.157 53.8527 20.0533 52.7233 19.232 51.286C18.4107 49.9 18 48.36 18 46.666L18 0.46599ZM24.237 9.70599L24.237 46.666C24.237 47.4873 24.5193 48.1803 25.084 48.745C25.7 49.361 26.4187 49.669 27.24 49.669L64.2 49.669C65.0213 49.669 65.7143 49.361 66.279 48.745C66.895 48.1803 67.203 47.4873 67.203 46.666L67.203 9.70599C67.203 8.88466 66.895 8.16599 66.279 7.54999C65.7143 6.98533 65.0213 6.70299 64.2 6.70299L27.24 6.70299C26.4187 6.70299 25.7 6.98532 25.084 7.54999C24.5193 8.16599 24.237 8.88466 24.237 9.70599ZM18 81.1608C18 79.4668 18.4107 77.9011 19.232 76.4638C20.1047 75.0778 21.234 73.9485 22.62 73.0758C24.0573 72.2545 25.623 71.8438 27.317 71.8438L53.343 71.8438C55.037 71.8438 56.577 72.2545 57.963 73.0758C59.4003 73.9485 60.5297 75.0778 61.351 76.4638C62.2237 77.9011 62.66 79.4668 62.66 81.1608L62.66 107.957C62.66 109.702 62.2237 111.268 61.351 112.654C60.5297 114.091 59.4003 115.22 57.963 116.042C56.577 116.914 55.037 117.351 53.343 117.351L37.173 117.351L37.173 78.1578L27.317 78.1578C26.4957 78.1578 25.777 78.4401 25.161 79.0048C24.5963 79.6208 24.314 80.3395 24.314 81.1608L24.314 117.351L18 117.351L18 81.1608ZM43.487 78.1578L43.487 110.96L53.343 110.96C54.1643 110.96 54.8573 110.652 55.422 110.036C56.038 109.471 56.346 108.778 56.346 107.957L56.346 81.1608C56.346 80.3395 56.038 79.6208 55.422 79.0048C54.8573 78.4401 54.1643 78.1578 53.343 78.1578L43.487 78.1578ZM18 140.747C18 139.053 18.4107 137.488 19.232 136.05C20.1047 134.664 21.234 133.535 22.62 132.662C24.0573 131.841 25.623 131.43 27.317 131.43L77.29 131.43L77.29 137.744L27.317 137.744C26.4957 137.744 25.777 138.027 25.161 138.591C24.5963 139.207 24.314 139.926 24.314 140.747L24.314 148.293L18 148.293L18 140.747ZM18 162.366L62.66 162.366L62.66 168.68L18 168.68L18 162.366ZM70.976 162.366L77.29 162.366L77.29 168.68L70.976 168.68L70.976 162.366ZM0.36699 193.474L6.75799 193.474L6.75799 221.348C6.75799 222.17 7.06599 222.863 7.68199 223.427C8.24666 224.043 8.93966 224.351 9.76099 224.351L18 224.351L18 194.552C18 192.858 18.4107 191.293 19.232 189.855C20.1047 188.469 21.234 187.34 22.62 186.467C24.0573 185.646 25.623 185.235 27.317 185.235L53.343 185.235C55.037 185.235 56.577 185.646 57.963 186.467C59.4003 187.34 60.5297 188.469 61.351 189.855C62.2237 191.293 62.66 192.858 62.66 194.552L62.66 221.348C62.66 223.094 62.2237 224.659 61.351 226.045C60.5297 227.483 59.4003 228.612 57.963 229.433C56.577 230.255 55.037 230.665 53.343 230.665L9.76099 230.665C8.01566 230.665 6.44999 230.255 5.06399 229.433C3.62666 228.612 2.49732 227.483 1.67599 226.045C0.803322 224.659 0.366989 223.094 0.366989 221.348L0.36699 193.474ZM24.314 194.552L24.314 221.348C24.314 222.17 24.5963 222.863 25.161 223.427C25.777 224.043 26.4957 224.351 27.317 224.351L53.343 224.351C54.1643 224.351 54.8573 224.043 55.422 223.427C56.038 222.863 56.346 222.17 56.346 221.348L56.346 194.552C56.346 193.731 56.038 193.012 55.422 192.396C54.8573 191.832 54.1643 191.549 53.343 191.549L27.317 191.549C26.4957 191.549 25.777 191.832 25.161 192.396C24.5963 193.012 24.314 193.731 24.314 194.552ZM18 246.498L77.29 246.498L77.29 252.812L62.66 252.812L62.66 282.688C62.66 284.382 62.2237 285.922 61.351 287.308C60.5297 288.745 59.4003 289.875 57.963 290.696C56.577 291.569 55.037 292.005 53.343 292.005L18 292.005L18 285.691L53.343 285.691C54.1643 285.691 54.8573 285.383 55.422 284.767C56.038 284.202 56.346 283.509 56.346 282.688L56.346 255.892C56.346 255.071 56.038 254.352 55.422 253.736C54.8573 253.12 54.1643 252.812 53.343 252.812L18 252.812L18 246.498ZM18 314.871C18 313.126 18.4107 311.535 19.232 310.097C20.1047 308.711 21.234 307.608 22.62 306.786C24.0573 305.965 25.623 305.554 27.317 305.554L77.29 305.554L77.29 311.868L62.66 311.868L62.66 331.195L56.346 331.195L56.346 311.868L27.317 311.868C26.4957 311.868 25.777 312.151 25.161 312.715C24.5963 313.331 24.314 314.05 24.314 314.871L24.314 331.195L18 331.195L18 314.871Z" fill="url(#paint0_linear_31_1259)"/>
<defs>
<linearGradient id="paint0_linear_31_1259" x1="132" y1="-4.00001" x2="151.228" y2="186.368" gradientUnits="userSpaceOnUse">
<stop stop-color="#128FCD"/>
<stop offset="0.51192" stop-color="#B3D6E0"/>
<stop offset="1" stop-color="#DC24B1"/>
</linearGradient>
</defs>
</svg>
