<svg width="160" height="118" viewBox="0 0 160 118" fill="none" xmlns="http://www.w3.org/2000/svg">
<path d="M0.0720001 29V2.36H4.179L15.242 15.532L26.305 2.36H30.412V29H27.415V5.764L15.242 20.231L3.069 5.764V29H0.0720001ZM37.9502 29V7.54H40.9842V29H37.9502ZM37.9502 3.544V0.509999H40.9842V3.544H37.9502ZM47.6069 29V28.963L56.5609 18.085L47.6069 7.577V7.54H51.6029L58.5589 15.68L65.5519 7.54H69.5109V7.577L60.5569 18.085L69.5479 28.963V29H65.5519L58.5589 20.416L51.6029 29H47.6069ZM79.7804 29C78.9664 29 78.2141 28.8027 77.5234 28.408C76.8574 27.9887 76.3147 27.446 75.8954 26.78C75.5007 26.0893 75.3034 25.337 75.3034 24.523V12.017C75.3034 11.203 75.5007 10.463 75.8954 9.797C76.3147 9.10633 76.8574 8.56367 77.5234 8.169C78.2141 7.74967 78.9664 7.54 79.7804 7.54H92.6564C93.4951 7.54 94.2474 7.74967 94.9134 8.169C95.6041 8.56367 96.1467 9.10633 96.5414 9.797C96.9607 10.463 97.1704 11.203 97.1704 12.017V19.787H78.3374V24.523C78.3374 24.9177 78.4731 25.263 78.7444 25.559C79.0404 25.8303 79.3857 25.966 79.7804 25.966H97.1704V29H79.7804ZM78.3374 16.753H94.0994V12.017C94.0994 11.6223 93.9514 11.2893 93.6554 11.018C93.3841 10.722 93.0511 10.574 92.6564 10.574H79.7804C79.3857 10.574 79.0404 10.722 78.7444 11.018C78.4731 11.2893 78.3374 11.6223 78.3374 12.017V16.753ZM108.1 29C107.261 29 106.496 28.8027 105.806 28.408C105.14 27.9887 104.597 27.446 104.178 26.78C103.783 26.0893 103.586 25.337 103.586 24.523V12.017C103.586 11.203 103.783 10.463 104.178 9.797C104.597 9.10633 105.14 8.56367 105.806 8.169C106.496 7.74967 107.261 7.54 108.1 7.54H122.419V0.509999H125.453V29H108.1ZM108.1 25.966H120.976C121.37 25.966 121.703 25.8303 121.975 25.559C122.271 25.263 122.419 24.9177 122.419 24.523V12.017C122.419 11.6223 122.271 11.2893 121.975 11.018C121.703 10.722 121.37 10.574 120.976 10.574H108.1C107.705 10.574 107.36 10.722 107.064 11.018C106.792 11.2893 106.657 11.6223 106.657 12.017V24.523C106.657 24.9177 106.792 25.263 107.064 25.559C107.36 25.8303 107.705 25.966 108.1 25.966ZM0.183 69V42.36H21.236C22.05 42.36 22.79 42.5573 23.456 42.952C24.1467 43.3467 24.6893 43.8893 25.084 44.58C25.4787 45.246 25.676 45.986 25.676 46.8V52.461C25.676 52.8063 25.6267 53.1517 25.528 53.497C25.454 53.8177 25.343 54.126 25.195 54.422C25.7377 55.236 26.1447 55.939 26.416 56.531C26.6873 57.123 26.823 57.7273 26.823 58.344V64.56C26.823 65.374 26.6257 66.1263 26.231 66.817C25.8363 67.483 25.2937 68.0133 24.603 68.408C23.937 68.8027 23.197 69 22.383 69H0.183ZM4.623 66.003H22.383C22.7777 66.003 23.1107 65.8673 23.382 65.596C23.678 65.3 23.826 64.9547 23.826 64.56V58.344C23.826 57.9493 23.678 57.6163 23.382 57.345C23.1107 57.049 22.7777 56.901 22.383 56.901H4.623C4.22833 56.901 3.883 57.049 3.587 57.345C3.31567 57.6163 3.18 57.9493 3.18 58.344V64.56C3.18 64.9547 3.31567 65.3 3.587 65.596C3.883 65.8673 4.22833 66.003 4.623 66.003ZM4.623 53.904H21.236C21.6307 53.904 21.9637 53.7683 22.235 53.497C22.5063 53.201 22.642 52.8557 22.642 52.461V46.8C22.642 46.4053 22.5063 46.0723 22.235 45.801C21.9637 45.505 21.6307 45.357 21.236 45.357H4.623C4.22833 45.357 3.883 45.505 3.587 45.801C3.31567 46.0723 3.18 46.4053 3.18 46.8V52.461C3.18 52.8557 3.31567 53.201 3.587 53.497C3.883 53.7683 4.22833 53.904 4.623 53.904ZM38.8492 69C38.0352 69 37.2828 68.8027 36.5922 68.408C35.9262 67.9887 35.3835 67.446 34.9642 66.78C34.5695 66.0893 34.3722 65.337 34.3722 64.523V52.017C34.3722 51.203 34.5695 50.463 34.9642 49.797C35.3835 49.1063 35.9262 48.5637 36.5922 48.169C37.2828 47.7497 38.0352 47.54 38.8492 47.54H51.7252C52.5638 47.54 53.3162 47.7497 53.9822 48.169C54.6728 48.5637 55.2155 49.1063 55.6102 49.797C56.0295 50.463 56.2392 51.203 56.2392 52.017V59.787H37.4062V64.523C37.4062 64.9177 37.5418 65.263 37.8132 65.559C38.1092 65.8303 38.4545 65.966 38.8492 65.966H56.2392V69H38.8492ZM37.4062 56.753H53.1682V52.017C53.1682 51.6223 53.0202 51.2893 52.7242 51.018C52.4528 50.722 52.1198 50.574 51.7252 50.574H38.8492C38.4545 50.574 38.1092 50.722 37.8132 51.018C37.5418 51.2893 37.4062 51.6223 37.4062 52.017V56.753ZM63.5467 69V52.017C63.5467 51.203 63.744 50.463 64.1387 49.797C64.558 49.1063 65.1007 48.5637 65.7667 48.169C66.4573 47.7497 67.2097 47.54 68.0237 47.54H80.0857V50.574H68.0237C67.629 50.574 67.2837 50.722 66.9877 51.018C66.7163 51.2893 66.5807 51.6223 66.5807 52.017V69H63.5467ZM86.1802 69V52.017C86.1802 51.203 86.3776 50.463 86.7722 49.797C87.1916 49.1063 87.7342 48.5637 88.4002 48.169C89.0909 47.7497 89.8432 47.54 90.6572 47.54H102.719V50.574H90.6572C90.2626 50.574 89.9172 50.722 89.6212 51.018C89.3499 51.2893 89.2142 51.6223 89.2142 52.017V69H86.1802ZM112.403 77.51V74.439H125.797C126.192 74.439 126.525 74.291 126.796 73.995C127.092 73.7237 127.24 73.3907 127.24 72.996V69H112.921C112.107 69 111.355 68.8027 110.664 68.408C109.998 67.9887 109.455 67.446 109.036 66.78C108.641 66.0893 108.444 65.337 108.444 64.523V47.614H111.478V64.523C111.478 64.9177 111.614 65.263 111.885 65.559C112.181 65.8303 112.526 65.966 112.921 65.966H125.797C126.192 65.966 126.525 65.8303 126.796 65.559C127.092 65.263 127.24 64.9177 127.24 64.523V47.614H130.274V72.996C130.274 73.8347 130.077 74.587 129.682 75.253C129.287 75.9437 128.745 76.4863 128.054 76.881C127.388 77.3003 126.636 77.51 125.797 77.51H112.403ZM0.146 109V82.36H22.346C23.16 82.36 23.9 82.5573 24.566 82.952C25.2567 83.3467 25.7993 83.8893 26.194 84.58C26.5887 85.246 26.786 85.986 26.786 86.8V104.56C26.786 105.374 26.5887 106.126 26.194 106.817C25.7993 107.483 25.2567 108.013 24.566 108.408C23.9 108.803 23.16 109 22.346 109H0.146ZM4.586 106.003H22.346C22.7407 106.003 23.0737 105.867 23.345 105.596C23.641 105.3 23.789 104.955 23.789 104.56V86.8C23.789 86.4053 23.641 86.0723 23.345 85.801C23.0737 85.505 22.7407 85.357 22.346 85.357H4.586C4.19133 85.357 3.846 85.505 3.55 85.801C3.27867 86.0723 3.143 86.4053 3.143 86.8V104.56C3.143 104.955 3.27867 105.3 3.55 105.596C3.846 105.867 4.19133 106.003 4.586 106.003ZM38.9214 109C38.1074 109 37.3551 108.803 36.6644 108.408C35.9984 107.989 35.4558 107.446 35.0364 106.78C34.6418 106.089 34.4444 105.337 34.4444 104.523V92.017C34.4444 91.203 34.6418 90.463 35.0364 89.797C35.4558 89.1063 35.9984 88.5637 36.6644 88.169C37.3551 87.7497 38.1074 87.54 38.9214 87.54H51.7974C52.6361 87.54 53.3884 87.7497 54.0544 88.169C54.7451 88.5637 55.2878 89.1063 55.6824 89.797C56.1018 90.463 56.3114 91.203 56.3114 92.017V99.787H37.4784V104.523C37.4784 104.918 37.6141 105.263 37.8854 105.559C38.1814 105.83 38.5268 105.966 38.9214 105.966H56.3114V109H38.9214ZM37.4784 96.753H53.2404V92.017C53.2404 91.6223 53.0924 91.2893 52.7964 91.018C52.5251 90.722 52.1921 90.574 51.7974 90.574H38.9214C38.5268 90.574 38.1814 90.722 37.8854 91.018C37.6141 91.2893 37.4784 91.6223 37.4784 92.017V96.753ZM67.5539 109C66.7399 109 65.9876 108.803 65.2969 108.408C64.6309 107.989 64.0883 107.446 63.6689 106.78C63.2743 106.089 63.0769 105.337 63.0769 104.523V80.51H66.1109V104.523C66.1109 104.918 66.2466 105.263 66.5179 105.559C66.8139 105.83 67.1593 105.966 67.5539 105.966H71.1799V109H67.5539ZM77.942 109V87.54H80.976V109H77.942ZM77.942 83.544V80.51H80.976V83.544H77.942ZM92.8903 117.473V114.402H106.284C106.679 114.402 107.012 114.254 107.283 113.958C107.579 113.687 107.727 113.354 107.727 112.959V109H93.4083C92.5943 109 91.8419 108.803 91.1513 108.408C90.4853 107.989 89.9426 107.446 89.5233 106.78C89.1286 106.089 88.9313 105.337 88.9313 104.523V92.017C88.9313 91.203 89.1286 90.463 89.5233 89.797C89.9426 89.1063 90.4853 88.5637 91.1513 88.169C91.8419 87.7497 92.5943 87.54 93.4083 87.54H106.284C107.123 87.54 107.875 87.7497 108.541 88.169C109.232 88.5637 109.775 89.1063 110.169 89.797C110.564 90.463 110.761 91.203 110.761 92.017V112.959C110.761 113.798 110.564 114.55 110.169 115.216C109.775 115.907 109.232 116.449 108.541 116.844C107.875 117.263 107.123 117.473 106.284 117.473H92.8903ZM93.4083 105.966H106.284C106.679 105.966 107.012 105.83 107.283 105.559C107.579 105.263 107.727 104.918 107.727 104.523V92.017C107.727 91.6223 107.579 91.2893 107.283 91.018C107.012 90.722 106.679 90.574 106.284 90.574H93.4083C93.0136 90.574 92.6683 90.722 92.3723 91.018C92.1009 91.2893 91.9653 91.6223 91.9653 92.017V104.523C91.9653 104.918 92.1009 105.263 92.3723 105.559C92.6683 105.83 93.0136 105.966 93.4083 105.966ZM118.369 109V80.51H121.403V87.54H135.759C136.573 87.54 137.313 87.7497 137.979 88.169C138.67 88.5637 139.212 89.1063 139.607 89.797C140.026 90.463 140.236 91.203 140.236 92.017V109H137.202V92.017C137.202 91.6223 137.054 91.2893 136.758 91.018C136.487 90.722 136.154 90.574 135.759 90.574H122.883C122.488 90.574 122.143 90.722 121.847 91.018C121.551 91.2893 121.403 91.6223 121.403 92.017V109H118.369ZM151.224 109C150.385 109 149.621 108.803 148.93 108.408C148.264 107.989 147.734 107.446 147.339 106.78C146.944 106.089 146.747 105.337 146.747 104.523V80.51H149.781V87.54H159.068V90.574H149.781V104.523C149.781 104.918 149.917 105.263 150.188 105.559C150.484 105.83 150.829 105.966 151.224 105.966H159.068V109H151.224Z" fill="url(#paint0_linear_23_91)"/>
<defs>
<linearGradient id="paint0_linear_23_91" x1="-2" y1="55" x2="157.71" y2="25.9343" gradientUnits="userSpaceOnUse">
<stop stop-color="#128FCD"/>
<stop offset="0.51192" stop-color="#B3D6E0"/>
<stop offset="1" stop-color="#DC24B1"/>
</linearGradient>
</defs>
</svg>
