<svg width="117" height="117" viewBox="0 0 117 117" fill="none" xmlns="http://www.w3.org/2000/svg">
<circle cx="58.5" cy="58.5" r="58.5" transform="matrix(-1 0 0 1 117 0)" fill="white"/>
<circle cx="11.5" cy="11.5" r="11.5" transform="matrix(-1 0 0 1 26 86)" fill="white"/>
<path d="M21.314 44.878V47.16C21.314 49.148 21.132 52.004 19.956 53.838C19.676 53.586 19.004 53.166 18.626 53.012C19.718 51.332 19.816 48.91 19.816 47.16V43.534H27.824V52.368C27.824 53.082 27.684 53.46 27.222 53.712C26.788 53.95 26.144 53.964 25.22 53.964C25.164 53.558 24.982 52.942 24.786 52.578C25.304 52.606 25.864 52.606 26.046 52.592C26.228 52.592 26.284 52.522 26.284 52.34V44.878H21.314ZM21.65 47.65H23.022V46.908H21.706V45.788H23.022V45.074H24.394V45.788H25.85V46.908H24.394V47.65H25.892V48.77H21.65V47.65ZM24.324 50.394H23.078V51.402H24.324V50.394ZM23.078 52.494V53.124H21.832V49.316H25.584V52.494H23.078ZM18.738 45.746L17.324 46.684C17.016 45.984 16.176 44.976 15.462 44.276L16.778 43.436C17.506 44.108 18.388 45.06 18.738 45.746ZM18.542 48.574V53.054C19.088 54.006 20.11 54.412 21.552 54.468C23.274 54.552 26.704 54.51 28.664 54.342C28.482 54.72 28.244 55.448 28.174 55.896C26.396 55.994 23.302 56.022 21.552 55.938C19.872 55.868 18.724 55.462 17.884 54.37C17.352 54.93 16.806 55.476 16.134 56.078L15.35 54.496C15.854 54.132 16.47 53.67 17.002 53.194V50.1H15.56V48.574H18.542ZM41.544 50.408H37.792C38.996 51.906 40.858 53.292 42.65 54.062C42.23 54.412 41.684 55.098 41.39 55.546C39.766 54.678 38.142 53.236 36.882 51.626V56.218H35.104V51.738C33.858 53.334 32.234 54.748 30.61 55.63C30.33 55.196 29.784 54.51 29.378 54.16C31.198 53.362 33.06 51.92 34.292 50.408H30.54V48.77H35.104V46.936H29.91V45.27H35.104V43.142H36.882V45.27H42.188V46.936H36.882V48.77H41.544V50.408ZM49.804 43.772C49.734 44.122 49.636 44.584 49.454 45.172C50.784 45.102 52.184 44.976 53.416 44.766L53.402 46.39C52.072 46.586 50.35 46.698 48.838 46.74C48.6 47.258 48.32 47.762 48.04 48.168C48.404 48 49.16 47.888 49.622 47.888C50.476 47.888 51.176 48.252 51.484 48.966C52.212 48.63 52.8 48.392 53.374 48.14C53.92 47.902 54.41 47.678 54.928 47.412L55.628 49.036C55.18 49.162 54.438 49.442 53.962 49.624C53.332 49.876 52.534 50.184 51.68 50.576C51.694 51.36 51.722 52.396 51.736 53.04H50.056C50.098 52.62 50.112 51.948 50.126 51.332C49.076 51.934 48.516 52.48 48.516 53.18C48.516 53.95 49.174 54.16 50.546 54.16C51.736 54.16 53.29 54.006 54.522 53.768L54.466 55.574C53.542 55.7 51.82 55.812 50.504 55.812C48.306 55.812 46.682 55.28 46.682 53.474C46.682 51.682 48.362 50.562 49.958 49.736C49.748 49.386 49.37 49.26 48.978 49.26C48.194 49.26 47.326 49.708 46.794 50.226C46.374 50.646 45.968 51.15 45.492 51.766L43.994 50.646C45.464 49.288 46.458 48.042 47.088 46.782C47.018 46.782 46.962 46.782 46.906 46.782C46.332 46.782 45.31 46.754 44.54 46.698V45.06C45.254 45.172 46.29 45.228 47.004 45.228C47.214 45.228 47.452 45.228 47.676 45.228C47.83 44.668 47.928 44.122 47.956 43.618L49.804 43.772ZM68.97 44.122V45.732H59.03V44.122H68.97ZM67.108 54.426H68.368C68.83 54.426 68.914 54.062 68.984 52.046C69.348 52.34 70.062 52.634 70.524 52.746C70.356 55.252 69.936 55.98 68.508 55.98H66.828C65.246 55.98 64.84 55.448 64.84 53.81V49.526H62.74C62.488 52.438 61.844 54.832 58.498 56.19C58.302 55.77 57.84 55.154 57.462 54.832C60.374 53.74 60.766 51.85 60.934 49.526H57.77V47.902H70.258V49.526H66.562V53.81C66.562 54.342 66.646 54.426 67.108 54.426ZM77.79 50.044L79.4 50.576C78.98 51.346 78.49 52.074 77.916 52.732C78.798 53.348 79.582 53.978 80.128 54.524L78.798 55.784C78.308 55.238 77.566 54.608 76.726 53.978C75.62 54.986 74.36 55.812 73.072 56.442C72.82 56.092 72.204 55.448 71.84 55.14C73.142 54.636 74.346 53.908 75.382 53.026C74.584 52.494 73.772 52.004 73.03 51.584L74.22 50.492C74.948 50.87 75.76 51.346 76.558 51.85C77.048 51.29 77.454 50.688 77.79 50.044ZM73.24 48.574H82.2C82.172 51.934 82.354 54.58 83.166 54.58C83.376 54.566 83.432 53.838 83.46 52.704C83.782 53.082 84.202 53.502 84.538 53.74C84.412 55.49 84.118 56.232 83.04 56.232C80.996 56.232 80.59 53.558 80.506 49.974H73.002V48.812L72.876 48.924C72.554 48.644 71.77 48.112 71.364 47.874C72.75 46.824 73.8 45.018 74.346 43.086L76.082 43.45C75.97 43.8 75.858 44.15 75.732 44.486H84.006V45.872H75.116C75.004 46.096 74.878 46.32 74.752 46.53H82.732V47.874H74.654V46.698C74.22 47.412 73.744 48.042 73.24 48.574ZM91.272 45.214C92.994 45.452 95.78 45.382 97.292 45.2V47.006C95.57 47.16 93.036 47.174 91.272 47.006V45.214ZM92.392 51.192C92.28 51.654 92.224 51.99 92.224 52.368C92.224 52.984 92.756 53.362 94.184 53.362C95.43 53.362 96.466 53.25 97.698 52.998L97.726 54.888C96.816 55.056 95.696 55.154 94.114 55.154C91.706 55.154 90.544 54.3 90.544 52.858C90.544 52.312 90.628 51.752 90.782 51.038L92.392 51.192ZM89.116 44.276C89.004 44.57 88.822 45.27 88.766 45.522C88.584 46.46 88.094 49.26 88.094 50.66C88.094 50.926 88.108 51.29 88.15 51.57C88.36 51.094 88.584 50.604 88.78 50.142L89.648 50.828C89.256 51.99 88.794 53.516 88.64 54.258C88.598 54.468 88.57 54.776 88.57 54.916C88.57 55.07 88.584 55.294 88.598 55.49L86.974 55.602C86.694 54.636 86.428 52.928 86.428 51.024C86.428 48.924 86.862 46.558 87.016 45.48C87.058 45.088 87.142 44.556 87.156 44.108L89.116 44.276ZM19.326 72.76L18.892 71.29C19.144 71.234 19.41 71.178 19.704 71.108V64.122L20.502 64.332C21.202 63.982 21.902 63.534 22.364 63.142L23.47 64.346V63.996H28.006V71.108C28.006 71.78 27.894 72.172 27.446 72.41C27.012 72.648 26.438 72.676 25.612 72.676C25.556 72.27 25.36 71.64 25.164 71.276C25.626 71.29 26.102 71.29 26.256 71.29C26.424 71.29 26.48 71.234 26.48 71.066V65.396H24.982V74.062H23.47V64.416C22.77 64.808 21.972 65.172 21.23 65.466V70.744C21.804 70.604 22.392 70.45 22.98 70.296L23.162 71.724C21.86 72.088 20.446 72.466 19.326 72.76ZM18.738 65.746L17.324 66.684C17.016 65.984 16.176 64.976 15.462 64.276L16.778 63.436C17.506 64.108 18.388 65.06 18.738 65.746ZM18.542 68.574V73.054C19.088 74.006 20.11 74.412 21.552 74.468C23.274 74.552 26.704 74.51 28.664 74.342C28.482 74.72 28.244 75.448 28.174 75.896C26.396 75.994 23.302 76.022 21.552 75.938C19.872 75.868 18.724 75.462 17.884 74.37C17.352 74.93 16.806 75.476 16.134 76.078L15.35 74.496C15.854 74.132 16.47 73.67 17.002 73.194V70.1H15.56V68.574H18.542ZM33.368 63.646C34.936 63.94 37.624 64.234 39.08 64.332L38.856 65.97C37.386 65.858 34.768 65.55 33.102 65.27L33.368 63.646ZM39.57 68.098C39.206 68.35 38.912 68.602 38.66 68.812C38.016 69.358 36.714 70.562 36.378 70.926C36.504 70.912 36.756 70.968 36.91 71.024C37.316 71.15 37.568 71.458 37.75 71.976C37.876 72.354 38.03 72.886 38.156 73.25C38.282 73.684 38.59 73.908 39.136 73.908C40.214 73.908 41.18 73.796 41.88 73.656L41.768 75.49C41.194 75.602 39.752 75.7 39.024 75.7C37.694 75.7 36.98 75.406 36.63 74.496C36.49 74.076 36.322 73.418 36.224 73.068C36.07 72.578 35.762 72.396 35.482 72.396C35.188 72.396 34.894 72.62 34.558 72.956C34.082 73.446 33.032 74.594 32.066 75.826L30.414 74.664C30.666 74.454 31.002 74.16 31.38 73.796C32.094 73.068 34.964 70.212 36.238 68.868C35.258 68.896 33.578 69.05 32.78 69.12C32.29 69.162 31.87 69.232 31.576 69.274L31.408 67.342C31.73 67.37 32.234 67.398 32.752 67.384C33.41 67.384 36.588 67.244 37.75 67.09C38.016 67.062 38.394 66.992 38.548 66.936L39.57 68.098ZM51.218 71.584C51.106 71.976 51.022 72.438 51.022 72.746C51.022 73.362 51.442 73.824 52.94 73.824C53.878 73.824 54.844 73.712 55.852 73.53L55.782 75.322C54.998 75.42 54.046 75.518 52.926 75.518C50.574 75.518 49.3 74.706 49.3 73.292C49.3 72.648 49.44 71.976 49.552 71.416L51.218 71.584ZM49.636 63.828C49.524 64.206 49.398 64.836 49.342 65.144C49.314 65.298 49.272 65.48 49.23 65.676C50.014 65.564 50.798 65.41 51.568 65.228V66.978C50.728 67.174 49.776 67.328 48.838 67.44C48.712 68.042 48.572 68.658 48.418 69.232C47.914 71.192 46.976 74.048 46.192 75.714L44.246 75.056C45.086 73.656 46.15 70.716 46.668 68.756C46.766 68.378 46.878 67.986 46.962 67.58C46.64 67.594 46.332 67.608 46.038 67.608C45.366 67.608 44.834 67.58 44.344 67.552L44.302 65.802C45.016 65.886 45.492 65.914 46.066 65.914C46.472 65.914 46.892 65.9 47.326 65.872C47.382 65.564 47.424 65.298 47.452 65.074C47.508 64.556 47.536 63.982 47.494 63.66L49.636 63.828ZM50.462 68.056C51.246 67.986 52.254 67.916 53.15 67.916C53.948 67.916 54.788 67.958 55.614 68.042L55.572 69.722C54.872 69.638 54.018 69.554 53.164 69.554C52.212 69.554 51.344 69.596 50.462 69.694V68.056ZM60.64 64.99C60.542 65.494 60.472 66.306 60.472 66.698C60.458 67.608 60.472 68.658 60.556 69.666C60.752 71.682 61.172 73.068 62.054 73.068C62.712 73.068 63.272 71.43 63.538 70.31L64.938 72.018C64.014 74.454 63.132 75.308 62.012 75.308C60.472 75.308 59.142 73.922 58.75 70.17C58.61 68.882 58.596 67.244 58.596 66.39C58.596 65.998 58.568 65.396 58.484 64.962L60.64 64.99ZM67.64 65.312C68.97 66.922 70.034 70.422 70.188 72.564L68.354 73.278C68.13 71.024 67.388 67.622 65.862 65.886L67.64 65.312ZM73.338 68.546C73.968 68.546 74.472 69.05 74.472 69.68C74.472 70.31 73.968 70.814 73.338 70.814C72.708 70.814 72.204 70.31 72.204 69.68C72.204 69.05 72.708 68.546 73.338 68.546ZM78 68.546C78.63 68.546 79.134 69.05 79.134 69.68C79.134 70.31 78.63 70.814 78 70.814C77.37 70.814 76.866 70.31 76.866 69.68C76.866 69.05 77.37 68.546 78 68.546ZM82.662 68.546C83.292 68.546 83.796 69.05 83.796 69.68C83.796 70.31 83.292 70.814 82.662 70.814C82.032 70.814 81.528 70.31 81.528 69.68C81.528 69.05 82.032 68.546 82.662 68.546ZM91.286 71.402L90.908 66.614L90.838 64.528H93.162L93.092 66.614L92.714 71.402H91.286ZM92 75.126C91.286 75.126 90.768 74.622 90.768 73.894C90.768 73.152 91.3 72.648 92 72.648C92.7 72.648 93.232 73.152 93.232 73.894C93.232 74.622 92.7 75.126 92 75.126Z" fill="black"/>
</svg>
