<svg width="117" height="117" viewBox="0 0 117 117" fill="none" xmlns="http://www.w3.org/2000/svg">
<circle cx="58.5" cy="58.5" r="58.5" fill="white"/>
<circle cx="102.5" cy="97.5" r="11.5" fill="white"/>
<path d="M25.94 45.228V44.654H20.004V45.228H25.94ZM25.94 46.824V46.236H20.004V46.824H25.94ZM27.606 43.59V47.888H18.408V43.59H27.606ZM26.808 51.514H24.918C25.156 52.018 25.478 52.48 25.856 52.886C26.234 52.48 26.556 52.018 26.808 51.514ZM19.388 53.18V53.866C19.976 53.824 20.592 53.782 21.208 53.726V53.18H19.388ZM19.388 51.444V52.032H21.208V51.444H19.388ZM21.208 49.722H19.388V50.282H21.208V49.722ZM27.788 50.184L28.81 50.576C28.432 51.892 27.83 52.984 27.046 53.866C27.746 54.328 28.586 54.678 29.51 54.902C29.188 55.21 28.754 55.812 28.53 56.204C27.536 55.91 26.668 55.476 25.926 54.902C25.212 55.448 24.414 55.882 23.546 56.204C23.392 55.882 23.084 55.42 22.804 55.084V56.218H21.208V55.084C19.598 55.238 18.002 55.378 16.77 55.49L16.644 54.062C17.008 54.034 17.428 54.02 17.862 53.978V49.722H16.77V48.406H29.216V49.722H22.804V54.846C23.518 54.608 24.204 54.272 24.792 53.838C24.288 53.236 23.854 52.536 23.518 51.766L24.442 51.514H23.154V50.24H27.508L27.788 50.184ZM39.38 48.588H37.21C37.07 50.24 36.608 52.2 35.264 53.586C35.04 53.222 34.452 52.648 34.06 52.438C35.488 50.912 35.656 48.812 35.656 47.188V43.996L37.084 44.262C38.736 43.982 40.43 43.59 41.508 43.156L42.88 44.43C41.256 45.004 39.17 45.396 37.266 45.648V47.048H43.37V48.588H41.032V53.81H39.38V48.588ZM34.242 45.578L32.926 46.684C32.492 46.012 31.498 45.088 30.672 44.472L31.904 43.464C32.744 44.052 33.766 44.92 34.242 45.578ZM33.892 48.574V52.97C34.466 53.908 35.516 54.286 36.972 54.342C38.61 54.412 41.76 54.37 43.622 54.23C43.44 54.622 43.188 55.434 43.104 55.91C41.424 55.994 38.61 56.022 36.944 55.952C35.222 55.882 34.074 55.49 33.164 54.398C32.548 54.944 31.932 55.49 31.162 56.078L30.35 54.342C30.952 53.992 31.652 53.53 32.268 53.054V50.1H30.658V48.574H33.892ZM47.57 55.966C46.716 54.916 45.526 53.712 44.56 52.872L46.016 51.612C47.01 52.424 48.368 53.81 49.068 54.678L47.57 55.966ZM62.704 43.576V44.836H59.12V43.576H62.704ZM63.082 45.452V46.768H58.462V45.452H63.082ZM62.746 47.398V48.672H59.036V47.398H62.746ZM59.036 50.562V49.316H62.746V50.562H59.036ZM65.546 48.28H66.68V47.328H65.602V46.124H66.68V45.214H67.982V46.124H69.088V47.328H67.982V48.28H69.186V49.498H65.546V48.28ZM67.87 51.416H66.806V52.732H67.87V51.416ZM69.074 53.922H66.806V54.398H65.63V50.212H69.074V53.922ZM61.388 54.16V52.55H60.282V54.16H61.388ZM71.146 43.646V54.342C71.146 55.154 71.02 55.63 70.544 55.896C70.068 56.176 69.382 56.204 68.388 56.204C68.346 55.756 68.136 55.014 67.926 54.58C68.5 54.608 69.144 54.594 69.354 54.594C69.55 54.594 69.606 54.538 69.606 54.328V45.06H65.14V48.854C65.14 51.08 64.972 54.272 63.88 56.288C63.642 56.036 63.082 55.644 62.718 55.462H60.282V56.022H58.994V51.248H62.718V55.14C63.558 53.32 63.628 50.786 63.628 48.854V43.646H71.146ZM85.426 49.246V50.912H79.882V54.272C79.882 55.238 79.672 55.686 79 55.952C78.342 56.218 77.362 56.26 76.088 56.246C75.976 55.756 75.654 54.986 75.388 54.524C76.354 54.566 77.432 54.566 77.754 54.566C78.048 54.566 78.146 54.496 78.146 54.244V50.912H72.588V49.246H78.146V47.034H78.972C79.658 46.628 80.372 46.124 80.974 45.634H74.044V43.996H82.71L83.088 43.912L84.362 44.864C83.172 46.096 81.464 47.44 79.882 48.35V49.246H85.426ZM92.37 44.038C92.286 44.402 92.188 44.85 92.118 45.2C92.034 45.62 91.922 46.138 91.824 46.642C92.3 46.614 92.706 46.586 93 46.586C94.484 46.586 95.534 47.244 95.534 49.26C95.534 50.912 95.338 53.18 94.736 54.398C94.274 55.378 93.504 55.686 92.44 55.686C91.908 55.686 91.236 55.588 90.76 55.49L90.466 53.642C90.998 53.796 91.81 53.936 92.174 53.936C92.65 53.936 93 53.796 93.224 53.334C93.602 52.536 93.798 50.842 93.798 49.456C93.798 48.336 93.308 48.182 92.44 48.182C92.216 48.182 91.866 48.21 91.46 48.238C90.928 50.366 89.892 53.684 88.604 55.742L86.784 55.014C88.142 53.18 89.108 50.352 89.626 48.434C89.122 48.49 88.674 48.546 88.422 48.574C88.016 48.644 87.288 48.742 86.854 48.812L86.686 46.908C87.204 46.95 87.666 46.922 88.184 46.908C88.618 46.894 89.276 46.852 89.99 46.782C90.186 45.732 90.312 44.71 90.284 43.828L92.37 44.038ZM98.6 42.876C98.964 43.408 99.482 44.29 99.72 44.78L98.614 45.256C98.32 44.682 97.872 43.856 97.48 43.324L98.6 42.876ZM96.934 43.506C97.284 44.024 97.788 44.906 98.054 45.424L97.368 45.718C98.208 47.02 99.258 49.358 99.65 50.604L97.872 51.416C97.508 49.862 96.514 47.398 95.52 46.166L96.78 45.62C96.5 45.088 96.15 44.416 95.828 43.968L96.934 43.506ZM27.004 70.814H23.63C23.91 71.402 24.26 71.934 24.694 72.396C25.45 71.948 26.304 71.374 27.004 70.814ZM20.13 68.252V69.358H26.136V68.252H20.13ZM26.136 65.886H20.13V66.922H26.136V65.886ZM27.844 70.464L28.936 71.318C27.984 72.046 26.822 72.788 25.8 73.348C26.78 74.02 28.026 74.482 29.552 74.734C29.188 75.084 28.726 75.784 28.502 76.246C25.016 75.518 23.084 73.768 21.908 70.814H20.13V74.02C21.166 73.88 22.272 73.712 23.336 73.53L23.434 75.084C21.306 75.462 19.024 75.798 17.344 76.078L16.938 74.454C17.386 74.398 17.876 74.342 18.422 74.258V64.444H22.048V63.1H23.77V64.444H27.844V70.464ZM40.276 64.906C39.842 65.242 39.38 65.606 39.058 65.872C38.148 66.6 36.3 68.028 35.362 68.826C34.62 69.47 34.634 69.624 35.39 70.282C36.44 71.164 39.1 73.264 40.528 74.65L38.89 76.148C38.498 75.714 38.092 75.266 37.672 74.846C36.818 73.964 34.76 72.214 33.486 71.122C32.086 69.932 32.198 69.19 33.598 68.014C34.704 67.118 36.622 65.564 37.56 64.654C37.966 64.248 38.414 63.8 38.638 63.464L40.276 64.906ZM50.608 63.73C50.496 64.178 50.314 64.892 50.104 65.648C50.79 65.522 51.448 65.368 51.994 65.2L52.05 66.824C51.406 66.992 50.538 67.174 49.6 67.314C48.928 69.274 47.738 71.724 46.604 73.306L44.91 72.438C46.016 71.066 47.15 69.008 47.766 67.496C47.514 67.51 47.276 67.51 47.038 67.51C46.464 67.51 45.89 67.496 45.288 67.454L45.162 65.83C45.764 65.9 46.506 65.928 47.024 65.928C47.444 65.928 47.864 65.914 48.298 65.872C48.494 65.102 48.648 64.262 48.676 63.534L50.608 63.73ZM49.88 73.418C49.88 73.936 50.314 74.286 51.084 74.286C52.05 74.286 52.344 73.754 52.344 72.984C52.344 72.9 52.344 72.816 52.344 72.704C51.98 72.62 51.602 72.564 51.21 72.564C50.398 72.564 49.88 72.928 49.88 73.418ZM53.884 68.084C53.842 68.672 53.87 69.26 53.884 69.876C53.898 70.282 53.94 70.954 53.968 71.654C55.172 72.102 56.152 72.802 56.866 73.446L55.928 74.944C55.438 74.496 54.808 73.908 54.038 73.446C54.038 73.488 54.038 73.544 54.038 73.586C54.038 74.888 53.324 75.896 51.336 75.896C49.6 75.896 48.228 75.126 48.228 73.586C48.228 72.214 49.376 71.164 51.322 71.164C51.658 71.164 51.966 71.192 52.288 71.22C52.232 70.184 52.162 68.938 52.134 68.084H53.884ZM56.292 68.826C55.48 68.182 53.884 67.272 52.932 66.838L53.828 65.452C54.836 65.886 56.572 66.838 57.286 67.356L56.292 68.826ZM61.64 64.99C61.542 65.494 61.472 66.306 61.472 66.698C61.458 67.608 61.472 68.658 61.556 69.666C61.752 71.682 62.172 73.068 63.054 73.068C63.712 73.068 64.272 71.43 64.538 70.31L65.938 72.018C65.014 74.454 64.132 75.308 63.012 75.308C61.472 75.308 60.142 73.922 59.75 70.17C59.61 68.882 59.596 67.244 59.596 66.39C59.596 65.998 59.568 65.396 59.484 64.962L61.64 64.99ZM68.64 65.312C69.97 66.922 71.034 70.422 71.188 72.564L69.354 73.278C69.13 71.024 68.388 67.622 66.862 65.886L68.64 65.312ZM78.608 63.73C78.496 64.178 78.314 64.892 78.104 65.648C78.79 65.522 79.448 65.368 79.994 65.2L80.05 66.824C79.406 66.992 78.538 67.174 77.6 67.314C76.928 69.274 75.738 71.724 74.604 73.306L72.91 72.438C74.016 71.066 75.15 69.008 75.766 67.496C75.514 67.51 75.276 67.51 75.038 67.51C74.464 67.51 73.89 67.496 73.288 67.454L73.162 65.83C73.764 65.9 74.506 65.928 75.024 65.928C75.444 65.928 75.864 65.914 76.298 65.872C76.494 65.102 76.648 64.262 76.676 63.534L78.608 63.73ZM77.88 73.418C77.88 73.936 78.314 74.286 79.084 74.286C80.05 74.286 80.344 73.754 80.344 72.984C80.344 72.9 80.344 72.816 80.344 72.704C79.98 72.62 79.602 72.564 79.21 72.564C78.398 72.564 77.88 72.928 77.88 73.418ZM81.884 68.084C81.842 68.672 81.87 69.26 81.884 69.876C81.898 70.282 81.94 70.954 81.968 71.654C83.172 72.102 84.152 72.802 84.866 73.446L83.928 74.944C83.438 74.496 82.808 73.908 82.038 73.446C82.038 73.488 82.038 73.544 82.038 73.586C82.038 74.888 81.324 75.896 79.336 75.896C77.6 75.896 76.228 75.126 76.228 73.586C76.228 72.214 77.376 71.164 79.322 71.164C79.658 71.164 79.966 71.192 80.288 71.22C80.232 70.184 80.162 68.938 80.134 68.084H81.884ZM84.292 68.826C83.48 68.182 81.884 67.272 80.932 66.838L81.828 65.452C82.836 65.886 84.572 66.838 85.286 67.356L84.292 68.826ZM87.288 68.518C87.792 68.56 88.814 68.602 89.542 68.602H97.06C97.718 68.602 98.334 68.546 98.698 68.518V70.716C98.362 70.702 97.648 70.646 97.06 70.646H89.542C88.744 70.646 87.806 70.674 87.288 70.716V68.518Z" fill="black"/>
</svg>
