<svg width="117" height="117" viewBox="0 0 117 117" fill="none" xmlns="http://www.w3.org/2000/svg">
<circle cx="58.5" cy="58.5" r="58.5" transform="rotate(180 58.5 58.5)" fill="white"/>
<circle cx="14.5" cy="19.5" r="11.5" transform="rotate(180 14.5 19.5)" fill="white"/>
<path d="M13.814 34.262C14.276 34.332 14.85 34.36 15.312 34.36H20.94C21.416 34.36 21.976 34.332 22.452 34.262V36.068C21.976 36.04 21.43 36.012 20.94 36.012H15.326C14.836 36.012 14.248 36.04 13.814 36.068V34.262ZM12.19 37.846C12.61 37.888 13.1 37.93 13.534 37.93H22.704C22.998 37.93 23.614 37.902 23.978 37.846V39.666C23.628 39.638 23.096 39.624 22.704 39.624H19.33C19.246 41.066 18.938 42.242 18.434 43.222C17.944 44.188 16.866 45.28 15.62 45.91L13.982 44.72C14.976 44.342 15.956 43.53 16.516 42.718C17.09 41.85 17.328 40.8 17.384 39.624H13.534C13.114 39.624 12.582 39.652 12.19 39.68V37.846ZM28.374 34.36C29.354 35.018 31.174 36.474 31.986 37.328L30.558 38.784C29.83 38 28.08 36.474 27.058 35.76L28.374 34.36ZM26.624 43.684C28.808 43.376 30.628 42.662 31.986 41.85C34.38 40.436 36.2 38.294 37.082 36.404L38.174 38.378C37.11 40.268 35.248 42.2 32.994 43.558C31.58 44.412 29.774 45.196 27.8 45.532L26.624 43.684ZM43.326 33.912C44.25 34.416 45.79 35.41 46.518 35.914L45.468 37.468C44.684 36.922 43.228 35.97 42.304 35.452L43.326 33.912ZM40.722 43.852C42.29 43.586 43.97 43.124 45.496 42.284C47.876 40.954 49.822 39.036 50.942 37.034L52.02 38.938C50.718 40.87 48.744 42.648 46.448 43.964C45.02 44.776 43.018 45.476 41.772 45.7L40.722 43.852ZM41.17 37.104C42.108 37.608 43.648 38.574 44.362 39.078L43.34 40.646C42.542 40.1 41.086 39.148 40.148 38.658L41.17 37.104ZM55.982 37.09C56.346 37.132 57.2 37.16 57.718 37.16H63.01C63.346 37.16 63.864 37.146 64.088 37.132C64.074 37.314 64.074 37.776 64.074 38.07V45.098C64.074 45.322 64.088 45.798 64.088 46.05H62.324C62.338 45.924 62.338 45.7 62.338 45.49H57.032C56.64 45.49 56.066 45.518 55.828 45.532V43.81C56.066 43.838 56.542 43.866 57.046 43.866H62.338V42.004H57.872C57.34 42.004 56.668 42.018 56.346 42.032V40.38C56.71 40.408 57.34 40.422 57.872 40.422H62.338V38.728H57.718C57.2 38.728 56.318 38.756 55.982 38.784V37.09ZM70.374 34.36C71.354 35.018 73.174 36.474 73.986 37.328L72.558 38.784C71.83 38 70.08 36.474 69.058 35.76L70.374 34.36ZM68.624 43.684C70.808 43.376 72.628 42.662 73.986 41.85C76.38 40.436 78.2 38.294 79.082 36.404L80.174 38.378C79.11 40.268 77.248 42.2 74.994 43.558C73.58 44.412 71.774 45.196 69.8 45.532L68.624 43.684ZM87.804 33.772C87.734 34.122 87.636 34.584 87.454 35.172C88.784 35.102 90.184 34.976 91.416 34.766L91.402 36.39C90.072 36.586 88.35 36.698 86.838 36.74C86.6 37.258 86.32 37.762 86.04 38.168C86.404 38 87.16 37.888 87.622 37.888C88.476 37.888 89.176 38.252 89.484 38.966C90.212 38.63 90.8 38.392 91.374 38.14C91.92 37.902 92.41 37.678 92.928 37.412L93.628 39.036C93.18 39.162 92.438 39.442 91.962 39.624C91.332 39.876 90.534 40.184 89.68 40.576C89.694 41.36 89.722 42.396 89.736 43.04H88.056C88.098 42.62 88.112 41.948 88.126 41.332C87.076 41.934 86.516 42.48 86.516 43.18C86.516 43.95 87.174 44.16 88.546 44.16C89.736 44.16 91.29 44.006 92.522 43.768L92.466 45.574C91.542 45.7 89.82 45.812 88.504 45.812C86.306 45.812 84.682 45.28 84.682 43.474C84.682 41.682 86.362 40.562 87.958 39.736C87.748 39.386 87.37 39.26 86.978 39.26C86.194 39.26 85.326 39.708 84.794 40.226C84.374 40.646 83.968 41.15 83.492 41.766L81.994 40.646C83.464 39.288 84.458 38.042 85.088 36.782C85.018 36.782 84.962 36.782 84.906 36.782C84.332 36.782 83.31 36.754 82.54 36.698V35.06C83.254 35.172 84.29 35.228 85.004 35.228C85.214 35.228 85.452 35.228 85.676 35.228C85.83 34.668 85.928 34.122 85.956 33.618L87.804 33.772ZM18.448 63.852H24.37V65.532H11.644V63.852H16.656V53.31H18.448V57.314H23.39V59.008H18.448V63.852ZM35.5 54.15C35.472 54.458 35.458 54.794 35.458 55.116C35.444 55.41 35.444 56.138 35.444 56.922C36.284 56.852 37.068 56.768 37.684 56.656L37.67 58.476C37.068 58.546 36.298 58.602 35.458 58.658C35.458 58.882 35.458 59.092 35.458 59.232C35.458 62.536 35.206 64.566 32.42 66.344L30.796 65.07C31.342 64.832 32.042 64.384 32.434 63.95C33.498 62.83 33.736 61.584 33.736 59.218C33.736 59.078 33.736 58.91 33.736 58.728C33.26 58.742 32.77 58.742 32.308 58.742C31.692 58.742 30.838 58.7 30.138 58.658V56.894C30.824 56.992 31.51 57.034 32.266 57.034C32.728 57.034 33.218 57.02 33.708 57.006C33.694 56.236 33.666 55.494 33.638 55.116C33.61 54.78 33.54 54.374 33.484 54.15H35.5ZM28.696 54.388C28.584 54.738 28.43 55.242 28.374 55.536C28.024 57.09 27.52 60.03 27.898 61.766C28.08 61.332 28.346 60.646 28.57 60.142L29.452 60.702C29.032 61.906 28.668 63.32 28.486 64.104C28.444 64.328 28.402 64.636 28.402 64.79C28.416 64.944 28.43 65.182 28.444 65.378L26.876 65.532C26.568 64.692 26.078 62.732 26.078 60.996C26.078 58.7 26.358 56.544 26.54 55.396C26.596 55.018 26.61 54.542 26.624 54.192L28.696 54.388ZM36.606 53.66C36.872 54.22 37.194 55.088 37.348 55.62L36.382 55.942C36.186 55.34 35.934 54.528 35.654 53.954L36.606 53.66ZM38.048 53.212C38.314 53.772 38.65 54.64 38.818 55.172L37.866 55.48C37.656 54.878 37.376 54.08 37.096 53.52L38.048 53.212ZM39.994 55.368C40.554 55.354 41.1 55.326 41.38 55.298C42.542 55.2 44.852 54.99 47.414 54.766C48.856 54.654 50.396 54.556 51.376 54.528L51.39 56.32C50.634 56.334 49.43 56.334 48.688 56.502C46.994 56.95 45.734 58.77 45.734 60.436C45.734 62.732 47.89 63.572 50.256 63.698L49.598 65.616C46.672 65.42 43.9 63.838 43.9 60.814C43.9 58.798 45.034 57.202 45.972 56.488C44.656 56.628 41.8 56.936 40.176 57.286L39.994 55.368ZM55.8727 65.966C55.0187 64.916 53.8287 63.712 52.8627 62.872L54.3187 61.612C55.3127 62.424 56.6707 63.81 57.3707 64.678L55.8727 65.966ZM79.6727 58.154H76.7467C77.5447 60.142 78.7627 62.074 80.0927 63.222C79.6867 63.516 79.1267 64.118 78.8467 64.552C77.7547 63.474 76.7747 61.864 76.0187 60.1V66.218H74.3667V60.38C73.5547 62.074 72.5187 63.572 71.3847 64.622C71.1187 64.258 70.6287 63.726 70.2507 63.39V66.19H68.6127V59.078C68.2347 59.54 67.8567 59.974 67.4647 60.338C67.2967 59.932 66.7927 58.994 66.4987 58.588C67.9127 57.314 69.2567 55.298 70.0407 53.212L71.6927 53.744C71.3007 54.724 70.8107 55.746 70.2507 56.698V63.222C71.6367 62.088 72.8967 60.142 73.7087 58.154H70.8107V56.53H74.3667V53.366H76.0187V56.53H79.6727V58.154ZM84.1947 63.46H90.4107V60.324H84.1947V63.46ZM90.4107 55.662H84.1947V58.672H90.4107V55.662ZM82.4727 53.982H92.2027V66.022H90.4107V65.14H84.1947V66.05H82.4727V53.982ZM101.107 53.772C101.037 54.122 100.939 54.584 100.757 55.172C102.087 55.102 103.487 54.976 104.719 54.766L104.705 56.39C103.375 56.586 101.653 56.698 100.141 56.74C99.9027 57.258 99.6227 57.762 99.3427 58.168C99.7067 58 100.463 57.888 100.925 57.888C101.779 57.888 102.479 58.252 102.787 58.966C103.515 58.63 104.103 58.392 104.677 58.14C105.223 57.902 105.713 57.678 106.231 57.412L106.931 59.036C106.483 59.162 105.741 59.442 105.265 59.624C104.635 59.876 103.837 60.184 102.983 60.576C102.997 61.36 103.025 62.396 103.039 63.04H101.359C101.401 62.62 101.415 61.948 101.429 61.332C100.379 61.934 99.8187 62.48 99.8187 63.18C99.8187 63.95 100.477 64.16 101.849 64.16C103.039 64.16 104.593 64.006 105.825 63.768L105.769 65.574C104.845 65.7 103.123 65.812 101.807 65.812C99.6087 65.812 97.9847 65.28 97.9847 63.474C97.9847 61.682 99.6647 60.562 101.261 59.736C101.051 59.386 100.673 59.26 100.281 59.26C99.4967 59.26 98.6287 59.708 98.0967 60.226C97.6767 60.646 97.2707 61.15 96.7947 61.766L95.2967 60.646C96.7667 59.288 97.7607 58.042 98.3907 56.782C98.3207 56.782 98.2647 56.782 98.2087 56.782C97.6347 56.782 96.6127 56.754 95.8427 56.698V55.06C96.5567 55.172 97.5927 55.228 98.3067 55.228C98.5167 55.228 98.7547 55.228 98.9787 55.228C99.1327 54.668 99.2307 54.122 99.2587 53.618L101.107 53.772ZM15.088 76.054L13.87 77.132C13.464 76.488 12.526 75.578 11.7 74.962L12.848 74.01C13.66 74.57 14.64 75.424 15.088 76.054ZM14.78 77.314L15.228 78.644C14.262 79.246 13.17 79.904 12.288 80.394L11.462 79.022C12.302 78.644 13.548 77.972 14.78 77.314ZM16.81 77.916V78.868H19.106V77.916H16.81ZM19.106 76.726V75.802H16.81V76.726H19.106ZM24.23 82.508H20.184C21.346 83.404 22.998 84.16 24.58 84.58C24.23 84.916 23.726 85.574 23.474 85.98C21.836 85.434 20.114 84.44 18.826 83.264V86.19H17.146V83.222C15.886 84.468 14.178 85.49 12.54 86.092C12.274 85.658 11.77 85.028 11.42 84.692C12.988 84.258 14.612 83.446 15.774 82.508H11.784V81.066H17.146V80.142H15.27V74.528H16.922C17.048 74.066 17.16 73.534 17.216 73.142L19.064 73.338C18.91 73.758 18.742 74.164 18.602 74.528H20.73V75.928C21.402 75.354 22.242 74.486 22.746 73.828L24.174 74.682C23.432 75.494 22.536 76.32 21.822 76.88L20.73 76.152V77.888L21.346 77.188C22.382 77.692 23.838 78.532 24.552 79.106L23.53 80.352C22.928 79.82 21.738 79.05 20.73 78.49V80.142H18.826V81.066H24.23V82.508ZM30.194 73.898C30.11 74.486 30.04 75.2 30.012 75.76C29.956 77.272 29.844 80.408 29.844 82.144C29.844 83.558 30.684 84.02 31.776 84.02C34.086 84.02 35.556 82.69 36.564 81.164L37.838 82.704C36.942 84.048 34.954 85.924 31.762 85.924C29.466 85.924 27.982 84.916 27.982 82.522C27.982 80.646 28.122 76.964 28.122 75.76C28.122 75.102 28.066 74.43 27.94 73.87L30.194 73.898ZM44.6 73.674C44.516 74.08 44.46 74.598 44.46 75.424C45.272 75.326 46.126 75.172 46.966 74.934V76.614C46.14 76.81 45.258 76.936 44.46 77.006V78.84C44.726 79.204 44.866 79.694 44.866 80.254C44.866 81.136 44.642 82.004 44.138 82.62C44.138 82.816 44.138 83.012 44.138 83.18C44.138 83.782 44.292 84.09 45.944 84.09C46.644 84.09 47.554 84.006 48.086 83.838C48.814 83.628 49.122 83.152 49.122 82.438C49.122 81.878 49.108 81.36 49.01 80.702L50.956 81.29C50.956 82.018 50.97 82.354 50.928 82.928C50.858 84.202 50.48 84.986 48.856 85.476C48.226 85.686 46.77 85.784 45.818 85.784C42.556 85.784 42.416 84.748 42.416 83.768C42.416 83.67 42.416 83.572 42.416 83.474C42.346 83.488 42.276 83.488 42.192 83.488C41.17 83.488 40.134 82.76 40.134 80.968C40.134 79.316 41.198 78.07 42.724 78.07H42.78C42.78 77.762 42.78 77.44 42.78 77.118C42.682 77.118 42.584 77.118 42.486 77.118C41.884 77.118 41.128 77.09 40.204 77.006L40.106 75.368C40.876 75.48 41.702 75.55 42.36 75.55C42.5 75.55 42.64 75.55 42.78 75.55C42.78 75.508 42.78 75.466 42.78 75.438C42.78 74.556 42.752 74.08 42.64 73.674H44.6ZM49.304 74.962C50.172 75.508 51.642 76.88 52.272 77.636L51.012 78.924C50.256 78 48.926 76.712 48.128 76.124L49.304 74.962ZM42.374 81.808C43.018 81.808 43.27 81.122 43.27 80.338C43.27 79.792 43.004 79.47 42.612 79.47C42.052 79.47 41.604 80.016 41.604 80.842C41.604 81.458 41.968 81.808 42.374 81.808ZM56.01 74.276C56.444 74.318 56.864 74.332 57.34 74.332C57.942 74.332 60.56 74.206 61.428 74.108C61.876 74.066 62.198 73.996 62.394 73.94L63.5 75.228C63.192 75.41 62.688 75.76 62.394 75.998C61.4 76.796 60.014 77.958 59.062 78.7C60.938 78.518 63.248 78.364 64.97 78.364V80.016C63.626 79.946 62.226 79.932 61.372 80.044C60.084 80.226 59.006 81.136 59.006 82.284C59.006 83.39 59.888 83.824 61.134 83.964C61.904 84.048 62.744 84.034 63.262 83.992L62.898 85.84C59.3 85.994 57.228 84.916 57.228 82.578C57.228 81.71 57.718 80.842 58.236 80.366C56.962 80.464 55.394 80.688 53.994 80.926L53.826 79.232C54.568 79.162 55.548 79.036 56.276 78.952C57.536 78.126 59.356 76.544 60.224 75.774C59.636 75.816 57.928 75.9 57.354 75.942C57.004 75.97 56.542 76.026 56.094 76.068L56.01 74.276ZM63.402 76.026C63.738 76.53 64.088 77.132 64.354 77.692L63.29 78.154C63.01 77.538 62.758 77.048 62.366 76.474L63.402 76.026ZM64.942 75.396C65.278 75.858 65.698 76.516 65.964 77.034L64.914 77.51C64.62 76.908 64.298 76.362 63.92 75.872L64.942 75.396ZM73.286 81.402L72.908 76.614L72.838 74.528H75.162L75.092 76.614L74.714 81.402H73.286ZM74 85.126C73.286 85.126 72.768 84.622 72.768 83.894C72.768 83.152 73.3 82.648 74 82.648C74.7 82.648 75.232 83.152 75.232 83.894C75.232 84.622 74.7 85.126 74 85.126Z" fill="black"/>
</svg>
