<svg width="117" height="117" viewBox="0 0 117 117" fill="none" xmlns="http://www.w3.org/2000/svg">
<circle cx="58.5" cy="58.5" r="58.5" transform="matrix(1 0 0 -1 0 117)" fill="white"/>
<circle cx="11.5" cy="11.5" r="11.5" transform="matrix(1 0 0 -1 91 31)" fill="white"/>
<path d="M17.584 35.256H16.394V36.67H17.584V35.256ZM16.394 38.07V39.526H17.584V38.07H16.394ZM16.394 42.41H17.584V40.926H16.394V42.41ZM19.124 43.866H16.394V45H14.896V33.8H19.124V43.866ZM21.616 41.864H22.568V40.324H21.616V41.864ZM21.616 37.51V38.896H22.568V37.51H21.616ZM25.116 37.51H24.094V38.896H25.116V37.51ZM25.116 41.864V40.324H24.094V41.864H25.116ZM24.094 44.538H27.552V45.966H19.082V44.538H22.568V43.222H19.474V41.864H20.272V40.324H19.278V38.896H20.272V37.51H19.488V36.152H22.568V35.116C21.672 35.186 20.762 35.228 19.922 35.242C19.88 34.878 19.684 34.304 19.516 33.954C21.84 33.856 24.486 33.604 26.068 33.184L27.188 34.43C26.278 34.668 25.214 34.836 24.094 34.962V36.152H27.3V37.51H26.488V38.896H27.538V40.324H26.488V41.864H27.328V43.222H24.094V44.538ZM31.696 35.256H30.45V36.656H31.696V35.256ZM30.45 38.056V39.526H31.696V38.056H30.45ZM30.45 42.424H31.696V40.926H30.45V42.424ZM33.236 43.894H30.45V45.014H28.896V33.786H33.236V43.894ZM35.798 39.624H37.31C37.282 39.12 37.24 38.616 37.226 38.098H35.798V39.624ZM39.522 35.2H35.798V36.614H39.522V35.2ZM41.454 41.15H39.032C39.312 43.166 39.774 44.608 40.194 44.608C40.39 44.608 40.502 43.964 40.53 42.718C40.866 43.026 41.398 43.348 41.804 43.488C41.608 45.658 41.104 46.148 40.068 46.148C38.696 46.134 37.87 44.02 37.478 41.15H35.798V43.964C36.442 43.852 37.128 43.74 37.8 43.614L37.926 45.07C36.358 45.42 34.692 45.756 33.39 46.022L32.942 44.426C33.32 44.37 33.754 44.3 34.216 44.23V33.73H41.146V38.098H38.808C38.822 38.616 38.85 39.134 38.878 39.624H41.454V41.15ZM45.738 35.48H44.45V37.944H45.738V35.48ZM44.45 42.032H45.738V39.4H44.45V42.032ZM47.292 33.996V43.516H44.45V44.748H42.91V33.996H47.292ZM48.118 42.34L49.448 41.57C50.092 42.256 50.848 43.18 51.142 43.866L49.714 44.692C49.462 44.048 48.748 43.054 48.118 42.34ZM55.524 38.756H54.082V39.96H55.426V41.402H54.082V44.454C54.082 45.252 53.928 45.672 53.382 45.924C52.836 46.162 52.08 46.204 51.044 46.204C50.988 45.742 50.736 45.084 50.512 44.636C51.184 44.664 51.968 44.664 52.178 44.664C52.402 44.664 52.472 44.608 52.472 44.412V41.402H47.558V39.96H52.472V38.756H47.53V37.3H50.694V36.068H48.006V34.612H50.694V33.142H52.332V34.612H55.132V36.068H52.332V37.3H55.524V38.756ZM60.942 34.878H58.786V35.62H60.942V34.878ZM58.786 37.538H60.942V36.74H58.786V37.538ZM62.496 38.728H58.786V46.218H57.134V33.674H62.496V38.728ZM65.044 37.566H67.27V36.74H65.044V37.566ZM67.27 34.878H65.044V35.62H67.27V34.878ZM61.81 43.698H64.12V42.83H61.81V43.698ZM64.12 41.64V40.8H61.81V41.64H64.12ZM68.95 33.674V44.244C68.95 45.14 68.768 45.63 68.208 45.896C67.662 46.176 66.85 46.218 65.646 46.218C65.604 45.868 65.45 45.35 65.282 44.916H61.81V45.63H60.298V39.582H60.984V39.568L65.688 39.582V44.538C66.234 44.552 66.752 44.552 66.934 44.538C67.186 44.538 67.27 44.454 67.27 44.23V38.756H63.462V33.674H68.95ZM76.37 34.038C76.286 34.402 76.188 34.85 76.118 35.2C76.034 35.62 75.922 36.138 75.824 36.642C76.3 36.614 76.706 36.586 77 36.586C78.484 36.586 79.534 37.244 79.534 39.26C79.534 40.912 79.338 43.18 78.736 44.398C78.274 45.378 77.504 45.686 76.44 45.686C75.908 45.686 75.236 45.588 74.76 45.49L74.466 43.642C74.998 43.796 75.81 43.936 76.174 43.936C76.65 43.936 77 43.796 77.224 43.334C77.602 42.536 77.798 40.842 77.798 39.456C77.798 38.336 77.308 38.182 76.44 38.182C76.216 38.182 75.866 38.21 75.46 38.238C74.928 40.366 73.892 43.684 72.604 45.742L70.784 45.014C72.142 43.18 73.108 40.352 73.626 38.434C73.122 38.49 72.674 38.546 72.422 38.574C72.016 38.644 71.288 38.742 70.854 38.812L70.686 36.908C71.204 36.95 71.666 36.922 72.184 36.908C72.618 36.894 73.276 36.852 73.99 36.782C74.186 35.732 74.312 34.71 74.284 33.828L76.37 34.038ZM82.6 32.876C82.964 33.408 83.482 34.29 83.72 34.78L82.614 35.256C82.32 34.682 81.872 33.856 81.48 33.324L82.6 32.876ZM80.934 33.506C81.284 34.024 81.788 34.906 82.054 35.424L81.368 35.718C82.208 37.02 83.258 39.358 83.65 40.604L81.872 41.416C81.508 39.862 80.514 37.398 79.52 36.166L80.78 35.62C80.5 35.088 80.15 34.416 79.828 33.968L80.934 33.506ZM20.776 55.466V64.678C21.7 64.16 22.512 63.404 23.198 62.452C22.344 60.898 21.742 59.022 21.308 56.908L22.904 56.586C23.184 58.084 23.604 59.498 24.192 60.73C24.738 59.526 25.158 58.126 25.396 56.558H21.266V55.466H20.776ZM17.178 61.178V62.704C17.822 62.62 18.494 62.522 19.166 62.438V61.178H17.178ZM17.178 58.294V59.694H19.166V58.294H17.178ZM19.166 55.466H17.178V56.796H19.166V55.466ZM26.138 54.878L27.23 55.144C26.936 58.196 26.264 60.604 25.214 62.48C25.9 63.418 26.74 64.202 27.748 64.748C27.37 65.056 26.852 65.686 26.6 66.12C25.648 65.546 24.864 64.832 24.192 63.978C23.478 64.846 22.652 65.546 21.7 66.12C21.49 65.756 21.112 65.238 20.776 64.902V66.218H19.166V63.978C17.556 64.258 15.918 64.51 14.63 64.706L14.308 63.04C14.686 62.998 15.12 62.956 15.596 62.9V55.466H14.644V53.926H21.672V54.92H25.858L26.138 54.878ZM31.808 54.906C31.808 54.5 31.822 54.08 31.752 53.646L33.796 53.716C33.712 54.108 33.586 54.822 33.488 55.69L34.006 56.362C33.81 56.614 33.53 57.076 33.292 57.44C33.278 57.538 33.278 57.636 33.264 57.748C34.37 56.782 35.98 55.648 37.338 55.648C38.85 55.648 39.536 56.544 39.536 57.72C39.536 59.176 39.074 61.234 39.074 62.676C39.074 63.04 39.256 63.306 39.606 63.306C40.124 63.306 40.782 62.942 41.426 62.298L41.65 64.272C41.006 64.874 40.152 65.308 39.018 65.308C37.968 65.308 37.268 64.552 37.268 63.194C37.268 61.682 37.772 59.624 37.772 58.35C37.772 57.664 37.408 57.314 36.82 57.314C35.784 57.314 34.272 58.602 33.124 59.862C33.11 60.254 33.096 60.632 33.096 60.996C33.096 62.144 33.096 63.32 33.18 64.636C33.194 64.888 33.236 65.392 33.278 65.714H31.346C31.374 65.392 31.388 64.902 31.388 64.678C31.416 63.586 31.43 62.774 31.444 61.598C30.856 62.48 30.17 63.502 29.68 64.16L28.574 62.634C29.372 61.654 30.772 59.806 31.57 58.63C31.598 58.308 31.626 57.972 31.64 57.636C30.954 57.72 29.876 57.86 29.092 57.972L28.91 56.18C29.316 56.194 29.638 56.194 30.128 56.166C30.534 56.138 31.15 56.068 31.752 55.984C31.78 55.452 31.808 55.06 31.808 54.906ZM48.608 53.73C48.496 54.178 48.314 54.892 48.104 55.648C48.79 55.522 49.448 55.368 49.994 55.2L50.05 56.824C49.406 56.992 48.538 57.174 47.6 57.314C46.928 59.274 45.738 61.724 44.604 63.306L42.91 62.438C44.016 61.066 45.15 59.008 45.766 57.496C45.514 57.51 45.276 57.51 45.038 57.51C44.464 57.51 43.89 57.496 43.288 57.454L43.162 55.83C43.764 55.9 44.506 55.928 45.024 55.928C45.444 55.928 45.864 55.914 46.298 55.872C46.494 55.102 46.648 54.262 46.676 53.534L48.608 53.73ZM47.88 63.418C47.88 63.936 48.314 64.286 49.084 64.286C50.05 64.286 50.344 63.754 50.344 62.984C50.344 62.9 50.344 62.816 50.344 62.704C49.98 62.62 49.602 62.564 49.21 62.564C48.398 62.564 47.88 62.928 47.88 63.418ZM51.884 58.084C51.842 58.672 51.87 59.26 51.884 59.876C51.898 60.282 51.94 60.954 51.968 61.654C53.172 62.102 54.152 62.802 54.866 63.446L53.928 64.944C53.438 64.496 52.808 63.908 52.038 63.446C52.038 63.488 52.038 63.544 52.038 63.586C52.038 64.888 51.324 65.896 49.336 65.896C47.6 65.896 46.228 65.126 46.228 63.586C46.228 62.214 47.376 61.164 49.322 61.164C49.658 61.164 49.966 61.192 50.288 61.22C50.232 60.184 50.162 58.938 50.134 58.084H51.884ZM54.292 58.826C53.48 58.182 51.884 57.272 50.932 56.838L51.828 55.452C52.836 55.886 54.572 56.838 55.286 57.356L54.292 58.826ZM59.64 54.99C59.542 55.494 59.472 56.306 59.472 56.698C59.458 57.608 59.472 58.658 59.556 59.666C59.752 61.682 60.172 63.068 61.054 63.068C61.712 63.068 62.272 61.43 62.538 60.31L63.938 62.018C63.014 64.454 62.132 65.308 61.012 65.308C59.472 65.308 58.142 63.922 57.75 60.17C57.61 58.882 57.596 57.244 57.596 56.39C57.596 55.998 57.568 55.396 57.484 54.962L59.64 54.99ZM66.64 55.312C67.97 56.922 69.034 60.422 69.188 62.564L67.354 63.278C67.13 61.024 66.388 57.622 64.862 55.886L66.64 55.312ZM80.892 53.87C80.85 54.178 80.836 54.514 80.822 54.822C80.822 55.116 80.822 55.844 80.822 56.614C81.606 56.558 82.348 56.474 82.922 56.362L82.908 58.182C82.348 58.252 81.62 58.308 80.836 58.35C80.836 58.588 80.836 58.798 80.836 58.938C80.836 62.242 80.584 64.272 77.784 66.05L76.174 64.776C76.706 64.538 77.406 64.09 77.798 63.656C78.876 62.536 79.1 61.29 79.1 58.924C79.1 58.784 79.1 58.616 79.1 58.42C78.568 58.434 78.05 58.448 77.532 58.448C76.93 58.448 76.062 58.406 75.376 58.378V56.6C76.062 56.698 76.748 56.754 77.49 56.754C77.994 56.754 78.54 56.74 79.072 56.726C79.058 55.942 79.044 55.214 79.016 54.836C78.988 54.486 78.918 54.094 78.862 53.87H80.892ZM73.934 54.108C73.808 54.444 73.668 54.948 73.598 55.242C73.248 56.796 72.758 59.736 73.136 61.472C73.318 61.038 73.57 60.366 73.808 59.848L74.676 60.408C74.27 61.612 73.892 63.026 73.724 63.824C73.668 64.034 73.64 64.342 73.64 64.51C73.64 64.65 73.654 64.888 73.668 65.084L72.114 65.238C71.806 64.398 71.316 62.438 71.316 60.702C71.316 58.406 71.596 56.25 71.764 55.116C71.834 54.724 71.848 54.248 71.862 53.898L73.934 54.108ZM88.228 54.052C88.76 55.508 89.404 56.852 89.978 57.93C91 57.328 91.994 56.824 92.652 56.446C93.17 56.152 93.576 55.9 93.954 55.606L94.836 57.258C94.388 57.51 93.94 57.748 93.436 58C92.554 58.434 91.252 59.05 89.964 59.876C88.802 60.646 88.018 61.444 88.018 62.424C88.018 63.432 88.998 63.964 90.944 63.964C92.372 63.964 94.262 63.74 95.508 63.46L95.48 65.462C94.29 65.672 92.806 65.826 90.986 65.826C88.2 65.826 86.086 65.042 86.086 62.62C86.086 61.08 87.066 59.932 88.41 58.938C87.766 57.748 87.094 56.236 86.464 54.766L88.228 54.052ZM94.99 53.842C95.34 54.346 95.844 55.242 96.11 55.76L94.976 56.236C94.696 55.662 94.262 54.836 93.884 54.29L94.99 53.842ZM96.656 53.198C97.02 53.73 97.538 54.626 97.79 55.116L96.67 55.592C96.376 55.004 95.928 54.192 95.55 53.66L96.656 53.198ZM25.396 78.154V77.272H22.274V78.154H25.396ZM25.396 80.17V79.288H22.274V80.17H25.396ZM25.396 82.228V81.332H22.274V82.228H25.396ZM20.762 76.04H22.778C22.834 75.732 22.876 75.41 22.918 75.102H20.258V73.702H27.454V75.102H24.738C24.64 75.424 24.542 75.746 24.444 76.04H26.992V83.432H20.762V76.04ZM19.894 73.73V75.256H15.134V73.73H19.894ZM20.314 82.2L20.594 83.46C19.628 83.908 18.62 84.342 17.738 84.72L17.164 83.278C17.36 83.222 17.584 83.152 17.822 83.068V78.56H17.024V79.89C17.024 81.458 16.814 83.866 15.33 85.406C15.092 85.112 14.588 84.608 14.238 84.384C15.414 83.082 15.54 81.136 15.54 79.862V78.56H14.658V77.02H20.342V78.56H19.278V82.564L20.314 82.2ZM22.106 83.446L23.478 84.314C22.708 85.056 21.406 85.84 20.3 86.26C20.034 85.952 19.544 85.462 19.194 85.182C20.272 84.79 21.504 84.048 22.106 83.446ZM24.122 84.356L25.354 83.516C26.124 84.034 27.188 84.79 27.734 85.322L26.418 86.246C25.942 85.728 24.906 84.916 24.122 84.356ZM40.152 80.982L41.524 81.724C40.88 82.284 40.18 82.844 39.578 83.278C40.152 83.936 40.866 84.454 41.762 84.776C41.398 85.112 40.908 85.784 40.684 86.232C38.612 85.294 37.506 83.418 36.862 80.94H36.162V84.132C36.778 84.062 37.408 83.978 38.038 83.894L38.108 85.336C36.582 85.588 34.972 85.812 33.712 85.994L33.46 84.44L34.566 84.314V80.94H33.53V80.548C33.334 83.782 33.124 85.14 32.718 85.63C32.41 85.98 32.074 86.12 31.626 86.176C31.262 86.232 30.604 86.232 29.946 86.218C29.918 85.742 29.736 85.084 29.47 84.664C30.044 84.706 30.562 84.72 30.828 84.72C31.038 84.72 31.178 84.692 31.318 84.552C31.528 84.286 31.696 83.432 31.836 81.402H30.156L30.1 81.808L28.546 81.64C28.784 80.422 29.05 78.518 29.176 77.02H31.808V75.368H28.784V73.842H33.32V78.56H30.52C30.464 79.022 30.408 79.47 30.352 79.918H33.53V79.484H34.524V73.618H40.824V75.018H36.12V75.718H40.292V76.88H36.12V77.58H40.292V78.742H36.12V79.484H41.538V80.94H38.304C38.472 81.416 38.668 81.878 38.892 82.284C39.368 81.864 39.844 81.374 40.152 80.982ZM47.054 73.758C46.858 74.444 46.578 75.886 46.494 76.67C47.166 75.578 48.384 74.402 49.966 74.402C51.912 74.402 53.424 76.306 53.424 79.386C53.424 83.348 51.002 85.238 47.292 85.91L46.228 84.286C49.336 83.81 51.534 82.788 51.534 79.4C51.534 77.244 50.806 76.04 49.63 76.04C47.978 76.04 46.536 78.518 46.466 80.366C46.438 80.744 46.452 81.192 46.536 81.85L44.814 81.962C44.73 81.416 44.632 80.562 44.632 79.624C44.632 78.322 44.828 76.586 45.024 75.144C45.094 74.612 45.136 74.052 45.136 73.674L47.054 73.758ZM64.218 81.584C64.106 81.976 64.022 82.438 64.022 82.746C64.022 83.362 64.442 83.824 65.94 83.824C66.878 83.824 67.844 83.712 68.852 83.53L68.782 85.322C67.998 85.42 67.046 85.518 65.926 85.518C63.574 85.518 62.3 84.706 62.3 83.292C62.3 82.648 62.44 81.976 62.552 81.416L64.218 81.584ZM62.636 73.828C62.524 74.206 62.398 74.836 62.342 75.144C62.314 75.298 62.272 75.48 62.23 75.676C63.014 75.564 63.798 75.41 64.568 75.228V76.978C63.728 77.174 62.776 77.328 61.838 77.44C61.712 78.042 61.572 78.658 61.418 79.232C60.914 81.192 59.976 84.048 59.192 85.714L57.246 85.056C58.086 83.656 59.15 80.716 59.668 78.756C59.766 78.378 59.878 77.986 59.962 77.58C59.64 77.594 59.332 77.608 59.038 77.608C58.366 77.608 57.834 77.58 57.344 77.552L57.302 75.802C58.016 75.886 58.492 75.914 59.066 75.914C59.472 75.914 59.892 75.9 60.326 75.872C60.382 75.564 60.424 75.298 60.452 75.074C60.508 74.556 60.536 73.982 60.494 73.66L62.636 73.828ZM63.462 78.056C64.246 77.986 65.254 77.916 66.15 77.916C66.948 77.916 67.788 77.958 68.614 78.042L68.572 79.722C67.872 79.638 67.018 79.554 66.164 79.554C65.212 79.554 64.344 79.596 63.462 79.694V78.056ZM73.64 74.99C73.542 75.494 73.472 76.306 73.472 76.698C73.458 77.608 73.472 78.658 73.556 79.666C73.752 81.682 74.172 83.068 75.054 83.068C75.712 83.068 76.272 81.43 76.538 80.31L77.938 82.018C77.014 84.454 76.132 85.308 75.012 85.308C73.472 85.308 72.142 83.922 71.75 80.17C71.61 78.882 71.596 77.244 71.596 76.39C71.596 75.998 71.568 75.396 71.484 74.962L73.64 74.99ZM80.64 75.312C81.97 76.922 83.034 80.422 83.188 82.564L81.354 83.278C81.13 81.024 80.388 77.622 78.862 75.886L80.64 75.312ZM86.338 78.546C86.968 78.546 87.472 79.05 87.472 79.68C87.472 80.31 86.968 80.814 86.338 80.814C85.708 80.814 85.204 80.31 85.204 79.68C85.204 79.05 85.708 78.546 86.338 78.546ZM91 78.546C91.63 78.546 92.134 79.05 92.134 79.68C92.134 80.31 91.63 80.814 91 80.814C90.37 80.814 89.866 80.31 89.866 79.68C89.866 79.05 90.37 78.546 91 78.546ZM95.662 78.546C96.292 78.546 96.796 79.05 96.796 79.68C96.796 80.31 96.292 80.814 95.662 80.814C95.032 80.814 94.528 80.31 94.528 79.68C94.528 79.05 95.032 78.546 95.662 78.546ZM104.286 81.402L103.908 76.614L103.838 74.528H106.162L106.092 76.614L105.714 81.402H104.286ZM105 85.126C104.286 85.126 103.768 84.622 103.768 83.894C103.768 83.152 104.3 82.648 105 82.648C105.7 82.648 106.232 83.152 106.232 83.894C106.232 84.622 105.7 85.126 105 85.126Z" fill="black"/>
</svg>
