<svg width="28" height="437" viewBox="0 0 28 437" fill="none" xmlns="http://www.w3.org/2000/svg">
<path d="M-2.76955e-07 4.336C-2.42336e-07 3.544 0.192 2.812 0.576 2.14C0.96 1.492 1.476 0.975999 2.124 0.591999C2.796 0.207999 3.528 0.0159991 4.32 0.0159991L21.6 0.0159999C22.392 0.0159999 23.112 0.208 23.76 0.592C24.432 0.976 24.96 1.492 25.344 2.14C25.728 2.812 25.92 3.544 25.92 4.336L25.92 21.616C25.92 22.408 25.728 23.128 25.344 23.776C24.96 24.448 24.432 24.976 23.76 25.36C23.112 25.744 22.392 25.936 21.6 25.936L20.556 25.936L20.556 23.02L21.6 23.02C21.984 23.02 22.308 22.876 22.572 22.588C22.86 22.324 23.004 22 23.004 21.616L23.004 4.336C23.004 3.952 22.86 3.616 22.572 3.328C22.308 3.064 21.984 2.932 21.6 2.932L4.32 2.932C3.936 2.932 3.6 3.064 3.312 3.328C3.048 3.616 2.916 3.952 2.916 4.336L2.916 21.616C2.916 22 3.048 22.324 3.312 22.588C3.6 22.876 3.936 23.02 4.32 23.02L10.728 23.02L10.728 16.612L13.68 16.612L13.68 25.936L4.32 25.936C3.528 25.936 2.796 25.744 2.124 25.36C1.476 24.976 0.959999 24.448 0.575999 23.776C0.191999 23.128 -1.06691e-06 22.408 -1.03229e-06 21.616L-2.76955e-07 4.336ZM-1.54541e-06 33.3548L16.524 33.3548C17.316 33.3548 18.036 33.5468 18.684 33.9308C19.356 34.3388 19.884 34.8668 20.268 35.5148C20.676 36.1868 20.88 36.9188 20.88 37.7108L20.88 49.4468L17.928 49.4468L17.928 37.7108C17.928 37.3268 17.784 36.9908 17.496 36.7028C17.232 36.4388 16.908 36.3068 16.524 36.3068L-1.67444e-06 36.3068L-1.54541e-06 33.3548ZM-2.69685e-06 59.6967C-2.66223e-06 58.9047 0.191997 58.1727 0.575997 57.5007C0.983997 56.8527 1.512 56.3247 2.16 55.9167C2.832 55.5327 3.564 55.3407 4.356 55.3407L16.524 55.3407C17.316 55.3407 18.036 55.5327 18.684 55.9167C19.356 56.3247 19.884 56.8527 20.268 57.5007C20.676 58.1727 20.88 58.9047 20.88 59.6967L20.88 72.2247C20.88 73.0407 20.676 73.7727 20.268 74.4207C19.884 75.0927 19.356 75.6207 18.684 76.0047C18.036 76.4127 17.316 76.6167 16.524 76.6167L8.964 76.6167L8.964 58.2927L4.356 58.2927C3.972 58.2927 3.636 58.4247 3.348 58.6887C3.084 58.9767 2.952 59.3127 2.952 59.6967L2.952 76.6167L-3.43644e-06 76.6167L-2.69685e-06 59.6967ZM11.916 58.2927L11.916 73.6287L16.524 73.6287C16.908 73.6287 17.232 73.4847 17.496 73.1967C17.784 72.9327 17.928 72.6087 17.928 72.2247L17.928 59.6967C17.928 59.3127 17.784 58.9767 17.496 58.6887C17.232 58.4247 16.908 58.2927 16.524 58.2927L11.916 58.2927ZM-3.9207e-06 87.6951C-3.88608e-06 86.9031 0.191996 86.1711 0.575996 85.4991C0.983996 84.8511 1.512 84.3231 2.16 83.9151C2.832 83.5311 3.564 83.3391 4.356 83.3391L16.524 83.3391C17.316 83.3391 18.036 83.5311 18.684 83.9151C19.356 84.3231 19.884 84.8511 20.268 85.4991C20.676 86.1711 20.88 86.9031 20.88 87.6951L20.88 100.223C20.88 101.039 20.676 101.771 20.268 102.419C19.884 103.091 19.356 103.619 18.684 104.003C18.036 104.411 17.316 104.615 16.524 104.615L8.964 104.615L8.964 86.2911L4.356 86.2911C3.972 86.2911 3.636 86.4231 3.348 86.6871C3.084 86.9751 2.952 87.3111 2.952 87.6951L2.952 104.615L-4.6603e-06 104.615L-3.9207e-06 87.6951ZM11.916 86.2911L11.916 101.627L16.524 101.627C16.908 101.627 17.232 101.483 17.496 101.195C17.784 100.931 17.928 100.607 17.928 100.223L17.928 87.6951C17.928 87.3111 17.784 86.9751 17.496 86.6871C17.232 86.4231 16.908 86.2911 16.524 86.2911L11.916 86.2911ZM-4.98191e-06 111.973L20.88 111.973L20.88 128.893C20.88 129.685 20.676 130.405 20.268 131.053C19.884 131.725 19.356 132.253 18.684 132.637C18.036 133.045 17.316 133.249 16.524 133.249L-5.91192e-06 133.249L-5.78288e-06 130.297L16.524 130.297C16.908 130.297 17.232 130.153 17.496 129.865C17.784 129.601 17.928 129.277 17.928 128.893L17.928 116.365C17.928 115.981 17.784 115.645 17.496 115.357C17.232 115.069 16.908 114.925 16.524 114.925L-5.11095e-06 114.925L-4.98191e-06 111.973ZM-6.82737e-06 154.192L25.92 154.192L25.92 177.844L23.004 177.844L23.004 157.108L14.436 157.108L14.436 173.776L11.484 173.776L11.484 157.108L-6.95483e-06 157.108L-6.82737e-06 154.192ZM-8.30444e-06 187.984C-8.26982e-06 187.192 0.191992 186.46 0.575992 185.788C0.983992 185.14 1.51199 184.612 2.15999 184.204C2.83199 183.82 3.56399 183.628 4.35599 183.628L20.88 183.628L20.88 186.58L4.35599 186.58C3.97199 186.58 3.63599 186.712 3.34799 186.976C3.08399 187.264 2.95199 187.6 2.95199 187.984L2.95199 200.512C2.95199 200.896 3.08399 201.232 3.34799 201.52C3.63599 201.808 3.97199 201.952 4.35599 201.952L20.88 201.952L20.88 204.904L4.35599 204.904C3.56399 204.904 2.83199 204.7 2.15999 204.292C1.51199 203.908 0.983991 203.38 0.575991 202.708C0.191991 202.06 -8.88773e-06 201.328 -8.85206e-06 200.512L-8.30444e-06 187.984ZM-9.52504e-06 215.907C-9.49042e-06 215.115 0.191991 214.383 0.575991 213.711C0.983991 213.063 1.51199 212.535 2.15999 212.127C2.83199 211.743 3.56399 211.551 4.35599 211.551L4.64399 211.551L4.64399 214.503L4.35599 214.503C3.97199 214.503 3.63599 214.635 3.34799 214.899C3.08399 215.187 2.95199 215.523 2.95199 215.907L2.95199 228.435C2.95199 228.819 3.08399 229.143 3.34799 229.407C3.63599 229.695 3.97199 229.839 4.35599 229.839L7.55999 229.839C7.94399 229.839 8.26799 229.695 8.53199 229.407C8.81999 229.143 8.96399 228.819 8.96399 228.435L8.96399 215.907C8.96399 215.115 9.15599 214.383 9.53999 213.711C9.94799 213.063 10.476 212.535 11.124 212.127C11.796 211.743 12.528 211.551 13.32 211.551L16.524 211.551C17.316 211.551 18.036 211.743 18.684 212.127C19.356 212.535 19.884 213.063 20.268 213.711C20.676 214.383 20.88 215.115 20.88 215.907L20.88 228.435C20.88 229.251 20.676 229.983 20.268 230.631C19.884 231.303 19.356 231.831 18.684 232.215C18.036 232.623 17.316 232.827 16.524 232.827L16.236 232.827L16.236 229.839L16.524 229.839C16.908 229.839 17.232 229.695 17.496 229.407C17.784 229.143 17.928 228.819 17.928 228.435L17.928 215.907C17.928 215.523 17.784 215.187 17.496 214.899C17.232 214.635 16.908 214.503 16.524 214.503L13.32 214.503C12.936 214.503 12.6 214.635 12.312 214.899C12.048 215.187 11.916 215.523 11.916 215.907L11.916 228.435C11.916 229.251 11.712 229.983 11.304 230.631C10.92 231.303 10.392 231.831 9.71999 232.215C9.07199 232.623 8.35199 232.827 7.55999 232.827L4.35599 232.827C3.56399 232.827 2.83199 232.623 2.15999 232.215C1.51199 231.831 0.98399 231.303 0.57599 230.631C0.19199 229.983 -1.01083e-05 229.251 -1.00727e-05 228.435L-9.52504e-06 215.907ZM-1.05771e-05 239.975L20.88 239.975L20.88 242.927L-1.07061e-05 242.927L-1.05771e-05 239.975ZM24.768 239.975L27.72 239.975L27.72 242.927L24.768 242.927L24.768 239.975ZM-1.12506e-05 255.383C-1.1216e-05 254.591 0.191989 253.859 0.575989 253.187C0.983989 252.539 1.51199 252.011 2.15999 251.603C2.83199 251.219 3.56399 251.027 4.35599 251.027L16.524 251.027C17.316 251.027 18.036 251.219 18.684 251.603C19.356 252.011 19.884 252.539 20.268 253.187C20.676 253.859 20.88 254.591 20.88 255.383L20.88 267.911C20.88 268.727 20.676 269.459 20.268 270.107C19.884 270.779 19.356 271.307 18.684 271.691C18.036 272.099 17.316 272.303 16.524 272.303L4.35599 272.303C3.56399 272.303 2.83199 272.099 2.15999 271.691C1.51199 271.307 0.983988 270.779 0.575988 270.107C0.191988 269.459 -1.18339e-05 268.727 -1.17982e-05 267.911L-1.12506e-05 255.383ZM2.95199 255.383L2.95199 267.911C2.95199 268.295 3.08399 268.619 3.34799 268.883C3.63599 269.171 3.97199 269.315 4.35599 269.315L16.524 269.315C16.908 269.315 17.232 269.171 17.496 268.883C17.784 268.619 17.928 268.295 17.928 267.911L17.928 255.383C17.928 254.999 17.784 254.663 17.496 254.375C17.232 254.111 16.908 253.979 16.524 253.979L4.35599 253.979C3.97199 253.979 3.63599 254.111 3.34799 254.375C3.08399 254.663 2.95199 254.999 2.95199 255.383ZM-1.22888e-05 279.134L20.88 279.134L20.88 296.054C20.88 296.846 20.676 297.566 20.268 298.214C19.884 298.886 19.356 299.414 18.684 299.798C18.036 300.206 17.316 300.41 16.524 300.41L-1.32188e-05 300.41L-1.30897e-05 297.458L16.524 297.458C16.908 297.458 17.232 297.314 17.496 297.026C17.784 296.762 17.928 296.438 17.928 296.054L17.928 283.526C17.928 283.142 17.784 282.806 17.496 282.518C17.232 282.23 16.908 282.086 16.524 282.086L-1.24178e-05 282.086L-1.22888e-05 279.134ZM-1.41358e-05 321.389L25.92 321.389L25.92 341.873C25.92 342.665 25.728 343.385 25.344 344.033C24.96 344.705 24.432 345.233 23.76 345.617C23.112 346.001 22.392 346.193 21.6 346.193L16.092 346.193C15.756 346.193 15.42 346.145 15.084 346.049C14.772 345.977 14.472 345.869 14.184 345.725C13.392 346.253 12.708 346.649 12.132 346.913C11.556 347.177 10.968 347.309 10.368 347.309L4.31998 347.309C3.52798 347.309 2.79598 347.117 2.12398 346.733C1.47598 346.349 0.959985 345.821 0.575985 345.149C0.191985 344.501 -1.51146e-05 343.781 -1.50799e-05 342.989L-1.41358e-05 321.389ZM2.91599 325.709L2.91598 342.989C2.91598 343.373 3.04798 343.697 3.31199 343.961C3.59999 344.249 3.93598 344.393 4.31999 344.393L10.368 344.393C10.752 344.393 11.076 344.249 11.34 343.961C11.628 343.697 11.772 343.373 11.772 342.989L11.772 325.709C11.772 325.325 11.628 324.989 11.34 324.701C11.076 324.437 10.752 324.305 10.368 324.305L4.31999 324.305C3.93599 324.305 3.59999 324.437 3.31199 324.701C3.04799 324.989 2.91599 325.325 2.91599 325.709ZM14.688 325.709L14.688 341.873C14.688 342.257 14.82 342.581 15.084 342.845C15.372 343.109 15.708 343.241 16.092 343.241L21.6 343.241C21.984 343.241 22.308 343.109 22.572 342.845C22.86 342.581 23.004 342.257 23.004 341.873L23.004 325.709C23.004 325.325 22.86 324.989 22.572 324.701C22.308 324.437 21.984 324.305 21.6 324.305L16.092 324.305C15.708 324.305 15.372 324.437 15.084 324.701C14.82 324.989 14.688 325.325 14.688 325.709ZM-1.57818e-05 359.046C-1.57472e-05 358.254 0.191984 357.522 0.575984 356.85C0.983984 356.202 1.51198 355.674 2.15998 355.266C2.83198 354.882 3.56398 354.69 4.35598 354.69L27.72 354.69L27.72 357.642L4.35598 357.642C3.97198 357.642 3.63598 357.774 3.34798 358.038C3.08398 358.326 2.95198 358.662 2.95198 359.046L2.95198 362.574L-1.5936e-05 362.574L-1.57818e-05 359.046ZM-1.63987e-05 373.158C-1.6364e-05 372.366 0.191984 371.634 0.575984 370.962C0.983984 370.314 1.51198 369.786 2.15998 369.378C2.83198 368.994 3.56398 368.802 4.35598 368.802L11.916 368.802L11.916 387.09L16.524 387.09C16.908 387.09 17.232 386.946 17.496 386.658C17.784 386.394 17.928 386.07 17.928 385.686L17.928 368.802L20.88 368.802L20.88 385.686C20.88 386.502 20.676 387.234 20.268 387.882C19.884 388.554 19.356 389.082 18.684 389.466C18.036 389.874 17.316 390.078 16.524 390.078L-1.71383e-05 390.078L-1.63987e-05 373.158ZM2.95198 373.158L2.95198 387.09L8.96398 387.09L8.96398 371.754L4.35598 371.754C3.97198 371.754 3.63598 371.886 3.34798 372.15C3.08398 372.438 2.95198 372.774 2.95198 373.158ZM-1.76116e-05 400.907C-1.7577e-05 400.115 0.191982 399.383 0.575983 398.711C0.983983 398.063 1.51198 397.535 2.15998 397.127C2.83198 396.743 3.56398 396.551 4.35598 396.551L4.64398 396.551L4.64398 399.503L4.35598 399.503C3.97198 399.503 3.63598 399.635 3.34798 399.899C3.08398 400.187 2.95198 400.523 2.95198 400.907L2.95198 413.435C2.95198 413.819 3.08398 414.143 3.34798 414.407C3.63598 414.695 3.97198 414.839 4.35598 414.839L7.55998 414.839C7.94398 414.839 8.26798 414.695 8.53198 414.407C8.81998 414.143 8.96398 413.819 8.96398 413.435L8.96398 400.907C8.96398 400.115 9.15598 399.383 9.53998 398.711C9.94798 398.063 10.476 397.535 11.124 397.127C11.796 396.743 12.528 396.551 13.32 396.551L16.524 396.551C17.316 396.551 18.036 396.743 18.684 397.127C19.356 397.535 19.884 398.063 20.268 398.711C20.676 399.383 20.88 400.115 20.88 400.907L20.88 413.435C20.88 414.251 20.676 414.983 20.268 415.631C19.884 416.303 19.356 416.831 18.684 417.215C18.036 417.623 17.316 417.827 16.524 417.827L16.236 417.827L16.236 414.839L16.524 414.839C16.908 414.839 17.232 414.695 17.496 414.407C17.784 414.143 17.928 413.819 17.928 413.435L17.928 400.907C17.928 400.523 17.784 400.187 17.496 399.899C17.232 399.635 16.908 399.503 16.524 399.503L13.32 399.503C12.936 399.503 12.6 399.635 12.312 399.899C12.048 400.187 11.916 400.523 11.916 400.907L11.916 413.435C11.916 414.251 11.712 414.983 11.304 415.631C10.92 416.303 10.392 416.831 9.71998 417.215C9.07198 417.623 8.35198 417.827 7.55998 417.827L4.35598 417.827C3.56398 417.827 2.83198 417.623 2.15998 417.215C1.51198 416.831 0.983982 416.303 0.575982 415.631C0.191982 414.983 -1.81949e-05 414.251 -1.81592e-05 413.435L-1.76116e-05 400.907ZM-1.88556e-05 429.366C-1.882e-05 428.55 0.191981 427.806 0.575981 427.134C0.983981 426.486 1.51198 425.97 2.15998 425.586C2.83198 425.202 3.56398 425.01 4.35598 425.01L27.72 425.01L27.72 427.962L20.88 427.962L20.88 436.998L17.928 436.998L17.928 427.962L4.35598 427.962C3.97198 427.962 3.63598 428.094 3.34798 428.358C3.08398 428.646 2.95198 428.982 2.95198 429.366L2.95198 436.998L-1.91892e-05 436.998L-1.88556e-05 429.366Z" fill="url(#paint0_linear_73_293)"/>
<defs>
<linearGradient id="paint0_linear_73_293" x1="13" y1="-2" x2="13" y2="246.828" gradientUnits="userSpaceOnUse">
<stop stop-color="#03B10F"/>
<stop offset="0.489583" stop-color="#3CFFB9"/>
<stop offset="1" stop-color="#E7F91B"/>
</linearGradient>
</defs>
</svg>
