<svg width="28" height="397" viewBox="0 0 28 397" fill="none" xmlns="http://www.w3.org/2000/svg">
<path d="M-8.96958e-08 0.051999L25.92 0.0520001L25.92 2.968L14.436 2.968L14.436 23.668L25.92 23.668L25.92 26.62L-1.25102e-06 26.62L-1.12198e-06 23.668L11.484 23.668L11.484 2.968L-2.17158e-07 2.968L-8.96958e-08 0.051999ZM-1.76651e-06 38.4131C-1.73189e-06 37.6211 0.191998 36.8891 0.575998 36.2171C0.983998 35.5691 1.512 35.0411 2.16 34.6331C2.832 34.2491 3.564 34.0571 4.356 34.0571L16.524 34.0571C17.316 34.0571 18.036 34.2491 18.684 34.6331C19.356 35.0411 19.884 35.5691 20.268 36.2171C20.676 36.8891 20.88 37.6211 20.88 38.4131L20.88 50.9411C20.88 51.7571 20.676 52.4891 20.268 53.1371C19.884 53.8091 19.356 54.3371 18.684 54.7211C18.036 55.1291 17.316 55.3331 16.524 55.3331L4.356 55.3331C3.564 55.3331 2.832 55.1291 2.16 54.7211C1.512 54.3371 0.983998 53.8091 0.575998 53.1371C0.191998 52.4891 -2.3498e-06 51.7571 -2.31413e-06 50.9411L-1.76651e-06 38.4131ZM2.952 38.4131L2.952 50.9411C2.952 51.3251 3.084 51.6491 3.348 51.9131C3.636 52.2011 3.972 52.3451 4.356 52.3451L16.524 52.3451C16.908 52.3451 17.232 52.2011 17.496 51.9131C17.784 51.6491 17.928 51.3251 17.928 50.9411L17.928 38.4131C17.928 38.0291 17.784 37.6931 17.496 37.4051C17.232 37.1411 16.908 37.0091 16.524 37.0091L4.356 37.0091C3.972 37.0091 3.636 37.1411 3.348 37.4051C3.084 37.6931 2.952 38.0291 2.952 38.4131ZM-2.97968e-06 66.1671C-2.94401e-06 65.3511 0.191997 64.6071 0.575997 63.9351C0.983997 63.2871 1.512 62.7711 2.16 62.3871C2.832 62.0031 3.564 61.8111 4.356 61.8111L27.72 61.8111L27.72 64.7631L20.88 64.7631L20.88 73.7991L17.928 73.7991L17.928 64.7631L4.356 64.7631C3.972 64.7631 3.636 64.8951 3.348 65.1591C3.084 65.4471 2.952 65.7831 2.952 66.1671L2.952 73.7991L-3.31329e-06 73.7991L-2.97968e-06 66.1671ZM-4.18761e-06 93.8013L25.92 93.8013L25.92 114.285C25.92 115.077 25.728 115.797 25.344 116.445C24.96 117.117 24.432 117.645 23.76 118.029C23.112 118.413 22.392 118.605 21.6 118.605L16.092 118.605C15.756 118.605 15.42 118.557 15.084 118.461C14.772 118.389 14.472 118.281 14.184 118.137C13.392 118.665 12.708 119.061 12.132 119.325C11.556 119.589 10.968 119.721 10.368 119.721L4.31999 119.721C3.52799 119.721 2.79599 119.529 2.12399 119.145C1.47599 118.761 0.959995 118.233 0.575995 117.561C0.191995 116.913 -5.1664e-06 116.193 -5.13178e-06 115.401L-4.18761e-06 93.8013ZM2.916 98.1213L2.91599 115.401C2.91599 115.785 3.04799 116.109 3.312 116.373C3.59999 116.661 3.93599 116.805 4.31999 116.805L10.368 116.805C10.752 116.805 11.076 116.661 11.34 116.373C11.628 116.109 11.772 115.785 11.772 115.401L11.772 98.1213C11.772 97.7373 11.628 97.4013 11.34 97.1133C11.076 96.8493 10.752 96.7173 10.368 96.7173L4.32 96.7173C3.936 96.7173 3.6 96.8493 3.312 97.1133C3.048 97.4013 2.916 97.7373 2.916 98.1213ZM14.688 98.1213L14.688 114.285C14.688 114.669 14.82 114.993 15.084 115.257C15.372 115.521 15.708 115.653 16.092 115.653L21.6 115.653C21.984 115.653 22.308 115.521 22.572 115.257C22.86 114.993 23.004 114.669 23.004 114.285L23.004 98.1213C23.004 97.7373 22.86 97.4013 22.572 97.1133C22.308 96.8493 21.984 96.7173 21.6 96.7173L16.092 96.7173C15.708 96.7173 15.372 96.8493 15.084 97.1133C14.82 97.4013 14.688 97.7373 14.688 98.1213ZM-5.83365e-06 131.458C-5.79904e-06 130.666 0.191994 129.934 0.575994 129.262C0.983994 128.614 1.51199 128.086 2.15999 127.678C2.83199 127.294 3.56399 127.102 4.35599 127.102L27.72 127.102L27.72 130.054L4.35599 130.054C3.97199 130.054 3.63599 130.186 3.34799 130.45C3.08399 130.738 2.95199 131.074 2.95199 131.458L2.95199 134.986L-5.98787e-06 134.986L-5.83365e-06 131.458ZM-6.4505e-06 145.57C-6.41588e-06 144.778 0.191994 144.046 0.575994 143.374C0.983994 142.726 1.51199 142.198 2.15999 141.79C2.83199 141.406 3.56399 141.214 4.35599 141.214L11.916 141.214L11.916 159.502L16.524 159.502C16.908 159.502 17.232 159.358 17.496 159.07C17.784 158.806 17.928 158.482 17.928 158.098L17.928 141.214L20.88 141.214L20.88 158.098C20.88 158.914 20.676 159.646 20.268 160.294C19.884 160.966 19.356 161.494 18.684 161.878C18.036 162.286 17.316 162.49 16.524 162.49L-7.19009e-06 162.49L-6.4505e-06 145.57ZM2.95199 145.57L2.95199 159.502L8.96399 159.502L8.96399 144.166L4.35599 144.166C3.97199 144.166 3.63599 144.298 3.34799 144.562C3.08399 144.85 2.95199 145.186 2.95199 145.57ZM-7.47326e-06 168.968L4.03199 168.968L17.928 187.004L17.928 168.968L20.88 168.968L20.88 190.244L16.848 190.244L2.95199 172.208L2.95199 190.244L-8.40326e-06 190.244L-7.47326e-06 168.968ZM-8.87511e-06 201.039C-8.84049e-06 200.247 0.191991 199.515 0.575991 198.843C0.983991 198.195 1.51199 197.667 2.15999 197.259C2.83199 196.875 3.56399 196.683 4.35599 196.683L16.524 196.683C17.316 196.683 18.036 196.875 18.684 197.259C19.356 197.667 19.884 198.195 20.268 198.843C20.676 199.515 20.88 200.247 20.88 201.039L20.88 213.567C20.88 214.383 20.676 215.115 20.268 215.763C19.884 216.435 19.356 216.963 18.684 217.347C18.036 217.755 17.316 217.959 16.524 217.959L8.96399 217.959L8.96399 199.635L4.35599 199.635C3.97199 199.635 3.63599 199.767 3.34799 200.031C3.08399 200.319 2.95199 200.655 2.95199 201.039L2.95199 217.959L-9.61471e-06 217.959L-8.87511e-06 201.039ZM11.916 199.635L11.916 214.971L16.524 214.971C16.908 214.971 17.232 214.827 17.496 214.539C17.784 214.275 17.928 213.951 17.928 213.567L17.928 201.039C17.928 200.655 17.784 200.319 17.496 200.031C17.232 199.767 16.908 199.635 16.524 199.635L11.916 199.635ZM-1.05413e-05 239.157L25.92 239.157L25.92 242.109L-1.06704e-05 242.109L-1.05413e-05 239.157ZM-1.10163e-05 250.024L20.88 250.024L20.88 266.944C20.88 267.736 20.676 268.456 20.268 269.104C19.884 269.776 19.356 270.304 18.684 270.688C18.036 271.096 17.316 271.3 16.524 271.3L-1.19463e-05 271.3L-1.18173e-05 268.348L16.524 268.348C16.908 268.348 17.232 268.204 17.496 267.916C17.784 267.652 17.928 267.328 17.928 266.944L17.928 254.416C17.928 254.032 17.784 253.696 17.496 253.408C17.232 253.12 16.908 252.976 16.524 252.976L-1.11454e-05 252.976L-1.10163e-05 250.024ZM-1.22678e-05 278.655L23.364 278.655C24.18 278.655 24.912 278.847 25.56 279.231C26.232 279.615 26.76 280.131 27.144 280.779C27.528 281.451 27.72 282.195 27.72 283.011L27.72 290.643L24.768 290.643L24.768 283.011C24.768 282.627 24.624 282.291 24.336 282.003C24.072 281.739 23.748 281.607 23.364 281.607L20.88 281.607L20.88 290.643L17.928 290.643L17.928 281.607L-1.23969e-05 281.607L-1.22678e-05 278.655ZM-1.32533e-05 301.199C-1.32186e-05 300.407 0.191987 299.675 0.575987 299.003C0.983987 298.355 1.51199 297.827 2.15999 297.419C2.83199 297.035 3.56399 296.843 4.35599 296.843L16.524 296.843C17.316 296.843 18.036 297.035 18.684 297.419C19.356 297.827 19.884 298.355 20.268 299.003C20.676 299.675 20.88 300.407 20.88 301.199L20.88 313.727C20.88 314.543 20.676 315.275 20.268 315.923C19.884 316.595 19.356 317.123 18.684 317.507C18.036 317.915 17.316 318.119 16.524 318.119L8.96399 318.119L8.96399 299.795L4.35599 299.795C3.97199 299.795 3.63599 299.927 3.34799 300.191C3.08399 300.479 2.95199 300.815 2.95199 301.199L2.95199 318.119L-1.39928e-05 318.119L-1.32533e-05 301.199ZM11.916 299.795L11.916 315.131L16.524 315.131C16.908 315.131 17.232 314.987 17.496 314.699C17.784 314.435 17.928 314.111 17.928 313.727L17.928 301.199C17.928 300.815 17.784 300.479 17.496 300.191C17.232 299.927 16.908 299.795 16.524 299.795L11.916 299.795ZM-1.43036e-05 325.229L16.524 325.229C17.316 325.229 18.036 325.421 18.684 325.805C19.356 326.213 19.884 326.741 20.268 327.389C20.676 328.061 20.88 328.793 20.88 329.585L20.88 341.321L17.928 341.321L17.928 329.585C17.928 329.201 17.784 328.865 17.496 328.577C17.232 328.313 16.908 328.181 16.524 328.181L-1.44327e-05 328.181L-1.43036e-05 325.229ZM-1.52694e-05 347.323L20.88 347.323L20.88 364.243C20.88 365.035 20.676 365.755 20.268 366.403C19.884 367.075 19.356 367.603 18.684 367.987C18.036 368.395 17.316 368.599 16.524 368.599L-1.61994e-05 368.599L-1.60704e-05 365.647L16.524 365.647C16.908 365.647 17.232 365.503 17.496 365.215C17.784 364.951 17.928 364.627 17.928 364.243L17.928 351.715C17.928 351.331 17.784 350.995 17.496 350.707C17.232 350.419 16.908 350.275 16.524 350.275L-1.53984e-05 350.275L-1.52694e-05 347.323ZM-1.66851e-05 379.71C-1.66505e-05 378.918 0.191983 378.186 0.575983 377.514C0.983983 376.866 1.51198 376.338 2.15998 375.93C2.83198 375.546 3.56398 375.354 4.35598 375.354L16.524 375.354C17.316 375.354 18.036 375.546 18.684 375.93C19.356 376.338 19.884 376.866 20.268 377.514C20.676 378.186 20.88 378.918 20.88 379.71L20.88 392.238C20.88 393.054 20.676 393.786 20.268 394.434C19.884 395.106 19.356 395.634 18.684 396.018C18.036 396.426 17.316 396.63 16.524 396.63L4.35598 396.63C3.56398 396.63 2.83198 396.426 2.15998 396.018C1.51198 395.634 0.983983 395.106 0.575983 394.434C0.191983 393.786 -1.72684e-05 393.054 -1.72327e-05 392.238L-1.66851e-05 379.71ZM2.95198 379.71L2.95198 392.238C2.95198 392.622 3.08398 392.946 3.34798 393.21C3.63598 393.498 3.97198 393.642 4.35598 393.642L16.524 393.642C16.908 393.642 17.232 393.498 17.496 393.21C17.784 392.946 17.928 392.622 17.928 392.238L17.928 379.71C17.928 379.326 17.784 378.99 17.496 378.702C17.232 378.438 16.908 378.306 16.524 378.306L4.35598 378.306C3.97198 378.306 3.63598 378.438 3.34798 378.702C3.08398 378.99 2.95198 379.326 2.95198 379.71Z" fill="url(#paint0_linear_81_4)"/>
<defs>
<linearGradient id="paint0_linear_81_4" x1="11.7" y1="-2" x2="11.7" y2="234.452" gradientUnits="userSpaceOnUse">
<stop stop-color="#B00202"/>
<stop offset="0.494792" stop-color="#FF8A00"/>
<stop offset="1" stop-color="#E83A54"/>
</linearGradient>
</defs>
</svg>
