<svg width="37" height="446" viewBox="0 0 37 446" fill="none" xmlns="http://www.w3.org/2000/svg">
<path d="M9 0.0159989L34.92 0.0160001L34.92 4.012L22.104 14.776L34.92 25.54L34.92 29.536L9 29.536L9 26.62L31.608 26.62L17.532 14.776L31.608 2.932L9 2.932L9 0.0159989ZM9 36.8704L29.88 36.8704L29.88 39.8224L9 39.8224L9 36.8704ZM33.768 36.8704L36.72 36.8704L36.72 39.8224L33.768 39.8224L33.768 36.8704ZM9 46.2662L9.036 46.2662L19.62 54.9782L29.844 46.2662L29.88 46.2662L29.88 50.1542L21.96 56.9222L29.88 63.7262L29.88 67.5782L29.844 67.5782L19.62 58.8662L9.036 67.6142L9 67.6142L9 63.7262L17.352 56.9222L9 50.1542L9 46.2662ZM9 77.5701C9 76.7781 9.192 76.0461 9.576 75.3741C9.984 74.7261 10.512 74.1981 11.16 73.7901C11.832 73.4061 12.564 73.2141 13.356 73.2141L25.524 73.2141C26.316 73.2141 27.036 73.4061 27.684 73.7901C28.356 74.1981 28.884 74.7261 29.268 75.3741C29.676 76.0461 29.88 76.7781 29.88 77.5701L29.88 90.0981C29.88 90.9141 29.676 91.6461 29.268 92.2941C28.884 92.9661 28.356 93.4941 27.684 93.8781C27.036 94.2861 26.316 94.4901 25.524 94.4901L17.964 94.4901L17.964 76.1661L13.356 76.1661C12.972 76.1661 12.636 76.2981 12.348 76.5621C12.084 76.8501 11.952 77.1861 11.952 77.5701L11.952 94.4901L9 94.4901L9 77.5701ZM20.916 76.1661L20.916 91.5021L25.524 91.5021C25.908 91.5021 26.232 91.3581 26.496 91.0701C26.784 90.8061 26.928 90.4821 26.928 90.0981L26.928 77.5701C26.928 77.1861 26.784 76.8501 26.496 76.5621C26.232 76.2981 25.908 76.1661 25.524 76.1661L20.916 76.1661ZM9 105.124C9 104.308 9.192 103.564 9.576 102.892C9.984 102.244 10.512 101.716 11.16 101.308C11.832 100.924 12.564 100.732 13.356 100.732L25.524 100.732C26.316 100.732 27.036 100.924 27.684 101.308C28.356 101.716 28.884 102.244 29.268 102.892C29.676 103.564 29.88 104.308 29.88 105.124L29.88 119.056L36.72 119.056L36.72 122.008L8.99999 122.008L9 105.124ZM11.952 105.124L11.952 117.652C11.952 118.036 12.084 118.36 12.348 118.624C12.636 118.912 12.972 119.056 13.356 119.056L25.524 119.056C25.908 119.056 26.232 118.912 26.496 118.624C26.784 118.36 26.928 118.036 26.928 117.652L26.928 105.124C26.928 104.74 26.784 104.404 26.496 104.116C26.232 103.852 25.908 103.72 25.524 103.72L13.356 103.72C12.972 103.72 12.636 103.852 12.348 104.116C12.084 104.404 11.952 104.74 11.952 105.124ZM8.99999 143.048L34.92 143.048L34.92 163.532C34.92 164.324 34.728 165.044 34.344 165.692C33.96 166.364 33.432 166.892 32.76 167.276C32.112 167.66 31.392 167.852 30.6 167.852L25.092 167.852C24.756 167.852 24.42 167.804 24.084 167.708C23.772 167.636 23.472 167.528 23.184 167.384C22.392 167.912 21.708 168.308 21.132 168.572C20.556 168.836 19.968 168.968 19.368 168.968L13.32 168.968C12.528 168.968 11.796 168.776 11.124 168.392C10.476 168.008 9.95999 167.48 9.57599 166.808C9.19199 166.16 8.99999 165.44 8.99999 164.648L8.99999 143.048ZM11.916 147.368L11.916 164.648C11.916 165.032 12.048 165.356 12.312 165.62C12.6 165.908 12.936 166.052 13.32 166.052L19.368 166.052C19.752 166.052 20.076 165.908 20.34 165.62C20.628 165.356 20.772 165.032 20.772 164.648L20.772 147.368C20.772 146.984 20.628 146.648 20.34 146.36C20.076 146.096 19.752 145.964 19.368 145.964L13.32 145.964C12.936 145.964 12.6 146.096 12.312 146.36C12.048 146.648 11.916 146.984 11.916 147.368ZM23.688 147.368L23.688 163.532C23.688 163.916 23.82 164.24 24.084 164.504C24.372 164.768 24.708 164.9 25.092 164.9L30.6 164.9C30.984 164.9 31.308 164.768 31.572 164.504C31.86 164.24 32.004 163.916 32.004 163.532L32.004 147.368C32.004 146.984 31.86 146.648 31.572 146.36C31.308 146.096 30.984 145.964 30.6 145.964L25.092 145.964C24.708 145.964 24.372 146.096 24.084 146.36C23.82 146.648 23.688 146.984 23.688 147.368ZM8.99999 180.669C8.99999 179.877 9.19199 179.145 9.57599 178.473C9.98399 177.825 10.512 177.297 11.16 176.889C11.832 176.505 12.564 176.313 13.356 176.313L25.524 176.313C26.316 176.313 27.036 176.505 27.684 176.889C28.356 177.297 28.884 177.825 29.268 178.473C29.676 179.145 29.88 179.877 29.88 180.669L29.88 193.197C29.88 194.013 29.676 194.745 29.268 195.393C28.884 196.065 28.356 196.593 27.684 196.977C27.036 197.385 26.316 197.589 25.524 197.589L17.964 197.589L17.964 179.265L13.356 179.265C12.972 179.265 12.636 179.397 12.348 179.661C12.084 179.949 11.952 180.285 11.952 180.669L11.952 197.589L8.99999 197.589L8.99999 180.669ZM20.916 179.265L20.916 194.601L25.524 194.601C25.908 194.601 26.232 194.457 26.496 194.169C26.784 193.905 26.928 193.581 26.928 193.197L26.928 180.669C26.928 180.285 26.784 179.949 26.496 179.661C26.232 179.397 25.908 179.265 25.524 179.265L20.916 179.265ZM8.99999 204.699L25.524 204.699C26.316 204.699 27.036 204.891 27.684 205.275C28.356 205.683 28.884 206.211 29.268 206.859C29.676 207.531 29.88 208.263 29.88 209.055L29.88 220.791L26.928 220.791L26.928 209.055C26.928 208.671 26.784 208.335 26.496 208.047C26.232 207.783 25.908 207.651 25.524 207.651L8.99999 207.651L8.99999 204.699ZM8.99999 226.721L25.524 226.721C26.316 226.721 27.036 226.913 27.684 227.297C28.356 227.705 28.884 228.233 29.268 228.881C29.676 229.553 29.88 230.285 29.88 231.077L29.88 242.813L26.928 242.813L26.928 231.077C26.928 230.693 26.784 230.357 26.496 230.069C26.232 229.805 25.908 229.673 25.524 229.673L8.99999 229.673L8.99999 226.721ZM0.719989 252.235L3.70799 252.235L3.70799 265.267C3.70799 265.651 3.85199 265.975 4.13999 266.239C4.40399 266.527 4.72799 266.671 5.11199 266.671L8.99999 266.671L8.99999 252.739C8.99999 251.947 9.19199 251.215 9.57599 250.543C9.98399 249.895 10.512 249.367 11.16 248.959C11.832 248.575 12.564 248.383 13.356 248.383L29.808 248.383L29.808 251.335L13.356 251.335C12.972 251.335 12.636 251.467 12.348 251.731C12.084 252.019 11.952 252.355 11.952 252.739L11.952 265.267C11.952 265.651 12.084 265.975 12.348 266.239C12.636 266.527 12.972 266.671 13.356 266.671L29.808 266.671L29.808 269.623L5.11199 269.623C4.29599 269.623 3.56399 269.431 2.91599 269.047C2.24399 268.663 1.71599 268.135 1.33199 267.463C0.923988 266.815 0.719988 266.083 0.719988 265.267L0.719989 252.235ZM8.99999 290.612L34.92 290.612L34.92 312.212C34.92 313.004 34.728 313.724 34.344 314.372C33.96 315.044 33.432 315.572 32.76 315.956C32.112 316.34 31.392 316.532 30.6 316.532L13.32 316.532C12.528 316.532 11.796 316.34 11.124 315.956C10.476 315.572 9.95999 315.044 9.57599 314.372C9.19199 313.724 8.99999 313.004 8.99999 312.212L8.99999 290.612ZM11.916 294.932L11.916 312.212C11.916 312.596 12.048 312.92 12.312 313.184C12.6 313.472 12.936 313.616 13.32 313.616L30.6 313.616C30.984 313.616 31.308 313.472 31.572 313.184C31.86 312.92 32.004 312.596 32.004 312.212L32.004 294.932C32.004 294.548 31.86 294.212 31.572 293.924C31.308 293.66 30.984 293.528 30.6 293.528L13.32 293.528C12.936 293.528 12.6 293.66 12.312 293.924C12.048 294.212 11.916 294.548 11.916 294.932ZM8.99999 328.34C8.99999 327.548 9.19199 326.816 9.57599 326.144C9.98399 325.496 10.512 324.968 11.16 324.56C11.832 324.176 12.564 323.984 13.356 323.984L25.524 323.984C26.316 323.984 27.036 324.176 27.684 324.56C28.356 324.968 28.884 325.496 29.268 326.144C29.676 326.816 29.88 327.548 29.88 328.34L29.88 340.868C29.88 341.684 29.676 342.416 29.268 343.064C28.884 343.736 28.356 344.264 27.684 344.648C27.036 345.056 26.316 345.26 25.524 345.26L17.964 345.26L17.964 326.936L13.356 326.936C12.972 326.936 12.636 327.068 12.348 327.332C12.084 327.62 11.952 327.956 11.952 328.34L11.952 345.26L8.99998 345.26L8.99999 328.34ZM20.916 326.936L20.916 342.272L25.524 342.272C25.908 342.272 26.232 342.128 26.496 341.84C26.784 341.576 26.928 341.252 26.928 340.868L26.928 328.34C26.928 327.956 26.784 327.62 26.496 327.332C26.232 327.068 25.908 326.936 25.524 326.936L20.916 326.936ZM8.99998 356.198C8.99998 355.406 9.19198 354.674 9.57598 354.002C9.98398 353.354 10.512 352.826 11.16 352.418C11.832 352.034 12.564 351.842 13.356 351.842L36.72 351.842L36.72 354.794L13.356 354.794C12.972 354.794 12.636 354.926 12.348 355.19C12.084 355.478 11.952 355.814 11.952 356.198L11.952 359.726L8.99998 359.726L8.99998 356.198ZM8.99998 366.306L29.88 366.306L29.88 369.258L8.99998 369.258L8.99998 366.306ZM33.768 366.306L36.72 366.306L36.72 369.258L33.768 369.258L33.768 366.306ZM0.755983 380.85L3.74398 380.85L3.74398 393.882C3.74398 394.266 3.88798 394.59 4.17598 394.854C4.43998 395.142 4.76398 395.286 5.14798 395.286L8.99998 395.286L8.99998 381.354C8.99998 380.562 9.19198 379.83 9.57598 379.158C9.98398 378.51 10.512 377.982 11.16 377.574C11.832 377.19 12.564 376.998 13.356 376.998L25.524 376.998C26.316 376.998 27.036 377.19 27.684 377.574C28.356 377.982 28.884 378.51 29.268 379.158C29.676 379.83 29.88 380.562 29.88 381.354L29.88 393.882C29.88 394.698 29.676 395.43 29.268 396.078C28.884 396.75 28.356 397.278 27.684 397.662C27.036 398.046 26.316 398.238 25.524 398.238L5.14798 398.238C4.33198 398.238 3.59998 398.046 2.95198 397.662C2.27998 397.278 1.75198 396.75 1.36798 396.078C0.959982 395.43 0.755982 394.698 0.755982 393.882L0.755983 380.85ZM11.952 381.354L11.952 393.882C11.952 394.266 12.084 394.59 12.348 394.854C12.636 395.142 12.972 395.286 13.356 395.286L25.524 395.286C25.908 395.286 26.232 395.142 26.496 394.854C26.784 394.59 26.928 394.266 26.928 393.882L26.928 381.354C26.928 380.97 26.784 380.634 26.496 380.346C26.232 380.082 25.908 379.95 25.524 379.95L13.356 379.95C12.972 379.95 12.636 380.082 12.348 380.346C12.084 380.634 11.952 380.97 11.952 381.354ZM8.99998 405.64L36.72 405.64L36.72 408.592L29.88 408.592L29.88 422.56C29.88 423.352 29.676 424.072 29.268 424.72C28.884 425.392 28.356 425.92 27.684 426.304C27.036 426.712 26.316 426.916 25.524 426.916L8.99998 426.916L8.99998 423.964L25.524 423.964C25.908 423.964 26.232 423.82 26.496 423.532C26.784 423.268 26.928 422.944 26.928 422.56L26.928 410.032C26.928 409.648 26.784 409.312 26.496 409.024C26.232 408.736 25.908 408.592 25.524 408.592L8.99998 408.592L8.99998 405.64ZM8.99998 437.607C8.99998 436.791 9.19198 436.047 9.57598 435.375C9.98398 434.727 10.512 434.211 11.16 433.827C11.832 433.443 12.564 433.251 13.356 433.251L36.72 433.251L36.72 436.203L29.88 436.203L29.88 445.239L26.928 445.239L26.928 436.203L13.356 436.203C12.972 436.203 12.636 436.335 12.348 436.599C12.084 436.887 11.952 437.223 11.952 437.607L11.952 445.239L8.99998 445.239L8.99998 437.607Z" fill="url(#paint0_linear_73_231)"/>
<defs>
<linearGradient id="paint0_linear_73_231" x1="22" y1="-2" x2="145.447" y2="92.9243" gradientUnits="userSpaceOnUse">
<stop stop-color="#128FCD"/>
<stop offset="0.51192" stop-color="#B3D6E0"/>
<stop offset="1" stop-color="#DC24B1"/>
</linearGradient>
</defs>
</svg>
